<svg width="33" height="33" viewBox="0 0 33 33" fill="none" xmlns="http://www.w3.org/2000/svg">
<rect width="33" height="33" rx="16.5" fill="#FFD7DC"/>
<path d="M11.7778 25C11.2583 25 10.8138 24.8152 10.4442 24.4456C10.074 24.0754 9.8889 23.6306 9.8889 23.1111V10.8333H8.94446V8.94444H13.6667V8H19.3333V8.94444H24.0556V10.8333H23.1111V23.1111C23.1111 23.6306 22.9263 24.0754 22.5567 24.4456C22.1865 24.8152 21.7417 25 21.2222 25H11.7778ZM21.2222 10.8333H11.7778V23.1111H21.2222V10.8333ZM13.6667 21.2222H15.5556V12.7222H13.6667V21.2222ZM17.4445 21.2222H19.3333V12.7222H17.4445V21.2222ZM11.7778 10.8333V23.1111V10.8333Z" fill="#ED4459"/>
</svg>
