<svg width="33" height="34" viewBox="0 0 33 34" fill="none" xmlns="http://www.w3.org/2000/svg">
<rect width="33" height="33.0035" rx="16.5" fill="#E0EEFF"/>
<path d="M24.5135 12.2031L20.8004 8.49003C20.6474 8.33482 20.4651 8.21157 20.264 8.12744C20.0629 8.04332 19.8472 8 19.6292 8C19.4112 8 19.1955 8.04332 18.9944 8.12744C18.7933 8.21157 18.611 8.33482 18.458 8.49003L8.49009 18.4579C8.3345 18.6106 8.21099 18.7929 8.12683 18.9941C8.04267 19.1952 7.99955 19.4111 8 19.6291V23.3422C8.00219 23.7821 8.17792 24.2034 8.489 24.5145C8.80009 24.8256 9.22138 25.0013 9.66132 25.0035H13.3744C13.5924 25.0039 13.8083 24.9608 14.0094 24.8767C14.2106 24.7925 14.3929 24.669 14.5456 24.5134L24.5135 14.5455C24.6677 14.3919 24.79 14.2094 24.8735 14.0084C24.957 13.8074 25 13.5919 25 13.3743C25 13.1567 24.957 12.9412 24.8735 12.7402C24.79 12.5392 24.6677 12.3566 24.5135 12.2031ZM13.2331 23.0099H9.99358V19.7704L16.9711 12.7928L20.2107 16.0324L13.2331 23.0099ZM21.6228 14.6203L18.3832 11.3807L19.6292 10.1347L22.8688 13.3743L21.6228 14.6203Z" fill="#0075FD"/>
</svg>
