<svg width="28" height="24" viewBox="0 0 28 24" fill="none" xmlns="http://www.w3.org/2000/svg">
<path d="M14.1307 20.3379L13.9999 20.4687L13.856 20.3379C7.64351 14.7008 3.5367 10.9733 3.5367 7.19349C3.5367 4.57769 5.49856 2.61583 8.11436 2.61583C10.1285 2.61583 12.0904 3.92374 12.7836 5.70248H15.2163C15.9095 3.92374 17.8713 2.61583 19.8855 2.61583C22.5013 2.61583 24.4631 4.57769 24.4631 7.19349C24.4631 10.9733 20.3563 14.7008 14.1307 20.3379ZM19.8855 3.05176e-05C17.6097 3.05176e-05 15.4255 1.05943 13.9999 2.72047C12.5743 1.05943 10.3901 3.05176e-05 8.11436 3.05176e-05C4.08602 3.05176e-05 0.920898 3.15207 0.920898 7.19349C0.920898 12.1243 5.36776 16.1657 12.1035 22.2736L13.9999 24L15.8964 22.2736C22.6321 16.1657 27.0789 12.1243 27.0789 7.19349C27.0789 3.15207 23.9138 3.05176e-05 19.8855 3.05176e-05Z" fill="#6D737A"/>
</svg>
