<svg width="593" height="430" viewBox="0 0 593 430" fill="none" xmlns="http://www.w3.org/2000/svg">
<path d="M377.889 322.144V425.474H118.293C88.716 425.474 64.6515 402.296 64.6515 373.809C64.6515 345.321 88.716 322.144 118.293 322.144H377.889Z" fill="#F2F2F2"/>
<path d="M384.266 424.679C384.265 425.733 383.845 426.743 383.098 427.489C382.351 428.234 381.337 428.653 380.281 428.653H113.67C99.1895 428.653 85.3024 422.917 75.0634 412.706C64.8244 402.495 59.0722 388.646 59.0722 374.206C59.0722 359.766 64.8244 345.917 75.0634 335.706C85.3024 325.495 99.1895 319.759 113.67 319.759H380.281C381.337 319.759 382.351 320.178 383.099 320.923C383.846 321.668 384.266 322.679 384.266 323.733C384.266 324.787 383.846 325.798 383.099 326.543C382.351 327.289 381.337 327.708 380.281 327.708H113.67C101.303 327.708 89.4436 332.606 80.6993 341.327C71.9551 350.047 67.0426 361.874 67.0426 374.206C67.0426 386.538 71.9551 398.365 80.6993 407.086C89.4436 415.806 101.303 420.705 113.67 420.705H380.281C381.337 420.705 382.351 421.124 383.098 421.869C383.845 422.614 384.265 423.625 384.266 424.679Z" fill="#FFC27A"/>
<path d="M377.889 345.989H98.9243C98.7129 345.989 98.5102 345.905 98.3607 345.756C98.2113 345.607 98.1273 345.405 98.1273 345.194C98.1273 344.983 98.2113 344.781 98.3607 344.632C98.5102 344.483 98.7129 344.399 98.9243 344.399H377.889C378.101 344.399 378.304 344.483 378.453 344.632C378.602 344.781 378.686 344.983 378.686 345.194C378.686 345.405 378.602 345.607 378.453 345.756C378.304 345.905 378.101 345.989 377.889 345.989Z" fill="#CCCCCC"/>
<path d="M377.889 365.066H98.9243C98.7129 365.066 98.5102 364.982 98.3607 364.833C98.2113 364.684 98.1273 364.481 98.1273 364.271C98.1273 364.06 98.2113 363.858 98.3607 363.709C98.5102 363.56 98.7129 363.476 98.9243 363.476H377.889C378.101 363.476 378.304 363.56 378.453 363.709C378.602 363.858 378.686 364.06 378.686 364.271C378.686 364.481 378.602 364.684 378.453 364.833C378.304 364.982 378.101 365.066 377.889 365.066Z" fill="#CCCCCC"/>
<path d="M377.889 384.142H98.9243C98.7129 384.142 98.5102 384.058 98.3607 383.909C98.2113 383.76 98.1273 383.558 98.1273 383.347C98.1273 383.136 98.2113 382.934 98.3607 382.785C98.5102 382.636 98.7129 382.552 98.9243 382.552H377.889C378.101 382.552 378.304 382.636 378.453 382.785C378.602 382.934 378.686 383.136 378.686 383.347C378.686 383.558 378.602 383.76 378.453 383.909C378.304 384.058 378.101 384.142 377.889 384.142Z" fill="#CCCCCC"/>
<path d="M377.889 403.218H98.9243C98.7129 403.218 98.5102 403.134 98.3607 402.985C98.2113 402.836 98.1273 402.634 98.1273 402.423C98.1273 402.212 98.2113 402.01 98.3607 401.861C98.5102 401.712 98.7129 401.628 98.9243 401.628H377.889C378.101 401.628 378.304 401.712 378.453 401.861C378.602 402.01 378.686 402.212 378.686 402.423C378.686 402.634 378.602 402.836 378.453 402.985C378.304 403.134 378.101 403.218 377.889 403.218Z" fill="#CCCCCC"/>
<path d="M578.519 341.594L513.508 422.055L311.366 259.628C288.335 241.122 284.178 208.017 302.101 185.834C320.024 163.651 353.345 160.66 376.377 179.167L578.519 341.594Z" fill="#F2F2F2"/>
<path d="M518.974 425.426C518.31 426.247 517.347 426.771 516.297 426.883C515.246 426.996 514.193 426.688 513.37 426.027L305.765 259.211C294.49 250.151 287.285 236.995 285.737 222.637C284.188 208.28 288.422 193.897 297.507 182.653C306.592 171.408 319.784 164.224 334.181 162.679C348.578 161.135 363.001 165.357 374.277 174.417L581.881 341.234C582.289 341.561 582.628 341.965 582.879 342.423C583.13 342.882 583.289 343.384 583.345 343.904C583.401 344.423 583.354 344.948 583.207 345.449C583.059 345.95 582.814 346.417 582.486 346.823C582.157 347.23 581.752 347.568 581.292 347.818C580.833 348.068 580.328 348.226 579.808 348.281C579.287 348.337 578.761 348.29 578.258 348.143C577.756 347.995 577.288 347.751 576.88 347.423L369.276 180.606C364.508 176.772 359.03 173.913 353.153 172.19C347.277 170.468 341.118 169.918 335.029 170.57C328.939 171.222 323.038 173.064 317.662 175.991C312.287 178.918 307.542 182.872 303.699 187.628C299.856 192.384 296.991 197.849 295.266 203.709C293.542 209.57 292.992 215.712 293.648 221.785C294.304 227.858 296.154 233.742 299.091 239.101C302.028 244.461 305.995 249.191 310.766 253.022L518.371 419.838C519.193 420.5 519.719 421.46 519.832 422.508C519.945 423.556 519.636 424.605 518.974 425.426Z" fill="#20B486"/>
<path d="M563.517 360.162L346.292 185.616C346.21 185.55 346.143 185.47 346.093 185.378C346.042 185.286 346.011 185.186 346 185.082C345.988 184.978 345.998 184.873 346.027 184.773C346.057 184.673 346.106 184.58 346.171 184.498C346.237 184.417 346.318 184.349 346.41 184.299C346.502 184.249 346.603 184.218 346.707 184.207C346.811 184.196 346.916 184.205 347.017 184.234C347.117 184.264 347.211 184.313 347.292 184.378L564.517 358.925C564.598 358.99 564.666 359.071 564.717 359.162C564.767 359.254 564.799 359.355 564.81 359.459C564.821 359.562 564.812 359.667 564.782 359.768C564.753 359.868 564.704 359.961 564.638 360.043C564.572 360.124 564.491 360.192 564.399 360.242C564.307 360.292 564.206 360.323 564.102 360.334C563.998 360.346 563.893 360.336 563.792 360.307C563.692 360.277 563.598 360.228 563.517 360.162V360.162Z" fill="#CCCCCC"/>
<path d="M551.515 375.016L334.29 200.47C334.126 200.338 334.021 200.146 333.998 199.936C333.976 199.727 334.038 199.517 334.17 199.353C334.303 199.189 334.495 199.084 334.705 199.062C334.915 199.039 335.126 199.1 335.29 199.232L552.515 373.779C552.596 373.844 552.664 373.925 552.715 374.017C552.765 374.108 552.797 374.209 552.808 374.313C552.819 374.417 552.81 374.522 552.78 374.622C552.751 374.722 552.702 374.816 552.636 374.897C552.57 374.978 552.489 375.046 552.397 375.096C552.305 375.146 552.204 375.177 552.1 375.189C551.996 375.2 551.891 375.19 551.79 375.161C551.69 375.131 551.596 375.082 551.515 375.016Z" fill="#CCCCCC"/>
<path d="M539.513 389.871L322.288 215.325C322.123 215.192 322.018 215 321.996 214.791C321.973 214.581 322.035 214.371 322.167 214.207C322.3 214.043 322.493 213.938 322.703 213.915C322.913 213.893 323.124 213.955 323.288 214.087L540.513 388.633C540.594 388.699 540.662 388.78 540.712 388.871C540.762 388.963 540.794 389.063 540.805 389.167C540.816 389.271 540.807 389.376 540.777 389.476C540.748 389.576 540.699 389.67 540.633 389.751C540.568 389.832 540.487 389.9 540.395 389.95C540.303 390 540.202 390.031 540.098 390.042C539.994 390.054 539.889 390.044 539.788 390.015C539.688 389.985 539.594 389.937 539.513 389.871V389.871Z" fill="#CCCCCC"/>
<path d="M527.511 404.725L310.286 230.179C310.205 230.113 310.137 230.033 310.087 229.941C310.037 229.849 310.005 229.749 309.994 229.645C309.983 229.541 309.992 229.436 310.021 229.336C310.051 229.236 310.1 229.143 310.166 229.061C310.231 228.98 310.312 228.912 310.404 228.862C310.496 228.812 310.597 228.781 310.701 228.77C310.805 228.759 310.91 228.768 311.011 228.797C311.111 228.827 311.205 228.876 311.286 228.941L528.511 403.487C528.593 403.553 528.66 403.634 528.711 403.725C528.761 403.817 528.793 403.918 528.804 404.021C528.815 404.125 528.806 404.23 528.776 404.331C528.747 404.431 528.698 404.524 528.632 404.606C528.566 404.687 528.485 404.755 528.393 404.805C528.301 404.855 528.2 404.886 528.096 404.897C527.992 404.908 527.887 404.899 527.786 404.869C527.686 404.84 527.592 404.791 527.511 404.725Z" fill="#CCCCCC"/>
<path d="M592.203 429.448H0.797043C0.585654 429.448 0.382922 429.364 0.233448 429.215C0.0839733 429.066 0 428.864 0 428.653C0 428.442 0.0839733 428.24 0.233448 428.091C0.382922 427.942 0.585654 427.858 0.797043 427.858H592.203C592.414 427.858 592.617 427.942 592.767 428.091C592.916 428.24 593 428.442 593 428.653C593 428.864 592.916 429.066 592.767 429.215C592.617 429.364 592.414 429.448 592.203 429.448Z" fill="#20B486"/>
<path d="M269.465 311.283L260.353 311.282L256.02 276.232L269.468 276.234L269.465 311.283Z" fill="#FFB8B8"/>
<path d="M253.844 308.686H271.417V319.72H242.78C242.78 318.271 243.066 316.836 243.622 315.497C244.178 314.159 244.993 312.942 246.02 311.918C247.048 310.893 248.268 310.08 249.61 309.526C250.952 308.971 252.391 308.686 253.844 308.686Z" fill="#2F2E41"/>
<path d="M176.374 311.283L167.263 311.282L162.929 276.232L176.378 276.234L176.374 311.283Z" fill="#FFB8B8"/>
<path d="M160.754 308.686H178.327V319.72H149.689C149.689 318.271 149.976 316.836 150.532 315.497C151.088 314.159 151.903 312.942 152.93 311.918C153.958 310.893 155.177 310.08 156.52 309.526C157.862 308.971 159.301 308.686 160.754 308.686Z" fill="#2F2E41"/>
<path d="M206.809 51.2968V47.3226C206.809 40.524 209.518 34.004 214.338 29.1967C219.159 24.3894 225.697 21.6887 232.514 21.6887H232.514C239.331 21.6887 245.869 24.3894 250.69 29.1967C255.511 34.004 258.219 40.524 258.219 47.3226V51.2968C258.219 56.1981 256.266 60.8986 252.791 64.3643C249.316 67.8301 244.602 69.7771 239.687 69.7771H225.341C222.907 69.7771 220.497 69.2991 218.249 68.3704C216.001 67.4416 213.958 66.0804 212.237 64.3643C210.516 62.6483 209.151 60.611 208.22 58.3689C207.289 56.1268 206.809 53.7237 206.809 51.2968Z" fill="#2F2E41"/>
<path d="M232.514 71.1447C243.326 71.1447 252.09 62.4042 252.09 51.6224C252.09 40.8405 243.326 32.1001 232.514 32.1001C221.702 32.1001 212.938 40.8405 212.938 51.6224C212.938 62.4042 221.702 71.1447 232.514 71.1447Z" fill="#FFB8B8"/>
<path d="M126.032 118.718C126.827 117.97 127.776 117.405 128.813 117.062C129.85 116.719 130.95 116.608 132.035 116.735C133.12 116.862 134.164 117.225 135.094 117.798C136.023 118.371 136.815 119.14 137.414 120.051L154.196 116.886L158.612 126.586L134.85 130.725C133.248 131.627 131.37 131.912 129.572 131.525C127.774 131.138 126.18 130.107 125.093 128.627C124.006 127.147 123.502 125.321 123.675 123.495C123.848 121.668 124.686 119.969 126.032 118.718V118.718Z" fill="#FFB8B8"/>
<path d="M217.252 83.4392L217.472 83.7708L189.953 101.849L143.519 116.636C142.903 116.833 142.375 117.237 142.025 117.779C141.674 118.321 141.523 118.967 141.596 119.607L142.609 128.308C142.654 128.693 142.779 129.065 142.976 129.399C143.174 129.733 143.439 130.022 143.755 130.248C144.071 130.474 144.431 130.631 144.811 130.711C145.192 130.79 145.585 130.789 145.965 130.707L189.666 121.366C191.781 120.916 193.781 120.038 195.542 118.786L226.457 96.8508C227.578 96.0512 228.473 94.9761 229.053 93.7299C229.634 92.4836 229.882 91.1087 229.772 89.7389C229.658 88.3671 229.189 87.0485 228.41 85.9126C227.63 84.7767 226.568 83.8627 225.326 83.2605C224.085 82.6583 222.708 82.3887 221.331 82.4782C219.954 82.5677 218.624 83.0132 217.471 83.7708L217.252 83.4392Z" fill="#CCCCCC"/>
<path d="M260.516 301.337C259.817 301.337 259.132 301.134 258.547 300.753C257.961 300.371 257.499 299.828 257.218 299.19L215.445 196.256C215.348 196.033 215.184 195.845 214.976 195.717C214.768 195.589 214.526 195.528 214.282 195.542C214.038 195.556 213.804 195.644 213.612 195.794C213.42 195.944 213.278 196.149 213.207 196.382L179.126 296.591C178.983 297.058 178.745 297.49 178.427 297.861C178.109 298.232 177.719 298.535 177.28 298.75C176.841 298.965 176.362 299.089 175.874 299.113C175.385 299.137 174.897 299.061 174.438 298.889L163.01 294.615C162.39 294.386 161.846 293.989 161.438 293.469C161.03 292.949 160.775 292.327 160.701 291.671C155.56 247.006 200.394 134.267 200.848 133.134L200.973 132.82L241.843 141.836L241.928 141.928C258.234 159.668 271.637 271.554 274.158 293.803C274.252 294.606 274.069 295.418 273.638 296.104C273.208 296.79 272.556 297.309 271.79 297.576L261.702 301.133C261.321 301.268 260.92 301.337 260.516 301.337Z" fill="#2F2E41"/>
<path d="M225.302 145.465C215.4 145.465 204.36 143.496 200.962 135.37L200.884 135.183L200.99 135.01C203.672 130.621 207.217 123.135 205.311 121.729C201.558 118.962 199.737 114.409 199.898 108.197C200.249 94.7113 209.463 82.7386 222.826 78.4038H222.826C226.556 77.2134 230.352 76.2388 234.194 75.4848C236.996 74.9211 239.887 74.9831 242.662 75.6664C245.436 76.3496 248.025 77.6372 250.241 79.4365C252.485 81.2477 254.299 83.532 255.552 86.1254C256.806 88.7188 257.468 91.5569 257.491 94.4358C257.631 108.847 255.406 128.919 244.011 142.699C243.477 143.338 242.734 143.769 241.912 143.916C236.43 144.905 230.873 145.423 225.302 145.465Z" fill="#CCCCCC"/>
<path d="M221.619 144.925C222.158 142.997 223.438 141.359 225.181 140.368C226.924 139.376 228.989 139.11 230.927 139.628C231.323 139.738 231.709 139.881 232.081 140.054L244.823 128.49L253.684 134.444L235.463 150.524C234.64 152.004 233.345 153.166 231.783 153.827C230.221 154.487 228.483 154.608 226.844 154.17C225.89 153.909 224.996 153.463 224.216 152.856C223.436 152.249 222.784 151.494 222.298 150.634C221.812 149.774 221.502 148.827 221.385 147.847C221.269 146.867 221.348 145.874 221.619 144.925Z" fill="#FFB8B8"/>
<path d="M242.805 145.072C241.978 145.072 241.176 144.787 240.537 144.265L235.512 140.17C235.093 139.829 234.757 139.397 234.529 138.908C234.301 138.419 234.187 137.885 234.195 137.345C234.203 136.806 234.334 136.275 234.577 135.793C234.82 135.311 235.169 134.891 235.599 134.562L256.674 118.443C256.924 118.251 257.087 117.968 257.13 117.657C257.172 117.345 257.089 117.029 256.9 116.778L243.892 99.6281C242.38 97.6423 241.622 95.1872 241.752 92.6976C241.881 90.2079 242.89 87.8442 244.599 86.0249C246.399 84.0862 248.864 82.8931 251.505 82.6825C254.146 82.4718 256.77 83.259 258.856 84.8877L258.939 84.9743L272.522 104.37C273.991 105.519 275.173 106.99 275.978 108.67C276.782 110.35 277.186 112.192 277.158 114.053C277.13 115.914 276.672 117.744 275.817 119.399C274.963 121.054 273.737 122.49 272.235 123.594L244.94 144.371C244.322 144.826 243.573 145.072 242.805 145.072Z" fill="#CCCCCC"/>
<path d="M215.174 46.1305V36.4444L232.514 28.8933L249.048 36.4444V46.1305C249.048 46.5521 248.88 46.9565 248.581 47.2546C248.282 47.5527 247.877 47.7202 247.454 47.7202H216.768C216.345 47.7202 215.94 47.5527 215.641 47.2546C215.342 46.9565 215.174 46.5521 215.174 46.1305Z" fill="#2F2E41"/>
<path d="M231.718 22.9738C229.168 14.8357 234.523 5.50914 242.439 2.28788C250.355 -0.933374 259.825 1.31838 266.505 6.64038C273.184 11.9624 277.328 19.9337 279.524 28.1737C281.72 36.4137 282.137 45.0061 282.542 53.5225C292.268 55.3041 298.884 66.8078 295.514 76.079C292.145 85.3501 279.675 89.956 271.063 85.1103C262.451 80.2645 259.956 67.2384 266.172 59.5689C269.113 55.9398 270.756 51.436 270.84 46.7707C270.925 42.1054 269.446 37.5453 266.639 33.8127C263.831 30.08 259.855 27.3883 255.34 26.1637C250.825 24.9391 246.029 25.2516 241.712 27.0519C236.919 29.0509 230.905 23.8571 231.718 22.9738Z" fill="#2F2E41"/>
</svg>
