<svg width="170" height="160" viewBox="0 0 170 160" fill="none" xmlns="http://www.w3.org/2000/svg">
<path d="M82.9907 7.07664C82.9907 7.07664 72.2871 -6.59581 63.0609 7.07664C63.0609 7.07664 47.5524 3.06369 47.1902 19.943C47.1902 19.943 37.5981 23.9559 40.5457 36.0374C40.5457 36.0374 30.9537 43.2749 34.6506 56.9474C34.6506 56.9474 22.9988 66.6069 33.8018 84.6971C33.8018 84.6971 33.0951 92.3999 39.4342 93.5505C39.4342 93.5505 37.314 111.254 56.0932 114.059C56.0932 114.059 60.9017 129.749 84.5035 111.236V9.19321L82.9907 7.07664Z" fill="#20B486"/>
<path d="M82.9907 7.07663C82.9907 7.07663 72.2871 -6.59579 63.0609 7.07663C63.0609 7.07663 47.5524 3.06368 47.1902 19.9429C47.1902 19.9429 37.5981 23.9559 40.5457 36.0373C40.5457 36.0373 30.9537 43.2748 34.6506 56.9472C34.6506 56.9472 22.9988 66.6067 33.8018 84.6969C33.8018 84.6969 33.0951 92.3997 39.4342 93.5503C39.4342 93.5503 37.314 111.253 56.0932 114.059C56.0932 114.059 60.9017 129.748 84.5035 111.236V9.19319L82.9907 7.07663Z" stroke="white" stroke-width="1.00592" stroke-miterlimit="10"/>
<path d="M63.7074 6.93461L63.7678 7.17965C63.8069 7.33946 63.8672 7.58094 63.988 7.90411C64.2117 8.50783 64.5739 9.39565 65.2416 10.3048C65.5647 10.7487 65.9873 11.1926 66.4739 11.5939C66.9568 11.9987 67.5641 12.3219 68.2105 12.5634C69.5209 13.0464 71.0976 13.0854 72.6105 12.7836L73.1965 12.6841C73.3989 12.6451 73.58 12.6025 73.8037 12.6025C74.0062 12.5812 74.2086 12.5421 74.4288 12.5421C74.6312 12.5421 74.8336 12.5208 75.036 12.5208C75.8422 12.5208 76.6483 12.6628 77.3763 12.9647C78.1043 13.2701 78.7081 13.7105 79.1946 14.2147C79.6776 14.7403 80.022 15.305 80.2635 15.8483C80.5263 16.3952 80.6897 16.9386 80.7891 17.4038C80.9098 17.8868 80.9702 18.2881 81.0128 18.6539C81.091 19.3393 81.0732 19.7405 81.0732 19.7405C81.0732 19.7405 81.0732 19.3393 80.9525 18.6539C80.8921 18.3094 80.8104 17.9081 80.6684 17.4429C80.5263 16.9776 80.3452 16.4734 80.0611 15.9513C79.7805 15.4257 79.4361 14.9037 78.9531 14.4385C78.4666 13.9733 77.8806 13.5897 77.1952 13.3482C76.5276 13.1067 75.7605 13.0073 75.0147 13.0464C74.8336 13.0464 74.6312 13.0677 74.4501 13.0854C74.2689 13.1067 74.0665 13.1458 73.8854 13.1671C73.7007 13.1884 73.5019 13.2488 73.3172 13.2879L72.7312 13.4299C71.9464 13.6323 71.119 13.7318 70.288 13.7531C69.4605 13.7531 68.6544 13.6501 67.8873 13.4086C67.1202 13.1671 66.4135 12.8262 65.8275 12.4C65.2203 11.9774 64.7373 11.4732 64.3324 10.9902C63.5263 10.0029 63.0611 9.03342 62.777 8.34802C62.6385 8.00355 62.5568 7.723 62.4964 7.54188C62.4361 7.36077 62.4148 7.21871 62.4148 7.24002C62.3331 6.87424 62.5568 6.53332 62.919 6.45164C63.2813 6.3522 63.6257 6.57238 63.7074 6.93816V6.93461Z" fill="white"/>
<path d="M47.5951 19.4183C47.8756 19.642 48.1775 19.8835 48.5006 20.1072C48.8238 20.3274 49.1292 20.5476 49.4524 20.75C49.7756 20.9524 50.0987 21.1549 50.4396 21.336C50.603 21.4354 50.7841 21.5171 50.9439 21.5988C51.1073 21.6769 51.2884 21.7799 51.4695 21.8616C51.6506 21.9397 51.814 22.0214 51.9951 22.1031C52.1762 22.1812 52.3396 22.2629 52.5207 22.3232C52.8829 22.4653 53.2274 22.586 53.6109 22.7068L54.1543 22.8701L54.7225 22.9909C55.0847 23.0512 55.4683 23.1116 55.8518 23.1294C56.0329 23.1507 56.2353 23.1507 56.4165 23.1507H56.7006L56.9811 23.1294C57.1658 23.1116 57.3647 23.1116 57.5493 23.069C57.7304 23.0299 57.9115 23.0086 58.0927 22.9483C58.2738 22.8879 58.4584 22.8488 58.6396 22.7884L59.1652 22.586L59.6481 22.3232C59.7298 22.2842 59.8079 22.2238 59.8896 22.1812L60.1133 22.0214C60.195 21.961 60.2732 21.9219 60.3335 21.8616L60.5573 21.6769L60.7774 21.4958C60.8591 21.4354 60.9195 21.375 60.9799 21.2969L61.3634 20.8708C61.4841 20.7323 61.6084 20.5689 61.7292 20.4268C61.9707 20.125 62.1518 19.7841 62.3755 19.4609C62.475 19.2975 62.5566 19.1164 62.6561 18.9566L62.9189 18.431L62.9402 18.4133C62.9402 18.4133 62.9402 18.392 62.9579 18.392C63.0822 18.2499 63.203 18.1079 63.345 17.9871C63.4658 17.8664 63.6043 17.7243 63.7463 17.6036C64.0304 17.3621 64.311 17.1419 64.6164 16.9395C64.7762 16.84 64.9182 16.7371 65.078 16.6589C65.2414 16.5772 65.4012 16.4956 65.5859 16.4139C65.664 16.3748 65.767 16.3535 65.8487 16.3145C65.9268 16.2754 66.0298 16.2541 66.1079 16.2328C66.1896 16.215 66.2926 16.1937 66.3707 16.1724C66.4737 16.1546 66.5554 16.1546 66.6548 16.1333C66.8359 16.112 67.017 16.1333 67.2017 16.1546C67.3011 16.1724 67.3828 16.1724 67.4823 16.1937C67.5639 16.215 67.6634 16.2328 67.7451 16.2754L68.0079 16.3748L68.2493 16.4956C68.331 16.5346 68.4127 16.5986 68.4731 16.6376C68.5512 16.698 68.6329 16.7371 68.6933 16.7974L68.8957 16.9785C68.956 17.0389 69.0164 17.0993 69.0768 17.181C69.1975 17.3017 69.3218 17.4651 69.4213 17.5858C69.5207 17.7279 69.6237 17.8877 69.7231 18.0297L69.9859 18.4914L69.6841 18.0475C69.5811 17.909 69.4816 17.7669 69.3609 17.6249C69.2402 17.5041 69.1372 17.3621 68.9987 17.2413C68.9347 17.181 68.8744 17.1206 68.7962 17.0602L68.5938 16.9004C68.5334 16.84 68.4518 16.7974 68.3701 16.7584C68.292 16.7193 68.228 16.6589 68.1499 16.6376C68.0682 16.5986 67.9865 16.5559 67.9084 16.5346L67.6634 16.4565C67.5853 16.4352 67.5036 16.4139 67.4006 16.3961C67.3225 16.3748 67.2195 16.3748 67.1378 16.3535C66.9567 16.3358 66.7969 16.3535 66.6158 16.3748C66.5341 16.3748 66.4524 16.3961 66.353 16.4139L66.1079 16.4743C66.0298 16.4956 65.9481 16.5169 65.8664 16.5559C65.7847 16.5772 65.7066 16.6163 65.6249 16.6589C65.4651 16.7193 65.3231 16.8187 65.1597 16.9004C65.0177 16.9785 64.8579 17.0815 64.7158 17.181C64.4353 17.3834 64.1725 17.6249 63.9097 17.8664C63.7889 17.9871 63.6646 18.1079 63.5439 18.2499C63.4231 18.3706 63.3237 18.5127 63.2207 18.6548L63.242 18.6121L63.0005 19.159C62.9189 19.3401 62.8372 19.5213 62.7377 19.7024C62.5353 20.0469 62.3542 20.4091 62.1127 20.75C61.992 20.9134 61.889 21.0945 61.7682 21.2543L61.3634 21.7195C61.303 21.8012 61.2213 21.8793 61.161 21.9397L60.9408 22.1634L60.7171 22.3836L60.2341 22.7458C60.1524 22.8062 60.0707 22.8701 59.9713 22.9305C59.7902 23.0299 59.6091 23.1507 59.4244 23.2501L58.8597 23.5129C58.6786 23.5946 58.4762 23.655 58.2738 23.7153C58.0714 23.797 57.8725 23.8148 57.6701 23.8751C57.4676 23.9355 57.2652 23.9568 57.045 23.9781L56.7396 24.0172L56.4378 24.0385C56.2353 24.0385 56.0152 24.0598 55.8127 24.0385C55.3866 24.0385 54.9853 23.9994 54.5804 23.9355L53.9732 23.8361L53.3695 23.694C52.9646 23.5946 52.5811 23.4738 52.1975 23.3531C51.9951 23.2927 51.814 23.2111 51.6116 23.1507C51.4091 23.0903 51.228 23.0086 51.0469 22.9305C50.8658 22.8488 50.6634 22.7671 50.4823 22.6855C50.2976 22.6073 50.1165 22.5257 49.9354 22.4262C49.5731 22.2416 49.2073 22.0604 48.8664 21.8616C48.5006 21.6591 48.1597 21.4567 47.8152 21.2365C47.4708 21.0128 47.1298 20.7926 46.7854 20.5298C46.5013 20.3061 46.4409 19.9048 46.6433 19.6029C46.8671 19.3188 47.2719 19.2585 47.5738 19.4609C47.5738 19.4005 47.5738 19.4183 47.5951 19.4183Z" fill="white"/>
<path d="M40.1414 35.4909C40.1414 35.4909 40.184 35.4732 40.2231 35.4305C40.2835 35.3915 40.3651 35.3311 40.4859 35.2707C40.7096 35.1287 41.0328 34.9263 41.4554 34.6848C42.3041 34.2018 43.5151 33.5555 45.0706 32.9304C46.6047 32.3267 48.4834 31.7408 50.5431 31.478C51.573 31.3359 52.6632 31.2755 53.7535 31.3359C54.034 31.3572 54.2968 31.3785 54.5809 31.3998C54.8615 31.4389 55.1243 31.4602 55.4084 31.4993L55.8132 31.581L56.0156 31.62H56.1542L56.2571 31.6413L57.0455 31.8402C58.1358 32.206 59.1017 32.728 60.0322 33.314C60.2559 33.4738 60.4761 33.6158 60.6998 33.7792C60.92 33.939 61.1224 34.0988 61.3461 34.2622L61.6693 34.5037L61.9712 34.7451C62.1736 34.9085 62.376 35.0896 62.5571 35.2494C63.3242 35.9348 64.0309 36.6202 64.6772 37.2879C64.837 37.4477 65.0004 37.6288 65.1602 37.7921C65.3236 37.952 65.4656 38.1118 65.6254 38.2751C65.9273 38.5983 66.2114 38.9215 66.4742 39.2233C67.0175 39.827 67.5041 40.3917 67.9267 40.896C68.3528 41.4003 68.7364 41.8442 69.0382 42.2064C69.6419 42.9344 69.9864 43.357 69.9864 43.357C69.9864 43.357 69.6242 42.9522 68.9778 42.249C68.6547 41.9045 68.2711 41.4819 67.8272 40.9777C67.3833 40.4947 66.879 39.9478 66.3108 39.3654C66.0303 39.06 65.7462 38.7581 65.423 38.4562L64.9578 37.991C64.798 37.8312 64.6346 37.6714 64.4535 37.508C63.7894 36.8617 63.0401 36.2189 62.273 35.5726C62.0706 35.4128 61.8682 35.2707 61.6693 35.1074L61.3639 34.8659C61.2645 34.7878 61.1615 34.7238 61.0407 34.6457C60.8205 34.5037 60.6181 34.3439 60.3944 34.2018L59.7303 33.7792C58.8212 33.2536 57.8517 32.7706 56.8822 32.4865L56.0938 32.3054L55.9943 32.2841L55.9127 32.2663L55.7102 32.245L55.3267 32.1847C55.0639 32.1634 54.8011 32.1456 54.5383 32.103C54.2791 32.103 54.0163 32.0852 53.7535 32.0852C52.7023 32.0639 51.6937 32.1634 50.7029 32.3267C48.7462 32.6676 46.967 33.2749 45.5145 33.9177C44.062 34.564 42.9079 35.2281 42.123 35.7146C41.7395 35.9561 41.4341 36.1586 41.2316 36.2971C41.1322 36.3787 41.0505 36.4178 41.0115 36.4604C40.9724 36.4995 40.9298 36.5208 40.9298 36.5208C40.6492 36.741 40.2231 36.6806 40.0029 36.4C39.7792 36.1159 39.8395 35.6933 40.1236 35.4732C40.1414 35.5122 40.1414 35.5122 40.1414 35.4909Z" fill="white"/>
<path d="M33.7203 84.0515C33.7203 84.0515 33.944 84.0302 34.3879 83.9698C34.8318 83.9094 35.4781 83.8313 36.2843 83.6679C37.094 83.5259 38.0812 83.3057 39.2141 83.0216C40.3256 82.741 41.597 82.3575 42.9287 81.8745C44.2605 81.3915 45.6952 80.7843 47.1299 80.0172C48.5611 79.2537 50.0171 78.3445 51.3879 77.2152C52.7622 76.0859 54.0336 74.7542 55.0848 73.2413C56.136 71.7107 56.9421 69.9955 57.4464 68.1595C57.6879 67.2539 57.8725 66.327 57.9933 65.3788C58.0927 64.4306 58.1531 63.5037 58.1353 62.5555C58.114 60.6804 57.8299 58.8444 57.4464 57.0901C57.244 56.2236 57.0238 55.3571 56.7823 54.5296C56.6793 54.107 56.5195 53.7235 56.3384 53.3399C56.175 52.9564 55.9726 52.5942 55.7915 52.2284C55.0031 50.7972 53.9732 49.5898 52.7836 48.8014C52.1976 48.4179 51.5513 48.1373 50.9262 47.9953C50.2977 47.8319 49.6726 47.8141 49.0867 47.8532C47.9183 47.9562 46.9488 48.3184 46.1995 48.6807C46.0184 48.7801 45.8372 48.8618 45.6739 48.9435C45.5141 49.0251 45.3507 49.1246 45.2122 49.2062C45.0702 49.2844 44.9494 49.3661 44.8287 49.4264C44.7044 49.5081 44.6049 49.5685 44.5233 49.6288C44.161 49.8916 43.9586 50.0124 43.9586 50.0124C43.9586 50.0124 44.161 49.8703 44.5233 49.6075C44.6262 49.5472 44.7257 49.4655 44.8287 49.3874C44.9494 49.3057 45.0702 49.224 45.2122 49.1459C45.3507 49.0642 45.4928 48.9612 45.6561 48.8618C45.8159 48.7801 45.997 48.6807 46.1817 48.5812C46.9275 48.2154 47.897 47.8141 49.0867 47.6934C49.6726 47.6508 50.319 47.633 50.9653 47.7928C51.6116 47.9349 52.2793 48.1977 52.9043 48.599C54.1543 49.3661 55.2268 50.5948 56.0756 52.0473C56.2745 52.4131 56.4769 52.793 56.658 53.1766C56.7397 53.379 56.8427 53.5601 56.9208 53.7625L57.0451 54.0644L57.1445 54.3876C57.4073 55.215 57.6701 56.0815 57.8725 56.948C58.2951 58.7024 58.6183 60.5775 58.6787 62.4952C58.7177 63.4433 58.6787 64.4093 58.597 65.3966C58.4976 66.3661 58.3342 67.3356 58.0927 68.2802C57.6097 70.1766 56.8001 71.9913 55.7524 73.6249C54.6799 75.2407 53.3873 76.6719 51.9952 77.8616C50.6031 79.0512 49.108 80.0385 47.6342 80.866C46.1604 81.6721 44.7044 82.3362 43.3549 82.8618C41.9805 83.3874 40.7092 83.81 39.5586 84.1331C38.4044 84.4563 37.3958 84.6978 36.5684 84.8576C35.7196 85.0387 35.0733 85.1417 34.6116 85.2198C34.1642 85.2802 33.9049 85.3228 33.9049 85.3228C33.5391 85.3619 33.216 85.0991 33.1769 84.7369C33.0739 84.4137 33.3367 84.0905 33.7203 84.0515Z" fill="white"/>
<path d="M84.8867 61.163C84.8867 61.163 84.8477 61.2021 84.766 61.2447C84.6843 61.305 84.5636 61.4045 84.4038 61.5252C84.1019 61.7667 83.6367 62.1502 83.0898 62.6758C82.5464 63.2014 81.8788 63.8442 81.1934 64.6326C80.5045 65.4174 79.7587 66.3656 79.091 67.4559C78.4056 68.5426 77.7806 69.7926 77.3367 71.1847C76.8928 72.5768 76.6478 74.1287 76.7507 75.7233C76.8502 77.3142 77.3154 78.9301 78.0647 80.4429C78.1429 80.6418 78.2458 80.8265 78.3666 81.0076L78.6897 81.5722L78.8496 81.8528L79.0129 82.1369C79.1337 82.318 79.2331 82.5382 79.3361 82.7406C79.7374 83.5467 80.0605 84.4133 80.2843 85.2798C80.7282 87.0377 80.7886 88.8701 80.6074 90.6245C80.4263 92.3788 80.0002 94.0728 79.4781 95.646C78.9525 97.2192 78.3062 98.7107 77.6173 100.064C76.9319 101.435 76.2252 102.685 75.5398 103.814C74.1441 106.073 72.8124 107.848 71.8642 109.077C70.916 110.288 70.3087 110.952 70.3087 110.952C70.3087 110.952 70.8947 110.288 71.8251 109.038C72.752 107.806 74.0234 105.991 75.3586 103.714C76.0227 102.564 76.7117 101.314 77.3545 99.943C78.0008 98.5722 78.6081 97.0984 79.091 95.5252C79.5776 93.952 79.9611 92.3007 80.0819 90.5854C80.2239 88.8701 80.1032 87.1158 79.6379 85.4644C79.4142 84.637 79.091 83.8308 78.6897 83.0851C78.5868 82.9004 78.5086 82.7193 78.3666 82.5382L78.0221 81.9735L77.6776 81.3911C77.5569 81.2064 77.4361 81.0076 77.3545 80.8051C76.527 79.2319 76.005 77.4989 75.8416 75.7836C75.6996 74.0684 75.9233 72.3957 76.3459 70.8829C76.7898 69.37 77.4361 68.0383 78.1251 66.8699C78.8105 65.7015 79.5563 64.693 80.263 63.8442C80.9697 62.999 81.6373 62.3136 82.202 61.7489C82.7666 61.2021 83.2318 60.7794 83.555 60.5167C83.7184 60.3782 83.8391 60.2752 83.9385 60.2148C84.0202 60.1544 84.0806 60.1154 84.0806 60.1154C84.3612 59.8916 84.7873 59.9342 85.0075 60.2361C85.2312 60.538 85.1922 60.9428 84.8867 61.163C84.908 61.1417 84.908 61.1417 84.8867 61.163Z" fill="white"/>
<path d="M56.8428 42.0645C56.8428 42.0645 57.063 42.59 57.4465 43.5382C57.5495 43.7797 57.6489 44.0212 57.7697 44.3053C57.8904 44.5859 58.0325 44.87 58.1958 45.1931C58.3343 45.5128 58.4977 45.8572 58.6788 46.2017C58.8421 46.5639 59.0623 46.9049 59.2648 47.2884C59.4672 47.6719 59.6696 48.0768 59.9111 48.4781C60.1526 48.8829 60.3941 49.2842 60.6569 49.7104C60.7172 49.8098 60.7776 49.9306 60.8593 50.03C60.941 50.133 61.0013 50.2324 61.083 50.3354C61.2215 50.5343 61.3636 50.758 61.5269 50.9604C61.669 51.1806 61.8288 51.383 61.9708 51.6032C62.1306 51.8056 62.294 52.0294 62.4538 52.2282C62.6172 52.452 62.777 52.6544 62.9581 52.8746C63.1214 53.0983 63.3239 53.2972 63.505 53.4996C63.6861 53.702 63.8672 53.9222 64.0519 54.1246C64.13 54.2276 64.233 54.327 64.3324 54.4265L64.6343 54.7319L65.2416 55.3356C65.444 55.538 65.6642 55.7191 65.8879 55.9003C66.1081 56.0814 66.3105 56.2838 66.5342 56.4649L67.2196 56.9905C67.6635 57.3527 68.1501 57.6333 68.6153 57.9565C68.736 58.0381 68.8568 58.1198 68.9775 58.1802L69.3397 58.3791L69.7055 58.5815C69.8263 58.6632 69.947 58.7235 70.0678 58.7839C70.572 59.0254 71.0586 59.2882 71.5806 59.4693C72.0849 59.6895 72.5927 59.8528 73.097 60.0126C73.3385 60.0943 73.6013 60.1547 73.8641 60.2364C74.1056 60.2968 74.3684 60.3784 74.6099 60.4175C74.8513 60.4779 75.1141 60.5169 75.3592 60.5773C75.6007 60.6199 75.8422 60.659 76.0836 60.6803C77.0531 60.801 77.9623 60.8792 78.811 60.8614C79.6598 60.8614 80.4269 60.801 81.1123 60.698C81.7977 60.6199 82.3836 60.4992 82.8488 60.3962C83.3354 60.2968 83.6976 60.176 83.9391 60.1156C84.0598 60.073 84.1628 60.0553 84.2019 60.034C84.2622 60.0126 84.2836 60.0126 84.2836 60.0126H84.3013C84.6458 59.8919 85.0293 60.073 85.1501 60.4175C85.2708 60.7584 85.0897 61.142 84.7488 61.2627H84.7275C84.7275 61.2627 84.6849 61.284 84.6067 61.3053C84.525 61.3231 84.4256 61.3657 84.2836 61.4048C83.9995 61.4864 83.5946 61.5859 83.0903 61.6889C82.5647 61.7883 81.9397 61.8877 81.2152 61.9481C80.4872 62.0298 79.6775 62.0511 78.772 62.0298C77.8806 62.0085 76.9111 61.909 75.9025 61.7492C75.661 61.7066 75.3982 61.6462 75.1354 61.6072C74.8727 61.5468 74.6312 61.4864 74.3684 61.4261C74.1056 61.3657 73.8428 61.284 73.58 61.2023C73.3172 61.1242 73.0544 61.0425 72.7916 60.9431C72.2696 60.7407 71.744 60.5595 71.2184 60.3145C70.6928 60.0943 70.1885 59.8138 69.6629 59.551C69.5422 59.4906 69.4001 59.4089 69.2794 59.3273L68.9171 59.1071L68.5514 58.8833L68.1891 58.6419C67.7239 58.3009 67.2196 57.9778 66.7757 57.5942L66.0903 57.0296C65.8666 56.8271 65.6642 56.6247 65.444 56.4259C65.2416 56.2234 65.0178 56.021 64.819 55.8186C64.6165 55.6162 64.4141 55.396 64.233 55.1936L63.9276 54.8704C63.8282 54.771 63.7287 54.6715 63.647 54.5472L63.1001 53.8831C62.919 53.663 62.7379 53.4605 62.5745 53.2368L61.6086 51.9086C61.4665 51.6849 61.3245 51.4647 61.1824 51.241C61.0404 51.0208 60.9019 50.7971 60.7598 50.5769C60.6995 50.4739 60.6178 50.3532 60.5574 50.2537C60.497 50.1543 60.4367 50.03 60.3763 49.9306C60.1313 49.4866 59.8898 49.064 59.6696 48.6592C59.4459 48.2579 59.2434 47.8353 59.0623 47.4518C58.8812 47.0682 58.6788 46.6847 58.519 46.3224C58.3556 45.9567 58.2136 45.6157 58.0751 45.2926C57.933 44.9694 57.8123 44.6675 57.688 44.3834C57.5885 44.1029 57.4891 43.8401 57.3861 43.5986C57.0452 42.6114 56.8428 42.0645 56.8428 42.0645Z" fill="white"/>
<path d="M55.7314 113.513C55.7314 113.513 55.8131 113.452 55.9729 113.374C56.1362 113.271 56.3564 113.129 56.6405 112.93C57.2265 112.525 58.0326 111.939 58.9631 111.176C59.8899 110.409 60.9411 109.461 61.9497 108.353C62.9583 107.241 63.9491 105.952 64.7161 104.56C65.0997 103.853 65.4228 103.129 65.6643 102.383C65.9094 101.637 66.0692 100.87 66.1509 100.124C66.3107 98.6328 66.0301 97.1981 65.6253 96.0688C65.4228 95.5041 65.16 95.0034 64.9186 94.5595C64.6771 94.1333 64.4356 93.7711 64.2332 93.4692C64.1302 93.3272 64.0307 93.1851 63.9491 93.0857C63.8674 92.9863 63.7893 92.8833 63.7289 92.8052C63.6046 92.6631 63.5442 92.5814 63.5442 92.5814C63.5442 92.5814 63.6046 92.6631 63.7466 92.8052C63.807 92.8833 63.8887 92.965 63.9881 93.0644C64.0698 93.1674 64.1728 93.3094 64.2935 93.4479C64.5137 93.732 64.7765 94.0943 65.0393 94.4991C65.3021 94.9217 65.5862 95.426 65.8277 95.9907C66.0692 96.5553 66.2716 97.1981 66.4137 97.9048C66.5557 98.6115 66.6161 99.3573 66.5735 100.146C66.5344 100.93 66.4137 101.737 66.1899 102.525C65.9697 103.31 65.6643 104.098 65.3021 104.844C64.5741 106.357 63.6259 107.728 62.6173 108.935C61.6265 110.146 60.5966 111.176 59.6698 112.021C58.7393 112.87 57.9332 113.513 57.365 113.957C57.0844 114.18 56.8429 114.34 56.6796 114.461C56.5198 114.582 56.4168 114.642 56.4168 114.642C56.1149 114.844 55.7101 114.784 55.5077 114.482C55.3088 114.18 55.3692 113.775 55.671 113.573L55.7314 113.513Z" fill="white"/>
<path d="M55.4895 89.8569L55.6493 89.5373C55.7523 89.3349 55.8908 89.033 56.0932 88.6495C56.4981 87.9037 57.1054 86.8525 58.0322 85.7232C58.4975 85.1586 59.0231 84.5548 59.6871 84.0115C60.3335 83.4646 61.1006 82.9426 62.031 82.6407C62.9401 82.3353 63.9877 82.2749 64.9572 82.559C65.9268 82.8218 66.7755 83.3652 67.5213 84.0115C68.2706 84.6543 68.8956 85.3823 69.4603 86.1281C70.0285 86.8738 70.5328 87.6409 70.9554 88.4471C71.378 89.2319 71.7011 90.0416 71.9639 90.8051C72.0847 91.1886 72.209 91.5722 72.3084 91.9344C72.4078 92.3002 72.4895 92.6624 72.5712 93.0034C72.7523 93.671 73.0364 94.2534 73.3987 94.6973C73.7431 95.1412 74.187 95.404 74.5706 95.5461C74.7517 95.6278 74.9541 95.6455 75.0962 95.6668C75.256 95.6668 75.398 95.6881 75.4975 95.6881C75.7212 95.6668 75.8419 95.6668 75.8419 95.6668C75.8419 95.6668 75.7212 95.6881 75.4975 95.7059C75.398 95.7272 75.256 95.7059 75.0962 95.7059C74.9328 95.6881 74.7517 95.6668 74.5493 95.6064C74.1444 95.4857 73.6828 95.2442 73.2992 94.8003C72.9157 94.3564 72.5925 93.7704 72.3688 93.085C72.248 92.7441 72.1664 92.3996 72.0456 92.0374C71.9249 91.6752 71.8041 91.3094 71.6621 90.9259C71.378 90.1801 71.0157 89.4166 70.5931 88.6672C70.167 87.9215 69.6236 87.197 69.0377 86.4725C68.4517 85.7658 67.8267 85.0982 67.0987 84.5335C66.392 83.9689 65.5858 83.525 64.7584 83.3439C63.9274 83.145 63.0822 83.2231 62.3328 83.525C61.5871 83.8304 60.9194 84.2921 60.3548 84.8176C59.7901 85.3432 59.3249 85.9079 58.9201 86.4512C58.1139 87.5379 57.567 88.5678 57.2261 89.2745C57.045 89.6367 56.9207 89.9208 56.8426 90.1197C56.7609 90.3008 56.7218 90.4038 56.7218 90.4038C56.5798 90.7447 56.1962 90.9081 55.8518 90.766C55.5073 90.5849 55.3475 90.2014 55.4895 89.8569Z" fill="white"/>
<path d="M56.5977 70.4995C56.5977 70.4995 56.6581 70.4604 56.7611 70.3787C56.8605 70.2971 57.0239 70.1976 57.244 70.0556C57.4465 69.9135 57.7093 69.775 58.0111 69.5939C58.3165 69.4305 58.6575 69.2281 59.041 69.047C59.4245 68.8659 59.8507 68.6848 60.2946 68.5037C60.7598 68.3439 61.2428 68.1805 61.7684 68.0384C62.294 67.9177 62.8373 67.8183 63.4055 67.797C63.6861 67.7792 63.9702 67.797 64.2507 67.797C64.5348 67.8396 64.8189 67.8396 65.0995 67.9177C65.3836 67.9603 65.6464 68.0598 65.9269 68.1592C66.069 68.2018 66.1897 68.2799 66.3105 68.3225C66.4312 68.3829 66.5733 68.4433 66.694 68.525C66.8148 68.6031 66.9391 68.6635 67.0598 68.7451C67.1805 68.8268 67.28 68.9085 67.383 68.9866C67.6031 69.15 67.7843 69.3489 67.9867 69.5335L68.1287 69.672L68.2495 69.8354L68.491 70.1373C68.5726 70.2367 68.633 70.3397 68.7147 70.4391C68.7751 70.5385 68.8568 70.6415 68.9171 70.741C68.9562 70.8013 68.9775 70.844 69.0166 70.883C69.0379 70.9434 69.0769 70.9825 69.0982 71.0428C69.1586 71.1458 69.1977 71.2453 69.258 71.3482C69.322 71.4477 69.361 71.5471 69.4214 71.6501L69.5421 71.952C69.6238 72.1544 69.7055 72.3355 69.7659 72.4953C69.8263 72.6764 69.8866 72.8398 69.9257 72.9996C69.9861 73.1629 70.0287 73.3014 70.0677 73.4435C70.1068 73.5855 70.1281 73.7063 70.1672 73.827C70.2879 74.2923 70.3518 74.5728 70.3518 74.5728C70.3518 74.5728 70.2702 74.31 70.1281 73.8483C70.089 73.7276 70.0677 73.6069 70.0074 73.4648C69.947 73.3228 69.9044 73.1807 69.844 73.0209C69.7836 72.8611 69.7233 72.6977 69.6629 72.5166C69.5812 72.3568 69.5031 72.1721 69.4214 71.9733C69.3823 71.8703 69.3397 71.7922 69.2794 71.6892C69.219 71.5897 69.1799 71.508 69.1195 71.4086C69.0592 71.3056 68.9988 71.2062 68.9562 71.1032C68.9349 71.0641 68.8958 71.0038 68.8745 70.9647C68.8354 70.9221 68.8141 70.8617 68.7751 70.8226C68.7147 70.7232 68.633 70.6202 68.5726 70.5385C68.5123 70.4391 68.4306 70.3397 68.3525 70.258C68.2708 70.1586 68.1891 70.0769 68.1074 69.9739L67.9867 69.8354C67.9476 69.7928 67.8872 69.7537 67.8446 69.7146C67.6635 69.5513 67.4824 69.3702 67.2622 69.2281C67.1592 69.15 67.0598 69.0683 66.9391 69.0079C66.8148 68.9476 66.7153 68.8872 66.5946 68.8268C66.4738 68.7665 66.3531 68.7061 66.2323 68.6635C66.1081 68.6244 65.9873 68.564 65.8666 68.525C65.6038 68.4646 65.3623 68.3829 65.0782 68.3439C64.8189 68.2799 64.5561 68.2799 64.2933 68.2622C64.0306 68.2622 63.7678 68.2622 63.505 68.3012C62.9794 68.3439 62.4751 68.4646 61.9921 68.6031C61.5056 68.7451 61.0404 68.9263 60.6178 69.1074C60.1952 69.2885 59.7903 69.4909 59.4458 69.6933C59.0836 69.8745 58.7604 70.0769 58.4976 70.258C58.2135 70.4391 57.9721 70.6025 57.7909 70.741C57.5885 70.883 57.4465 70.9825 57.347 71.0641C57.244 71.1458 57.205 71.1849 57.205 71.1849C57.0239 71.3269 56.7824 71.2879 56.6403 71.1245C56.3775 70.9043 56.3988 70.6415 56.5977 70.4995C56.58 70.4995 56.5977 70.4995 56.5977 70.4995Z" fill="white"/>
<path d="M67.3016 50.8567C67.3016 50.8567 67.4828 50.878 67.845 50.8993C68.2108 50.9171 68.715 50.9171 69.3827 50.8176C70.029 50.7182 70.8139 50.5335 71.6413 50.1322C72.4723 49.7274 73.2785 49.0633 73.9035 48.1364C74.5498 47.206 74.9333 46.0376 75.1358 44.7662C75.3169 43.4984 75.3382 42.1241 75.1748 40.7355C75.1571 40.391 75.0967 40.0288 75.0363 39.6843C74.976 39.3221 74.9334 38.9812 74.873 38.6154C74.8126 38.2532 74.7309 37.9123 74.6706 37.5465C74.5924 37.1842 74.4894 36.8433 74.4078 36.4811C74.0668 35.0464 73.6016 33.6152 73.1151 32.184C72.8736 31.4773 72.5931 30.7706 72.348 30.0675L72.2486 29.8047C72.2095 29.723 72.1882 29.6236 72.1491 29.5206C72.0852 29.3217 72.0248 29.1406 71.9858 28.9559C71.8863 28.5759 71.826 28.1924 71.8047 27.7875C71.7443 27.0027 71.8047 26.2143 72.0071 25.4472L72.0462 25.3087L72.0675 25.2484L72.1065 25.1667C72.1491 25.085 72.1669 25.0033 72.2095 24.9039C72.3089 24.6837 72.4084 24.5204 72.5327 24.3605C72.7742 24.0374 73.0547 23.7533 73.3779 23.5118C74.0065 23.0501 74.7522 22.7447 75.5193 22.6453C76.2651 22.5458 77.0357 22.624 77.6998 22.8477C78.3852 23.0501 78.9925 23.3697 79.5394 23.7355C80.0827 24.0978 80.5479 24.5204 80.9705 24.9252C81.8193 25.7704 82.4656 26.6369 82.9699 27.4253C83.112 27.6277 83.2114 27.8266 83.3357 28.0113C83.4564 28.1924 83.5559 28.3735 83.6553 28.5546C83.8577 28.9168 84.0424 29.24 84.1809 29.5419C84.3229 29.8437 84.465 30.1065 84.5857 30.348C84.6852 30.5895 84.7882 30.7919 84.8698 30.9553C85.0083 31.2749 85.09 31.4596 85.09 31.4596C85.2321 31.7792 85.09 32.184 84.7669 32.3261C84.4437 32.4646 84.0424 32.3261 83.9003 32.0029V31.9638C83.9003 31.9638 83.8187 31.8005 83.6979 31.4773C83.6376 31.3175 83.5559 31.1151 83.4564 30.8949C83.3534 30.6712 83.2327 30.4084 83.0907 30.1065C82.9486 29.8047 82.7888 29.5028 82.6077 29.1583C82.526 28.9772 82.4053 28.8174 82.3058 28.6363C82.2028 28.4516 82.1034 28.2705 81.9827 28.0716C81.5174 27.3046 80.9315 26.4771 80.2035 25.6923C79.8412 25.3087 79.4151 24.9252 78.9534 24.602C78.4882 24.2789 77.9626 23.9983 77.4192 23.8136C76.851 23.6325 76.2651 23.5331 75.6614 23.6148C75.0541 23.6751 74.4504 23.8953 73.9461 24.2576C73.6833 24.4387 73.4596 24.6624 73.2571 24.9039C73.1577 25.0246 73.076 25.1667 73.0157 25.2661C72.9766 25.3087 72.9553 25.4295 72.9162 25.4899L72.8949 25.5289V25.5502L72.8736 25.6106L72.7955 25.6923C72.5931 26.3351 72.5327 27.0418 72.5717 27.7485C72.5931 28.0894 72.6321 28.4516 72.7138 28.7961C72.7529 28.9772 72.7955 29.1406 72.8345 29.3004C72.8558 29.3821 72.8949 29.4815 72.9162 29.5632L72.9943 29.826C73.2394 30.5504 73.4809 31.2571 73.7224 31.9816C74.1663 33.4341 74.5924 34.9079 74.8943 36.3568C74.976 36.7226 75.0541 37.0848 75.1145 37.447L75.2991 38.5373C75.3595 38.8995 75.3986 39.2617 75.4376 39.624C75.4802 39.9898 75.5406 40.352 75.5406 40.6929C75.6614 42.1241 75.601 43.5162 75.3773 44.8088C75.1358 46.098 74.7132 47.309 74.0242 48.2358C73.3601 49.1627 72.4901 49.8481 71.6413 50.2317C70.7961 50.6365 69.9864 50.7963 69.3401 50.878C68.676 50.9597 68.1504 50.9384 67.8059 50.9171C67.4828 50.8993 67.3016 50.8567 67.3016 50.8567Z" fill="white"/>
<path d="M39.2356 92.9256C39.2356 92.9256 39.296 92.9043 39.3741 92.883C39.4771 92.8653 39.6192 92.8227 39.8003 92.7836C40.1625 92.7019 40.6668 92.6025 41.274 92.4995C41.8778 92.4001 42.6058 92.3006 43.3729 92.258C43.7564 92.2402 44.1612 92.2189 44.5661 92.1976C44.9674 92.1976 45.3935 92.1976 45.7948 92.2189C46.221 92.258 46.6258 92.3006 47.0271 92.3787C47.432 92.4391 47.8155 92.5599 48.1991 92.6806C48.3802 92.7445 48.5613 92.8227 48.7246 92.9043L49.0869 93.0855L49.2076 93.1671C49.2893 93.2062 49.3497 93.2666 49.4314 93.3092C49.513 93.3482 49.5734 93.4086 49.6338 93.469C49.6941 93.5294 49.7545 93.5684 49.8149 93.6288C49.8753 93.6892 49.9143 93.7495 49.9747 93.8099C50.0386 93.8738 50.0777 93.9129 50.1167 93.9946L50.2375 94.1757L50.3618 94.3568C50.3795 94.4172 50.4222 94.4776 50.4399 94.5379C50.5607 94.7581 50.621 94.9818 50.6814 95.1416C50.724 95.305 50.7453 95.4435 50.7631 95.5465C50.7844 95.6459 50.7844 95.6885 50.7844 95.6885C50.7844 95.6885 50.7631 95.6459 50.7453 95.5465C50.724 95.4648 50.6814 95.3228 50.621 95.163C50.5429 95.0031 50.4825 94.8007 50.3405 94.5983C50.2979 94.5379 50.2801 94.4989 50.2375 94.4385C50.1984 94.3746 50.1594 94.3355 50.1167 94.2751C50.0777 94.2148 50.0386 94.1757 49.9747 94.1153C49.9356 94.055 49.8753 94.0123 49.8149 93.9733C49.7545 93.9342 49.7155 93.8738 49.6515 93.8312C49.5912 93.7922 49.5308 93.7495 49.4704 93.6892C49.41 93.6501 49.3497 93.5897 49.268 93.5507C49.1899 93.5081 49.1295 93.469 49.0478 93.4299L48.9271 93.3696L48.8063 93.3269C48.7246 93.2879 48.643 93.2666 48.5613 93.2275C48.4015 93.1671 48.2204 93.1245 48.0392 93.0641C47.6735 92.986 47.3112 92.9256 46.9277 92.883C46.5442 92.844 46.1393 92.844 45.7558 92.8653C45.3509 92.883 44.9674 92.9043 44.5838 92.9647C44.2003 93.0038 43.8168 93.0641 43.4545 93.1245C42.7265 93.2453 42.0411 93.4086 41.4765 93.5684C40.9118 93.7318 40.4253 93.8738 40.1021 93.9733C39.9423 94.0336 39.818 94.0727 39.7186 94.094C39.6369 94.1331 39.5978 94.1331 39.5978 94.1331C39.2534 94.2538 38.8698 94.0727 38.7491 93.7318C38.6283 93.3873 38.8095 93.0038 39.1539 92.883C39.193 92.9256 39.2143 92.9256 39.2356 92.9256Z" fill="white"/>
<path d="M34.1641 56.4862L34.2067 56.4436C34.2458 56.4046 34.2884 56.3655 34.3488 56.3229C34.4695 56.2234 34.6507 56.1027 34.8921 55.9819C35.1336 55.8612 35.4568 55.7192 35.883 55.6588C36.2842 55.5984 36.8098 55.6588 37.2537 55.879C37.4775 55.9819 37.6799 56.1418 37.8823 56.3016L38.1451 56.5644C38.2055 56.6247 38.2836 56.7277 38.344 56.7881C38.6281 57.0686 38.9903 57.3527 39.3561 57.6333C40.1232 58.1802 41.011 58.6845 41.9592 59.0645C42.9074 59.448 43.8982 59.6895 44.8464 59.6717C45.3116 59.6717 45.7768 59.6114 46.1817 59.4693C46.583 59.3273 46.9665 59.1461 47.2719 58.926C47.4317 58.823 47.5738 58.7022 47.6945 58.5815C47.8153 58.4607 47.936 58.34 48.039 58.2193C48.1384 58.0985 48.2379 57.9778 48.3196 57.8748C48.4012 57.754 48.4616 57.6546 48.522 57.5552C48.5824 57.4522 48.6427 57.3705 48.6853 57.2924C48.7244 57.2107 48.7635 57.1503 48.7848 57.09C48.8451 56.9905 48.8665 56.9301 48.8665 56.9301C48.8665 56.9301 48.8451 56.9905 48.7848 57.09C48.7635 57.1503 48.7244 57.2107 48.6853 57.2924C48.6427 57.3705 48.6037 57.4735 48.5433 57.5729C48.4829 57.6759 48.4225 57.7753 48.3622 57.9174C48.2805 58.0381 48.1988 58.1589 48.0994 58.2796C47.9964 58.4004 47.8756 58.5424 47.7762 58.6845C47.6555 58.8052 47.5134 58.9437 47.3501 59.0645C47.0482 59.3273 46.6647 59.551 46.2421 59.7321C45.8159 59.9132 45.3329 60.0127 44.8286 60.0553C44.3208 60.0943 43.7988 60.073 43.2732 60.0127C42.7476 59.9345 42.222 59.8138 41.6964 59.6504C40.6665 59.3273 39.6793 58.8833 38.8092 58.3613C38.3653 58.0985 37.9818 57.8144 37.5769 57.4948C37.4775 57.3918 37.4171 57.3527 37.3141 57.2498C37.2537 57.1894 37.1756 57.129 37.1152 57.0686C36.9732 56.9692 36.8525 56.8875 36.7104 56.8485C36.4476 56.7455 36.2239 56.7455 36.0037 56.7881C35.78 56.8272 35.5988 56.9301 35.4568 57.0296C35.3183 57.129 35.194 57.2107 35.1336 57.2924L35.0555 57.3705V57.3918C34.8105 57.6546 34.3879 57.6759 34.1251 57.4131C33.8623 57.1716 33.841 56.7455 34.1038 56.4862C34.1464 56.504 34.1641 56.4862 34.1641 56.4862Z" fill="white"/>
<path d="M86.4215 7.07664C86.4215 7.07664 97.1251 -6.59581 106.351 7.07664C106.351 7.07664 121.86 3.06369 122.222 19.943C122.222 19.943 131.814 23.9559 128.867 36.0374C128.867 36.0374 138.459 43.2749 134.762 56.9474C134.762 56.9474 146.413 66.6069 135.61 84.6971C135.61 84.6971 136.317 92.3999 129.978 93.5505C129.978 93.5505 132.098 111.254 113.319 114.059C113.319 114.059 108.514 129.749 84.9087 111.236V9.19321L86.4215 7.07664Z" fill="#20B486"/>
<path d="M86.4215 7.07663C86.4215 7.07663 97.1251 -6.59579 106.351 7.07663C106.351 7.07663 121.86 3.06368 122.222 19.9429C122.222 19.9429 131.814 23.9559 128.866 36.0373C128.866 36.0373 138.459 43.2748 134.762 56.9472C134.762 56.9472 146.413 66.6067 135.61 84.6969C135.61 84.6969 136.317 92.3997 129.978 93.5503C129.978 93.5503 132.098 111.253 113.319 114.059C113.319 114.059 108.514 129.748 84.9087 111.236V9.19319L86.4215 7.07663Z" stroke="white" stroke-width="1.00592" stroke-miterlimit="10"/>
<path d="M106.998 7.21907C106.998 7.21907 106.98 7.33981 106.919 7.52093C106.859 7.72335 106.777 7.98614 106.635 8.32707C106.351 9.01247 105.89 9.98197 105.08 10.9692C104.675 11.4522 104.171 11.9565 103.585 12.3826C102.981 12.8052 102.296 13.1675 101.525 13.3912C100.758 13.6327 99.9519 13.7321 99.1244 13.7321C98.297 13.7321 97.4873 13.6114 96.6811 13.409L96.0952 13.2705C95.8927 13.2278 95.7116 13.1675 95.5305 13.1462C95.3494 13.1284 95.1647 13.0858 94.9659 13.068C94.7812 13.0467 94.5823 13.0254 94.3977 13.0254C93.6519 12.9864 92.8848 13.0858 92.2172 13.3308C91.5318 13.5723 90.9458 13.9559 90.4628 14.4175C89.9763 14.8827 89.6354 15.4048 89.3513 15.9304C89.0672 16.456 88.8861 16.9602 88.744 17.4219C88.6055 17.8871 88.5238 18.2884 88.4635 18.6329C88.3427 19.3183 88.3427 19.7231 88.3427 19.7231C88.3427 19.7231 88.3214 19.3183 88.4031 18.6329C88.4422 18.2884 88.5025 17.8658 88.6233 17.3828C88.744 16.8999 88.9074 16.3743 89.1489 15.8309C89.4117 15.284 89.7561 14.7016 90.2178 14.1973C90.7043 13.6931 91.3293 13.2278 92.0361 12.9473C92.7641 12.6454 93.5702 12.5034 94.3799 12.5034C94.5823 12.5034 94.7812 12.5034 94.9836 12.5211C95.186 12.5211 95.3885 12.5638 95.6122 12.5815C95.8111 12.6028 96.0135 12.6454 96.2159 12.6632L96.8019 12.7662C98.3147 13.068 99.8915 13.0254 101.202 12.5424C101.848 12.301 102.456 11.9778 102.938 11.5765C103.446 11.1716 103.848 10.7277 104.171 10.2838C104.838 9.37825 105.201 8.50818 105.424 7.88316C105.524 7.5813 105.606 7.3185 105.645 7.15869C105.687 6.97758 105.705 6.91721 105.705 6.91721C105.787 6.55498 106.131 6.33124 106.493 6.41292C106.859 6.51236 107.079 6.85684 106.998 7.21907Z" fill="white"/>
<path d="M122.626 20.4677C122.286 20.7305 121.962 20.9506 121.597 21.1744C121.256 21.3945 120.911 21.597 120.549 21.7994C120.183 21.9983 119.842 22.1794 119.476 22.364C119.295 22.4635 119.114 22.5452 118.933 22.6233C118.752 22.705 118.567 22.7866 118.365 22.8683C118.184 22.9465 117.981 23.0281 117.8 23.0885C117.619 23.1702 117.417 23.2306 117.214 23.2909C116.831 23.433 116.429 23.5324 116.046 23.6319L115.439 23.7739L114.831 23.8733C114.43 23.9337 114.004 23.9763 113.603 23.9763C113.4 23.9976 113.176 23.9763 112.974 23.9763L112.672 23.955L112.37 23.916C112.168 23.8946 111.965 23.8733 111.745 23.813C111.543 23.7526 111.34 23.7348 111.138 23.6532C110.936 23.5928 110.733 23.5324 110.552 23.4507L109.987 23.1879C109.806 23.0885 109.625 22.9678 109.441 22.8683C109.341 22.8044 109.259 22.744 109.178 22.6837L108.695 22.3214L108.471 22.1013L108.251 21.8775C108.169 21.8171 108.109 21.739 108.048 21.6573L107.644 21.1921C107.523 21.0323 107.402 20.869 107.303 20.6878C107.058 20.3647 106.877 20.0024 106.674 19.6402C106.575 19.4591 106.493 19.278 106.411 19.0969L106.17 18.55L106.191 18.5926C106.088 18.4505 105.967 18.3298 105.868 18.1877C105.747 18.067 105.626 17.9249 105.506 17.8042C105.261 17.5627 104.98 17.3212 104.696 17.1188C104.554 17.0194 104.415 16.9164 104.252 16.8382C104.11 16.7566 103.95 16.6571 103.787 16.5968C103.709 16.5541 103.627 16.5328 103.545 16.4938C103.464 16.4547 103.386 16.4334 103.304 16.4121L103.062 16.3517C102.981 16.334 102.899 16.3127 102.8 16.3127C102.636 16.2913 102.455 16.2913 102.274 16.2913C102.192 16.3127 102.093 16.3127 102.011 16.334C101.93 16.3517 101.848 16.373 101.748 16.3943L101.507 16.4725C101.425 16.5151 101.344 16.5541 101.265 16.5754C101.184 16.6145 101.102 16.6571 101.042 16.6962C100.96 16.7353 100.882 16.7779 100.818 16.8382L100.619 16.9981C100.559 17.0584 100.498 17.1188 100.417 17.1792C100.275 17.2999 100.175 17.442 100.051 17.5627C99.9302 17.7048 99.8307 17.8468 99.7278 17.9853L99.4259 18.4292L99.6887 17.9676C99.7917 17.8255 99.8911 17.6621 99.9906 17.5236C100.111 17.3816 100.214 17.2395 100.335 17.1188C100.395 17.0584 100.456 16.9981 100.516 16.9164L100.719 16.7353C100.779 16.6749 100.861 16.6358 100.942 16.5754C101.02 16.5151 101.081 16.4725 101.162 16.4334L101.404 16.3127L101.667 16.2132C101.748 16.1919 101.848 16.1706 101.93 16.1315C102.011 16.1102 102.111 16.0925 102.214 16.0925C102.395 16.0712 102.576 16.0712 102.757 16.0712C102.86 16.0712 102.942 16.0925 103.041 16.1102C103.141 16.1315 103.222 16.1528 103.304 16.1706C103.386 16.1919 103.485 16.2132 103.567 16.2523C103.648 16.2736 103.748 16.3127 103.829 16.3517C104.011 16.4121 104.17 16.4938 104.334 16.5968C104.494 16.6749 104.657 16.7779 104.799 16.8773C105.101 17.0797 105.381 17.2999 105.666 17.5414C105.808 17.6621 105.928 17.7864 106.07 17.9249C106.191 18.0457 106.312 18.1877 106.454 18.3298L106.493 18.3688L106.756 18.8944C106.859 19.0542 106.919 19.2354 107.04 19.3987C107.242 19.7219 107.441 20.0628 107.686 20.3647C107.807 20.5067 107.906 20.6701 108.048 20.8086L108.432 21.2347C108.492 21.3129 108.574 21.3732 108.634 21.4336L108.855 21.6147L109.078 21.7994C109.16 21.8598 109.238 21.8988 109.302 21.9592L109.522 22.119C109.604 22.1794 109.686 22.222 109.764 22.2611L110.25 22.5239L110.776 22.7263C110.957 22.7866 111.138 22.8257 111.319 22.8861C111.5 22.9465 111.681 22.9678 111.866 23.0068C112.047 23.0494 112.228 23.0672 112.431 23.0672L112.711 23.0885H112.995C113.176 23.0885 113.379 23.0885 113.56 23.0672C113.944 23.0494 114.309 22.9891 114.693 22.9287L115.258 22.8044L115.801 22.6446C116.167 22.5239 116.529 22.4031 116.891 22.2611C117.076 22.2007 117.257 22.119 117.417 22.0409C117.598 21.9592 117.761 21.8775 117.942 21.7994C118.123 21.7177 118.287 21.636 118.468 21.5366C118.628 21.4549 118.812 21.3555 118.972 21.2738C119.317 21.0927 119.64 20.8903 119.963 20.6878C120.286 20.4854 120.609 20.2652 120.911 20.0451C121.213 19.8213 121.536 19.6011 121.82 19.3561C122.101 19.1359 122.506 19.175 122.747 19.4378C122.971 19.7219 122.928 20.1232 122.669 20.3647C122.648 20.4464 122.648 20.4464 122.626 20.4677Z" fill="white"/>
<path d="M128.483 36.56C128.483 36.56 128.461 36.5422 128.401 36.4996C128.34 36.4605 128.28 36.4179 128.181 36.3398C127.978 36.1977 127.676 35.9953 127.293 35.7538C126.504 35.2708 125.354 34.5854 123.898 33.9604C122.445 33.3141 120.67 32.7104 118.709 32.3659C117.74 32.2061 116.71 32.1031 115.662 32.1244C115.4 32.1244 115.137 32.1457 114.874 32.1457C114.611 32.1635 114.348 32.1848 114.086 32.2238L113.702 32.2842L113.5 32.3055L113.418 32.3268L113.319 32.3446L112.53 32.5293C111.561 32.8098 110.573 33.275 109.686 33.8184L109.018 34.241C108.794 34.383 108.595 34.5428 108.372 34.6849C108.272 34.7666 108.169 34.8269 108.048 34.9086L107.747 35.1501C107.544 35.3099 107.342 35.4733 107.139 35.6118C106.372 36.2581 105.626 36.9044 104.959 37.5472C104.799 37.7106 104.614 37.8704 104.455 38.0337L103.989 38.4954C103.687 38.8008 103.386 39.1027 103.101 39.4045C102.537 39.9905 102.033 40.5339 101.589 41.0168C101.141 41.4998 100.758 41.926 100.434 42.2882C99.7881 42.9949 99.4259 43.3962 99.4259 43.3962C99.4259 43.3962 99.7704 42.9736 100.374 42.2491C100.68 41.8833 101.063 41.4394 101.486 40.9351C101.912 40.4309 102.395 39.8662 102.938 39.2625C103.201 38.9606 103.485 38.6375 103.787 38.3143C103.929 38.1545 104.092 37.9911 104.252 37.8313C104.415 37.6715 104.575 37.5082 104.739 37.327C105.381 36.6629 106.109 35.9776 106.859 35.2886C107.058 35.1288 107.242 34.969 107.441 34.7879L107.747 34.5428L108.07 34.3013C108.272 34.1415 108.492 33.9782 108.716 33.8184C108.936 33.6586 109.16 33.5165 109.38 33.3532C110.289 32.7707 111.259 32.2451 112.37 31.8829L113.159 31.6805L113.258 31.6592H113.4L113.603 31.6201L114.004 31.5384C114.288 31.4994 114.551 31.4781 114.831 31.439C115.115 31.4177 115.378 31.3999 115.662 31.3786C116.753 31.3183 117.843 31.3786 118.873 31.5207C120.932 31.8012 122.808 32.3659 124.342 32.9696C125.897 33.5769 127.108 34.241 127.957 34.7239C128.383 34.969 128.706 35.1679 128.926 35.3099C129.047 35.3916 129.129 35.4307 129.189 35.4733C129.25 35.5123 129.271 35.5336 129.271 35.5336C129.573 35.7325 129.633 36.1587 129.431 36.4392C129.228 36.7411 128.806 36.8014 128.522 36.6026L128.483 36.56Z" fill="white"/>
<path d="M135.549 85.3618C135.549 85.3618 135.286 85.3441 134.842 85.2624C134.377 85.202 133.713 85.0813 132.886 84.9002C132.037 84.7155 131.028 84.4953 129.895 84.1722C128.745 83.849 127.473 83.4477 126.099 82.9008C124.728 82.3788 123.294 81.7111 121.82 80.905C120.346 80.0775 118.872 79.0903 117.459 77.9006C116.063 76.6896 114.753 75.2797 113.702 73.6674C112.65 72.0516 111.823 70.2192 111.358 68.3228C111.116 67.3746 110.956 66.4051 110.853 65.4391C110.775 64.4696 110.733 63.5037 110.775 62.5342C110.836 60.62 111.159 58.7627 111.581 56.9906C111.805 56.1028 112.047 55.254 112.309 54.4266L112.409 54.107L112.53 53.8016C112.611 53.6027 112.693 53.4003 112.792 53.2192C112.974 52.8356 113.176 52.4521 113.378 52.0898C114.227 50.6551 115.296 49.4264 116.55 48.6415C117.175 48.258 117.842 47.9952 118.489 47.8354C119.135 47.672 119.778 47.6934 120.364 47.7324C121.557 47.8532 122.526 48.258 123.272 48.6202C123.453 48.7197 123.634 48.8014 123.798 48.9008C123.958 49.0038 124.1 49.0855 124.242 49.1849C124.384 49.2666 124.505 49.3447 124.625 49.4264C124.746 49.5081 124.849 49.5897 124.927 49.6501C125.293 49.9094 125.495 50.0514 125.495 50.0514C125.495 50.0514 125.293 49.9094 124.927 49.6679C124.828 49.6075 124.728 49.5258 124.625 49.4654C124.505 49.4051 124.384 49.3269 124.242 49.2453C124.1 49.1636 123.958 49.0641 123.777 48.9825C123.617 48.9008 123.436 48.8227 123.251 48.7197C122.484 48.3787 121.514 47.9952 120.364 47.8958C119.778 47.8532 119.153 47.8745 118.528 48.0343C117.903 48.1976 117.256 48.4604 116.67 48.8404C115.477 49.6075 114.447 50.8398 113.662 52.271C113.46 52.6332 113.279 52.9954 113.116 53.379C112.956 53.7625 112.792 54.146 112.672 54.5686C112.43 55.3961 112.189 56.2413 112.004 57.1291C111.62 58.8835 111.358 60.7195 111.319 62.5945C111.297 63.5214 111.358 64.4696 111.461 65.4178C111.581 66.3447 111.763 67.2929 112.004 68.202C112.512 70.0167 113.318 71.7498 114.369 73.2839C115.417 74.8145 116.692 76.1462 118.063 77.2543C119.437 78.3836 120.889 79.2927 122.324 80.0598C123.759 80.8268 125.19 81.4306 126.525 81.9135C127.857 82.3965 129.107 82.7801 130.24 83.0642C131.348 83.3447 132.339 83.5684 133.166 83.7105C133.976 83.849 134.622 83.952 135.066 84.0123C135.51 84.0727 135.73 84.0905 135.73 84.0905C136.096 84.1331 136.359 84.4349 136.337 84.7972C136.298 85.1594 135.993 85.4222 135.631 85.4044C135.57 85.3618 135.57 85.3618 135.549 85.3618Z" fill="white"/>
<path d="M112.957 114.625C112.957 114.625 112.875 114.565 112.694 114.444C112.531 114.323 112.289 114.16 112.005 113.94C111.423 113.496 110.613 112.849 109.704 112.001C108.777 111.155 107.747 110.126 106.756 108.918C105.769 107.707 104.8 106.336 104.072 104.824C103.709 104.078 103.404 103.289 103.184 102.505C102.96 101.716 102.839 100.91 102.8 100.125C102.758 99.3368 102.818 98.591 102.96 97.8878C103.102 97.1811 103.304 96.5348 103.546 95.9701C103.787 95.4055 104.072 94.9012 104.334 94.4786C104.597 94.056 104.86 93.6902 105.08 93.431C105.201 93.2889 105.283 93.1682 105.382 93.0474C105.485 92.9445 105.545 92.845 105.627 92.7846C105.748 92.6426 105.829 92.5609 105.829 92.5609C105.829 92.5609 105.769 92.6426 105.645 92.7846C105.584 92.8663 105.506 92.9445 105.425 93.0652C105.343 93.1859 105.243 93.3102 105.14 93.4487C104.938 93.7328 104.697 94.1164 104.455 94.539C104.214 94.9829 103.969 95.4659 103.748 96.0518C103.326 97.1811 103.063 98.6123 103.223 100.104C103.304 100.85 103.446 101.617 103.709 102.362C103.951 103.108 104.274 103.836 104.657 104.539C105.425 105.953 106.412 107.224 107.424 108.332C108.433 109.44 109.484 110.388 110.411 111.155C111.341 111.923 112.147 112.505 112.733 112.91C113.017 113.112 113.259 113.254 113.401 113.354C113.561 113.453 113.642 113.496 113.642 113.496H113.664C113.965 113.695 114.065 114.099 113.866 114.401C113.664 114.703 113.259 114.806 112.957 114.604C112.975 114.625 112.975 114.625 112.957 114.625Z" fill="white"/>
<path d="M112.711 90.3605C112.711 90.3605 112.672 90.2611 112.591 90.08C112.513 89.8776 112.388 89.597 112.207 89.2312C111.866 88.5281 111.319 87.4982 110.513 86.4079C110.108 85.8646 109.643 85.2999 109.078 84.7779C108.514 84.2523 107.867 83.7871 107.1 83.4852C106.351 83.2047 105.506 83.1017 104.675 83.3041C103.847 83.4852 103.041 83.9505 102.335 84.4938C101.628 85.0585 100.982 85.7226 100.396 86.4293C99.8309 87.136 99.284 87.8817 98.8401 88.6275C98.3962 89.3733 98.0553 90.1404 97.7712 90.8861C97.6291 91.2697 97.5084 91.6319 97.3876 91.9941C97.2669 92.3599 97.1852 92.7008 97.0645 93.0453C96.8407 93.7307 96.5176 94.3131 96.134 94.757C95.7505 95.2009 95.2888 95.4637 94.884 95.5667C94.6816 95.6271 94.5004 95.6448 94.3371 95.6662C94.1773 95.6662 94.0352 95.6875 93.9358 95.6662C93.7121 95.6448 93.5913 95.6271 93.5913 95.6271C93.5913 95.6271 93.7121 95.6271 93.9358 95.6448C94.0352 95.6448 94.1773 95.6271 94.3371 95.6271C94.5004 95.6058 94.6816 95.5845 94.8627 95.5028C95.2462 95.382 95.6901 95.1228 96.0346 94.6576C96.3968 94.2137 96.6596 93.6277 96.862 92.9636C96.9615 92.6191 97.0254 92.2569 97.1248 91.8947C97.2243 91.5325 97.3486 91.1489 97.4693 90.7654C97.7321 89.9983 98.0553 89.1922 98.4779 88.4073C98.9005 87.6012 99.4048 86.8519 99.973 86.0883C100.538 85.3426 101.163 84.6145 101.912 83.9682C102.658 83.3432 103.506 82.7998 104.476 82.5193C105.445 82.2352 106.493 82.2956 107.402 82.5974C108.311 82.8993 109.078 83.4249 109.746 83.9682C110.392 84.5151 110.936 85.1188 111.401 85.6835C112.31 86.8341 112.935 87.8817 113.34 88.6062C113.542 88.972 113.681 89.2738 113.784 89.494L113.944 89.8172C114.086 90.1617 113.944 90.5452 113.603 90.6837C113.258 90.8648 112.853 90.705 112.711 90.3605Z" fill="white"/>
<path d="M112.328 71.1247C112.328 71.1247 112.268 71.0856 112.19 71.004C112.087 70.9223 111.945 70.8228 111.746 70.6808C111.544 70.5387 111.32 70.3789 111.039 70.1978C110.755 70.0167 110.432 69.8356 110.088 69.6332C109.725 69.4307 109.342 69.2496 108.919 69.0472C108.493 68.8661 108.028 68.685 107.545 68.5429C107.058 68.4044 106.554 68.2801 106.029 68.2411C105.769 68.202 105.506 68.2197 105.244 68.202C104.981 68.2197 104.718 68.2197 104.455 68.2801C104.192 68.3227 103.93 68.4044 103.667 68.4648C103.546 68.5039 103.425 68.5642 103.305 68.6033C103.184 68.6459 103.063 68.7063 102.939 68.7666C102.818 68.827 102.719 68.8874 102.598 68.9478C102.477 69.0081 102.374 69.0898 102.275 69.1679C102.051 69.31 101.87 69.4911 101.689 69.6545C101.65 69.6935 101.589 69.7326 101.547 69.7752L101.426 69.9137C101.344 70.0167 101.266 70.0984 101.185 70.1978C101.103 70.2795 101.021 70.3789 100.961 70.4784C100.9 70.5814 100.819 70.6808 100.758 70.7625C100.719 70.8015 100.698 70.8619 100.659 70.9045C100.62 70.9436 100.599 71.004 100.577 71.043C100.517 71.146 100.457 71.2454 100.417 71.3484C100.357 71.4479 100.314 71.5295 100.254 71.629C100.215 71.732 100.176 71.8314 100.112 71.9131L99.8706 72.4564C99.7889 72.6375 99.7498 72.7974 99.6895 72.9607C99.6291 73.1205 99.5687 73.2626 99.5297 73.4046C99.487 73.5467 99.448 73.6674 99.4054 73.7882C99.2669 74.2498 99.1852 74.5126 99.1852 74.5126C99.1852 74.5126 99.2456 74.2498 99.3663 73.7669C99.4054 73.6461 99.4267 73.5254 99.4693 73.3833C99.5083 73.2413 99.5687 73.1028 99.6078 72.9394C99.6682 72.7796 99.7108 72.5985 99.7711 72.4351C99.8528 72.254 99.9132 72.0729 99.9913 71.8918L100.112 71.5899C100.155 71.4869 100.215 71.3875 100.275 71.2881C100.336 71.1851 100.375 71.0856 100.435 70.9826C100.457 70.9223 100.496 70.8832 100.517 70.8228C100.56 70.7838 100.577 70.7234 100.62 70.6808C100.68 70.5814 100.741 70.4784 100.819 70.3789C100.883 70.2795 100.943 70.1587 101.043 70.0771L101.284 69.7752L101.405 69.6119L101.547 69.4734C101.728 69.2887 101.913 69.0898 102.154 68.9265C102.253 68.8483 102.374 68.7453 102.477 68.685C102.598 68.6033 102.719 68.5429 102.839 68.4648C102.96 68.3831 103.081 68.3227 103.223 68.2624C103.344 68.202 103.486 68.1416 103.607 68.099C103.869 68.0209 104.153 67.9179 104.434 67.8575C104.718 67.7794 104.999 67.7794 105.283 67.7368C105.567 67.7368 105.847 67.719 106.131 67.7368C106.696 67.7581 107.243 67.8575 107.765 67.9783C108.291 68.099 108.777 68.2624 109.239 68.4435C109.686 68.6246 110.109 68.8057 110.492 68.9868C110.876 69.1679 111.22 69.3491 111.522 69.5337C111.824 69.7148 112.087 69.8533 112.289 69.9954C112.492 70.1374 112.652 70.2369 112.772 70.3186C112.875 70.4002 112.936 70.4393 112.936 70.4393C113.117 70.56 113.159 70.8228 113.035 71.004C112.914 71.1851 112.652 71.2277 112.471 71.1034C112.35 71.146 112.328 71.146 112.328 71.1247Z" fill="white"/>
<path d="M102.111 50.8565C102.111 50.8565 101.93 50.8991 101.568 50.9169C101.205 50.9382 100.698 50.9595 100.033 50.8778C99.3658 50.7961 98.5774 50.6363 97.7322 50.2315C96.8835 49.8479 96.0347 49.1838 95.3493 48.2357C94.6604 47.3088 94.2165 46.0978 93.9963 44.8087C93.7726 43.516 93.7122 42.1239 93.8329 40.6927C93.8542 40.3305 93.8933 39.9896 93.9359 39.6238C93.975 39.2616 94.014 38.8993 94.0744 38.5371L94.2591 37.4468C94.3195 37.0846 94.4189 36.7224 94.4793 36.3566C94.7811 34.8864 95.2073 33.4339 95.6512 31.9814C95.8714 31.257 96.1342 30.5503 96.3792 29.8258L96.4573 29.563C96.4786 29.4813 96.5177 29.3819 96.539 29.3002C96.5781 29.1404 96.642 28.9557 96.6597 28.7959C96.7414 28.4514 96.7805 28.0892 96.8018 27.7483C96.8409 27.0416 96.7627 26.3562 96.5781 25.6921L96.539 25.5678L96.5177 25.5074C96.5177 25.5074 96.539 25.55 96.5177 25.5074V25.4897L96.4999 25.4471C96.4573 25.3689 96.4396 25.2659 96.397 25.2269C96.3366 25.1061 96.2549 24.9854 96.1555 24.8646C95.9743 24.6232 95.7329 24.3994 95.4701 24.2183C94.9658 23.8561 94.3585 23.6323 93.7512 23.572C93.1475 23.4938 92.5403 23.5933 91.9969 23.7744C91.4323 23.9555 90.9244 24.2396 90.4628 24.5628C89.9975 24.9037 89.5927 25.2659 89.2092 25.6495C88.4634 26.4379 87.8987 27.2618 87.4335 28.0288C87.3128 28.21 87.2098 28.4124 87.1103 28.5935C87.0074 28.7746 86.9079 28.9557 86.8049 29.1191C86.6238 29.46 86.464 29.7832 86.322 30.0673C86.1799 30.3691 86.0592 30.6319 85.9597 30.8521C85.8567 31.0936 85.7786 31.2747 85.7147 31.4381C85.5762 31.7612 85.5158 31.921 85.5158 31.921V31.9424C85.3738 32.2833 84.9902 32.4253 84.6457 32.2833C84.3013 32.1448 84.1628 31.7612 84.3013 31.4168V31.399C84.3013 31.399 84.383 31.2143 84.525 30.8947C84.6067 30.7314 84.6848 30.5289 84.8091 30.2875C84.9299 30.046 85.0506 29.7832 85.2104 29.4813C85.3525 29.1795 85.5549 28.8563 85.736 28.4941C85.839 28.3129 85.9597 28.1318 86.0592 27.9472C86.1799 27.766 86.2829 27.5672 86.4214 27.3647C86.947 26.5764 87.5756 25.6921 88.4208 24.8646C88.8469 24.4385 89.3299 24.0372 89.8555 23.675C90.4024 23.3092 91.0061 22.9896 91.6915 22.7871C92.3804 22.5847 93.1262 22.4853 93.8755 22.5847C94.6213 22.6842 95.3671 22.9683 96.0134 23.4512C96.3366 23.6927 96.6207 23.9768 96.8622 24.3C96.9829 24.4598 97.0859 24.6409 97.1853 24.8433C97.2457 24.9428 97.267 25.0245 97.2848 25.1061L97.3274 25.1878L97.3487 25.2482L97.3878 25.3867C97.5902 26.1325 97.6506 26.9421 97.5902 27.727C97.5476 28.1105 97.4872 28.5118 97.4091 28.8954C97.3665 29.0978 97.3061 29.2789 97.2457 29.46C97.2066 29.563 97.1853 29.6411 97.1463 29.7441L97.0433 30.0069C96.7805 30.7101 96.5177 31.4168 96.2762 32.1235C95.7932 33.5546 95.3493 34.9858 94.9835 36.417C94.9054 36.7828 94.8024 37.1237 94.7207 37.4859C94.6604 37.8517 94.5822 38.2139 94.5183 38.5548C94.4402 38.9206 94.3976 39.2616 94.3585 39.6238C94.3195 39.9896 94.2378 40.3305 94.2165 40.675C94.0567 42.0635 94.0744 43.4379 94.2591 44.7057C94.458 45.977 94.8415 47.1454 95.4878 48.0758C96.1164 49.0027 96.9225 49.6668 97.75 50.0717C98.5774 50.473 99.3658 50.6754 100.012 50.7571C100.658 50.8565 101.184 50.8387 101.546 50.8387C101.93 50.8778 102.111 50.8565 102.111 50.8565Z" fill="white"/>
<path d="M129.776 94.1752C129.776 94.1752 129.737 94.1539 129.655 94.1326C129.573 94.1148 129.431 94.0545 129.271 94.0118C128.948 93.9124 128.462 93.749 127.897 93.6105C127.332 93.4472 126.647 93.2874 125.919 93.1666C125.557 93.1063 125.173 93.0459 124.79 93.0033C124.406 92.9642 124.001 92.9252 123.618 92.9038C123.234 92.9038 122.829 92.9038 122.446 92.9252C122.062 92.9429 121.679 93.0246 121.334 93.1063C121.153 93.1453 120.993 93.2057 120.809 93.2661C120.731 93.3087 120.649 93.3264 120.567 93.3691L120.446 93.4081L120.326 93.4685C120.244 93.5076 120.184 93.5502 120.102 93.5892C120.024 93.6283 119.963 93.6709 119.903 93.7313C119.843 93.7704 119.782 93.8094 119.718 93.8733C119.658 93.9337 119.598 93.9728 119.559 94.0118C119.498 94.0722 119.438 94.1148 119.395 94.1539C119.356 94.2143 119.317 94.2533 119.257 94.3137C119.214 94.3741 119.175 94.4167 119.136 94.4771C119.093 94.5374 119.076 94.5765 119.033 94.6369C118.891 94.8393 118.831 95.0417 118.752 95.2015C118.689 95.3649 118.649 95.5034 118.628 95.5851C118.61 95.6881 118.589 95.7271 118.589 95.7271C118.589 95.7271 118.589 95.6881 118.61 95.5851C118.628 95.4856 118.649 95.3436 118.689 95.1838C118.752 95.0204 118.792 94.8002 118.934 94.5765C118.951 94.5161 118.994 94.4558 119.012 94.3954L119.136 94.2143L119.257 94.0332C119.296 93.9728 119.356 93.9124 119.395 93.852C119.459 93.7917 119.498 93.7313 119.559 93.6709C119.619 93.6105 119.679 93.5679 119.74 93.5076C119.8 93.4472 119.86 93.3868 119.942 93.3478C120.024 93.3087 120.084 93.2448 120.166 93.2057L120.287 93.124L120.649 92.9429C120.83 92.8648 120.993 92.7831 121.174 92.7227C121.537 92.602 121.942 92.4812 122.346 92.4209C122.748 92.3392 123.153 92.3001 123.575 92.2575C124.001 92.2398 124.406 92.2184 124.807 92.2398C125.212 92.2398 125.617 92.2575 126.001 92.3001C126.768 92.3605 127.496 92.4599 128.099 92.5416C128.707 92.641 129.211 92.744 129.573 92.8222C129.754 92.8648 129.896 92.9038 129.999 92.9252C130.099 92.9429 130.138 92.9642 130.138 92.9642C130.504 93.0459 130.706 93.4081 130.624 93.7704C130.543 94.1326 130.181 94.335 129.815 94.2533C129.836 94.193 129.815 94.193 129.776 94.1752Z" fill="white"/>
<path d="M134.317 57.4125L134.299 57.3911L134.239 57.3308C134.179 57.2704 134.054 57.171 133.916 57.068C133.774 56.9685 133.571 56.8869 133.369 56.8265C133.149 56.7874 132.925 56.7874 132.662 56.8869C132.542 56.9295 132.399 57.0289 132.257 57.1106C132.197 57.171 132.119 57.2313 132.059 57.2917C131.956 57.3911 131.895 57.4302 131.796 57.5332C131.412 57.8564 131.007 58.1369 130.563 58.3997C129.693 58.9253 128.706 59.3692 127.676 59.6888C127.172 59.8522 126.625 59.9729 126.1 60.0546C125.574 60.115 125.052 60.1327 124.544 60.0937C124.04 60.0546 123.557 59.9339 123.131 59.7705C122.708 59.5894 122.324 59.3692 122.023 59.1064C121.859 58.9857 121.739 58.8436 121.596 58.7229C121.476 58.5808 121.355 58.4601 121.273 58.318C121.174 58.1795 121.092 58.0552 121.011 57.9558C120.95 57.8351 120.89 57.7143 120.829 57.6149C120.769 57.5119 120.73 57.4302 120.687 57.3308C120.648 57.2491 120.627 57.1887 120.588 57.1284C120.549 57.0076 120.506 56.9685 120.506 56.9685C120.506 56.9685 120.549 57.0289 120.588 57.1284C120.609 57.1887 120.648 57.2491 120.687 57.3308C120.73 57.4125 120.769 57.4941 120.851 57.5936C120.911 57.693 120.993 57.796 121.053 57.9167C121.131 58.0162 121.234 58.1369 121.334 58.2577C121.437 58.3784 121.557 58.4991 121.678 58.6199C121.82 58.7442 121.941 58.8649 122.101 58.9644C122.406 59.1845 122.79 59.3692 123.191 59.5077C123.596 59.6498 124.061 59.7101 124.526 59.7101C125.474 59.7314 126.465 59.49 127.413 59.1064C128.362 58.7229 129.249 58.2399 130.017 57.6752C130.4 57.4125 130.766 57.1106 131.029 56.8265C131.089 56.7661 131.188 56.6667 131.228 56.6063C131.309 56.5033 131.412 56.4252 131.49 56.3435C131.671 56.1802 131.874 56.0204 132.119 55.9209C132.563 55.6759 133.085 55.6368 133.49 55.6972C133.895 55.7576 134.239 55.8996 134.481 56.0204C134.722 56.1411 134.903 56.2831 135.024 56.3648C135.084 56.4039 135.127 56.443 135.166 56.4856L135.209 56.5246C135.468 56.7661 135.489 57.1887 135.248 57.4515C135.006 57.7143 134.58 57.7356 134.317 57.4941C134.338 57.4515 134.338 57.4302 134.317 57.4125Z" fill="white"/>
<path d="M85.5937 60.0935C85.5937 60.0935 85.6363 60.1325 85.7357 60.1929C85.8174 60.2746 85.9595 60.3776 86.1193 60.4983C86.4424 60.7789 86.9076 61.1837 87.4723 61.7271C88.037 62.2704 88.7046 62.9771 89.4113 63.8259C90.118 64.6711 90.8638 65.6796 91.5527 66.848C92.2381 68.0199 92.8845 69.3694 93.3284 70.861C93.751 72.3738 93.996 74.05 93.8327 75.7617C93.6728 77.477 93.1473 79.1923 92.3198 80.7833C92.2168 80.9857 92.1174 81.1881 91.9966 81.3692L91.6522 81.9552L91.3077 82.5198C91.1869 82.7009 91.1088 82.8821 90.9845 83.0632C90.5832 83.8089 90.2601 84.6151 90.0363 85.4425C89.5711 87.0974 89.4717 88.8518 89.5924 90.5635C89.7345 92.2788 90.0967 93.9337 90.5832 95.5033C91.0662 97.0765 91.6735 98.5503 92.3198 99.9211C92.9661 101.292 93.6302 102.563 94.3192 103.693C95.6509 105.973 96.9436 107.787 97.8527 109.016C98.7796 110.245 99.3656 110.934 99.3656 110.934C99.3656 110.934 98.7796 110.266 97.8101 109.055C96.8619 107.848 95.5302 106.072 94.1345 103.792C93.4278 102.663 92.7211 101.413 92.057 100.042C91.3681 98.6711 90.7253 97.1973 90.1997 95.6276C89.6741 94.0544 89.2479 92.3604 89.0668 90.6061C88.8857 88.8518 88.9461 87.0371 89.39 85.2614C89.6137 84.3736 89.9369 83.5248 90.3417 82.7187C90.4412 82.5198 90.5406 82.2961 90.6614 82.115L90.8247 81.8309L90.9845 81.5503L91.3077 80.9857C91.4107 80.8046 91.5314 80.6234 91.6131 80.421C92.3589 78.9082 92.8241 77.2746 92.9235 75.7014C93.0265 74.1104 92.7815 72.5549 92.3376 71.1664C91.8937 69.7743 91.2473 68.5242 90.5832 67.434C89.8943 66.3437 89.1698 65.3955 88.4809 64.6107C87.7955 63.8259 87.1278 63.1795 86.5845 62.6539C86.0376 62.1319 85.5759 61.7661 85.2705 61.5069C85.1107 61.3826 84.99 61.2831 84.9083 61.2228C84.8266 61.1624 84.7875 61.1411 84.7875 61.1411H84.7662C84.4857 60.9209 84.4253 60.5161 84.6242 60.2142C84.8692 59.9337 85.2918 59.8733 85.5937 60.0935C85.5759 60.0935 85.5937 60.0935 85.5937 60.0935Z" fill="white"/>
<path d="M112.836 42.0645C112.836 42.0645 112.633 42.6114 112.268 43.5595C112.189 43.801 112.086 44.0638 111.966 44.3444C111.845 44.6285 111.724 44.9303 111.582 45.2535C111.44 45.5767 111.298 45.9176 111.138 46.2798C110.975 46.6421 110.776 47.0078 110.591 47.4091C110.392 47.7927 110.208 48.2153 109.988 48.6201C109.764 49.025 109.522 49.4476 109.281 49.8915C109.221 49.9909 109.16 50.1117 109.1 50.2147C109.039 50.3141 108.958 50.4348 108.897 50.5343C108.755 50.758 108.613 50.9782 108.471 51.2019C108.333 51.4221 108.191 51.6458 108.049 51.866L107.566 52.5336L107.079 53.1977C106.919 53.4179 106.735 53.6203 106.553 53.8441L106.01 54.5082C105.928 54.6289 105.829 54.7319 105.726 54.8313L105.424 55.1545C105.222 55.3569 105.019 55.5771 104.838 55.7795C104.636 55.9819 104.416 56.1808 104.213 56.3832C103.989 56.5857 103.787 56.7881 103.567 56.9905L102.878 57.5552C102.434 57.9352 101.93 58.2583 101.465 58.6028L101.102 58.8443L100.74 59.0645L100.374 59.2882C100.254 59.3699 100.133 59.448 99.9907 59.5084C99.4864 59.7712 98.9822 60.0553 98.4388 60.2754C97.9132 60.5169 97.3876 60.7194 96.862 60.9005C96.5992 61.0035 96.3364 61.0638 96.0737 61.1633C95.8109 61.2449 95.5481 61.3231 95.2888 61.3834C95.026 61.4438 94.7632 61.5077 94.5182 61.5681C94.2589 61.6072 94.0139 61.6676 93.7511 61.7066C92.7425 61.87 91.773 61.9694 90.8852 61.9907C89.9974 62.0085 89.17 61.9907 88.4419 61.909C87.7139 61.8487 87.0889 61.7492 86.5633 61.6462C86.0377 61.5468 85.6364 61.4438 85.3736 61.3657C85.2316 61.3231 85.1321 61.3053 85.0505 61.2627C84.9688 61.2449 84.9297 61.2236 84.9297 61.2236C84.5852 61.1029 84.4041 60.7407 84.5036 60.3962C84.6243 60.0553 84.9901 59.8742 85.331 59.9736H85.3523L85.3736 59.9949C85.3736 59.9949 85.3914 59.9949 85.4553 60.0127C85.5157 60.034 85.5938 60.073 85.7146 60.0943C85.9596 60.176 86.3218 60.2754 86.8048 60.3784C87.2913 60.4779 87.856 60.5986 88.5414 60.6803C89.2303 60.7797 89.9974 60.8188 90.8462 60.8401C91.6914 60.8614 92.6005 60.801 93.57 60.659C93.8115 60.6199 94.0565 60.5773 94.298 60.5596C94.5395 60.4992 94.781 60.4566 95.0438 60.3962C95.2888 60.3571 95.5481 60.2754 95.7931 60.2151C96.0346 60.1334 96.2974 60.0943 96.5602 59.9949C97.0645 59.8315 97.5687 59.6717 98.073 59.448C98.5773 59.2491 99.0816 59.0041 99.5894 58.7626C99.7102 58.7022 99.8309 58.6419 99.9517 58.5602L100.314 58.3613L100.68 58.1589C100.8 58.0985 100.921 58.0168 101.042 57.9352C101.507 57.6155 102.011 57.3314 102.434 56.9692L103.123 56.4436C103.343 56.2625 103.546 56.0814 103.769 55.879C103.989 55.6978 104.192 55.5167 104.416 55.3143L105.321 54.4087C105.424 54.3057 105.524 54.2063 105.605 54.1069C105.786 53.9044 105.968 53.6807 106.152 53.4783C106.333 53.2794 106.536 53.077 106.696 52.8533C106.859 52.6331 107.04 52.4307 107.2 52.2105C107.363 51.9867 107.523 51.7843 107.686 51.5855C107.825 51.3617 107.988 51.1593 108.13 50.9391C108.272 50.7189 108.432 50.5165 108.574 50.3141C108.656 50.2147 108.716 50.1117 108.794 50.0122C108.855 49.9092 108.919 49.7885 108.997 49.6891C109.26 49.2665 109.501 48.8616 109.746 48.4603C109.988 48.0555 110.19 47.6506 110.392 47.2671C110.591 46.8871 110.794 46.5213 110.975 46.1804C111.138 45.8182 111.298 45.495 111.461 45.1718C111.603 44.8487 111.745 44.5468 111.884 44.284C112.005 44.0035 112.108 43.7407 112.207 43.5169C112.612 42.6114 112.836 42.0645 112.836 42.0645Z" fill="white"/>
<path d="M0 159.084V132.79H18.0547L18.0405 137.265H5.32693V143.643H16.3643V148.033H5.29852V154.553L18.2394 154.581V159.084H0Z" fill="black"/>
<path d="M29.3934 159.453C26.8649 159.453 24.8939 158.583 23.4841 156.839C22.0813 155.099 21.3817 152.677 21.3817 149.58C21.3817 147.613 21.6658 145.908 22.234 144.467C22.8093 143.028 23.6545 141.91 24.7625 141.114C25.8776 140.319 27.2413 139.921 28.8536 139.921C29.5355 139.921 30.1676 139.999 30.7571 140.148C31.3431 140.301 31.8793 140.511 32.3623 140.773C32.8524 141.04 33.2785 141.349 33.6408 141.697C33.9994 142.048 34.2977 142.428 34.5357 142.833V132.066H39.8626V159.084H35.9988L35.4022 155.234C35.2317 155.756 34.9938 156.268 34.6919 156.768C34.3865 157.262 33.9994 157.713 33.5271 158.118C33.0512 158.516 32.4759 158.839 31.7941 159.084C31.1122 159.329 30.3096 159.453 29.3934 159.453ZM30.544 155.632C31.8793 155.632 32.8772 155.17 33.5413 154.24C34.2019 153.302 34.5357 151.722 34.5357 149.495C34.5144 148.217 34.3581 147.159 34.0669 146.313C33.7828 145.461 33.3495 144.829 32.7742 144.41C32.1954 143.984 31.4674 143.771 30.5866 143.771C29.4289 143.771 28.4701 144.211 27.703 145.092C26.943 145.972 26.5666 147.443 26.5666 149.495C26.5666 151.598 26.9217 153.146 27.632 154.14C28.3493 155.135 29.3224 155.632 30.544 155.632Z" fill="black"/>
<path d="M51.3347 159.452C50.4611 159.452 49.6053 159.318 48.7636 159.055C47.9184 158.781 47.1513 158.384 46.4624 157.861C45.7699 157.343 45.2123 156.704 44.7862 155.944C44.3671 155.177 44.1611 154.292 44.1611 153.287V140.276H49.4739V152.606C49.4739 153.479 49.758 154.193 50.3262 154.751C50.8944 155.312 51.7325 155.589 52.8405 155.589C53.881 155.589 54.7049 155.319 55.3122 154.779C55.9265 154.239 56.2355 153.486 56.2355 152.52V140.276H61.4914V159.083H57.4998L56.8747 155.361C56.6546 156.462 56.2426 157.304 55.6389 157.89C55.0423 158.479 54.3604 158.884 53.5933 159.112C52.8263 159.339 52.0734 159.452 51.3347 159.452Z" fill="black"/>
<path d="M66.4691 132.79H71.8245V154.595H83.2454V159.084H66.4691V132.79Z" fill="black"/>
<path d="M91.1607 150.901C91.15 151.86 91.3027 152.691 91.6153 153.401C91.9278 154.112 92.3823 154.662 92.9789 155.049C93.5827 155.429 94.3142 155.617 95.1665 155.617C96.0757 155.617 96.8712 155.426 97.553 155.035C98.2348 154.648 98.7107 154.009 98.9877 153.117H103.761C103.551 154.453 103.022 155.596 102.17 156.541C101.317 157.489 100.284 158.213 99.073 158.714C97.8584 159.204 96.6013 159.453 95.2944 159.453C93.4371 159.453 91.8035 159.062 90.3936 158.274C88.9802 157.489 87.8793 156.381 87.0838 154.95C86.2954 153.522 85.9048 151.839 85.9048 149.907C85.9048 148.025 86.2599 146.327 86.9702 144.822C87.6875 143.309 88.7316 142.115 90.0953 141.242C91.459 140.361 93.0997 139.921 95.0245 139.921C96.9351 139.921 98.5403 140.326 99.84 141.128C101.147 141.934 102.131 143.057 102.795 144.495C103.455 145.926 103.789 147.584 103.789 149.467V150.901H91.1607ZM91.1465 147.734H98.8173C98.8173 146.988 98.6752 146.299 98.3911 145.674C98.1141 145.042 97.6951 144.545 97.1268 144.182C96.5657 143.813 95.8661 143.628 95.0245 143.628C94.2006 143.628 93.4974 143.827 92.9221 144.225C92.3433 144.616 91.9029 145.127 91.601 145.759C91.2956 146.384 91.1465 147.045 91.1465 147.734Z" fill="black"/>
<path d="M112.927 159.453C111.723 159.453 110.643 159.229 109.688 158.785C108.729 158.331 107.973 157.677 107.415 156.825C106.854 155.965 106.577 154.921 106.577 153.7C106.577 151.647 107.344 150.085 108.878 149.012C110.42 147.932 112.856 147.375 116.18 147.336L118.524 147.307V146.171C118.524 145.312 118.271 144.648 117.771 144.182C117.266 143.721 116.492 143.493 115.441 143.5C114.663 143.511 113.925 143.696 113.225 144.054C112.533 144.406 112.06 145.017 111.805 145.887H107.387C107.451 144.523 107.841 143.408 108.552 142.535C109.269 141.654 110.246 141 111.478 140.574C112.707 140.141 114.106 139.921 115.668 139.921C117.6 139.921 119.149 140.162 120.313 140.645C121.478 141.121 122.32 141.803 122.842 142.691C123.36 143.582 123.623 144.637 123.623 145.859V159.084H119.177L118.751 155.845C118.104 157.208 117.302 158.153 116.336 158.672C115.37 159.19 114.234 159.453 112.927 159.453ZM114.702 155.958C115.192 155.958 115.668 155.873 116.123 155.703C116.577 155.525 116.979 155.287 117.33 154.992C117.689 154.691 117.977 154.353 118.197 153.984C118.413 153.607 118.524 153.213 118.524 152.805V150.035L116.62 150.063C115.729 150.074 114.901 150.184 114.134 150.39C113.374 150.589 112.763 150.912 112.302 151.356C111.836 151.803 111.606 152.407 111.606 153.174C111.606 154.048 111.908 154.73 112.515 155.22C113.118 155.713 113.85 155.958 114.702 155.958Z" fill="black"/>
<path d="M128.325 159.084V140.276H133.439V144.736C133.741 143.781 134.167 142.943 134.717 142.222C135.264 141.505 135.932 140.94 136.72 140.532C137.516 140.127 138.411 139.921 139.405 139.921C139.565 139.921 139.721 139.931 139.874 139.949C140.023 139.97 140.137 139.999 140.215 140.034V145.077C140.108 145.031 139.98 145.003 139.831 144.992C139.679 144.985 139.54 144.971 139.419 144.949C138.375 144.864 137.487 144.9 136.749 145.049C136.01 145.191 135.406 145.439 134.945 145.788C134.479 146.139 134.142 146.569 133.936 147.08C133.737 147.592 133.638 148.167 133.638 148.799V159.084H128.325Z" fill="black"/>
<path d="M143.106 159.082V140.275H148.319V142.931C148.61 142.476 148.99 142.036 149.456 141.61C149.928 141.177 150.521 140.821 151.231 140.544C151.949 140.26 152.797 140.118 153.774 140.118C154.928 140.118 156.004 140.346 156.999 140.8C158 141.248 158.81 141.951 159.428 142.917C160.053 143.876 160.365 145.129 160.365 146.681V159.082H155.052V147.334C155.052 146.322 154.747 145.559 154.143 145.047C153.536 144.536 152.797 144.28 151.927 144.28C151.338 144.28 150.777 144.387 150.237 144.593C149.697 144.802 149.257 145.115 148.916 145.53C148.582 145.939 148.419 146.447 148.419 147.05V159.082H143.106Z" fill="black"/>
<path d="M164.19 159.083V153.302H170V159.083H164.19Z" fill="#20B486"/>
</svg>
