<svg width="1476" height="624" viewBox="0 0 1476 624" fill="none" xmlns="http://www.w3.org/2000/svg">
<path d="M608.46 250.259C636.687 247.002 709.952 243.331 777.192 254.707" stroke="#FFC27A" stroke-width="4" stroke-linecap="round" stroke-linejoin="round"/>
<path d="M429.997 321.062C447.899 317.997 494.266 314.553 536.514 325.293" stroke="#FFC27A" stroke-width="4" stroke-linecap="round" stroke-linejoin="round"/>
<path d="M984.991 141.426L983.545 152.389C983.508 152.652 983.392 152.898 983.212 153.094C983.031 153.289 982.795 153.425 982.536 153.482C982.276 153.54 982.005 153.516 981.759 153.415C981.513 153.314 981.303 153.14 981.159 152.917L975.225 143.586C975.122 143.425 974.985 143.289 974.825 143.186C974.664 143.083 974.482 143.017 974.293 142.991L963.33 141.545C963.067 141.509 962.821 141.393 962.625 141.212C962.43 141.032 962.294 140.796 962.237 140.536C962.179 140.276 962.203 140.005 962.304 139.759C962.405 139.513 962.579 139.304 962.803 139.16L972.133 133.226C972.294 133.123 972.43 132.986 972.533 132.825C972.636 132.664 972.702 132.483 972.728 132.294L974.174 121.331C974.21 121.067 974.327 120.821 974.507 120.626C974.687 120.43 974.923 120.295 975.183 120.237C975.443 120.18 975.714 120.203 975.96 120.304C976.206 120.406 976.415 120.58 976.559 120.803L982.493 130.134C982.596 130.295 982.733 130.431 982.894 130.534C983.055 130.636 983.236 130.703 983.425 130.729L994.388 132.174C994.652 132.211 994.898 132.327 995.093 132.507C995.289 132.688 995.424 132.924 995.482 133.184C995.539 133.443 995.516 133.714 995.415 133.96C995.313 134.206 995.139 134.416 994.916 134.56L985.585 140.494C985.424 140.597 985.288 140.734 985.185 140.895C985.083 141.056 985.016 141.237 984.991 141.426V141.426Z" fill="#FFC27A"/>
<path d="M1429.57 212.544C1422.86 244.71 1403.67 298.25 1380.55 255.087C1351.65 201.133 1346.92 273.18 1344.58 305.008C1344.77 303.118 1341.09 374.885 1303.61 278.117" stroke="#FFC27A" stroke-width="6" stroke-linecap="round" stroke-linejoin="round"/>
<path d="M225.505 102.68L222.805 110.006C222.725 110.222 222.581 110.407 222.392 110.538C222.204 110.67 221.98 110.74 221.75 110.74C221.52 110.74 221.296 110.67 221.108 110.538C220.919 110.407 220.775 110.222 220.695 110.006L217.995 102.68C217.938 102.525 217.848 102.385 217.732 102.268C217.615 102.152 217.475 102.062 217.32 102.005L209.994 99.3047C209.778 99.2248 209.593 99.0809 209.462 98.8924C209.331 98.7038 209.26 98.4797 209.26 98.25C209.26 98.0204 209.331 97.7962 209.462 97.6077C209.593 97.4191 209.778 97.2752 209.994 97.1953L217.32 94.4953C217.475 94.4384 217.615 94.3485 217.732 94.232C217.848 94.1154 217.938 93.975 217.995 93.8203L220.695 86.4938C220.775 86.2785 220.919 86.0928 221.108 85.9617C221.296 85.8305 221.52 85.7603 221.75 85.7603C221.98 85.7603 222.204 85.8305 222.392 85.9617C222.581 86.0928 222.725 86.2785 222.805 86.4938L225.505 93.8203C225.562 93.975 225.652 94.1154 225.768 94.232C225.885 94.3485 226.025 94.4384 226.18 94.4953L233.506 97.1953C233.722 97.2752 233.907 97.4191 234.038 97.6077C234.17 97.7962 234.24 98.0204 234.24 98.25C234.24 98.4797 234.17 98.7038 234.038 98.8924C233.907 99.0809 233.722 99.2248 233.506 99.3047L226.18 102.005C226.025 102.062 225.885 102.152 225.768 102.268C225.652 102.385 225.562 102.525 225.505 102.68V102.68Z" fill="#1A906B"/>
<path d="M230.75 80.25V87" stroke="#1A906B" stroke-width="2.25" stroke-linecap="round" stroke-linejoin="round"/>
<path d="M234.125 83.625H227.375" stroke="#1A906B" stroke-width="2.25" stroke-linecap="round" stroke-linejoin="round"/>
<path d="M237.5 88.125V92.625" stroke="#1A906B" stroke-width="2.25" stroke-linecap="round" stroke-linejoin="round"/>
<path d="M239.75 90.375H235.25" stroke="#1A906B" stroke-width="2.25" stroke-linecap="round" stroke-linejoin="round"/>
<circle cx="5" cy="433" r="5" fill="#ED4459"/>
<circle cx="725" cy="142" r="6" fill="#6D39E9"/>
<circle cx="1138.5" cy="616.5" r="7.5" fill="#6D39E9"/>
<circle cx="1468.5" cy="7.5" r="7.5" fill="#FFC27A"/>
<circle cx="437.5" cy="593.5" r="7.5" fill="#FFC27A"/>
</svg>
