<svg width="71" height="69" viewBox="0 0 71 69" fill="none" xmlns="http://www.w3.org/2000/svg">
<path d="M34.5628 3.32342C34.5628 3.32342 30.4702 -1.90428 26.9426 3.32342C26.9426 3.32342 21.0129 1.78906 20.8744 8.24289C20.8744 8.24289 17.2068 9.77726 18.3338 14.3966C18.3338 14.3966 14.6663 17.1639 16.0798 22.3916C16.0798 22.3916 11.6247 26.085 15.7553 33.0018C15.7553 33.0018 15.4851 35.947 17.9088 36.3869C17.9088 36.3869 17.0982 43.1558 24.2785 44.2285C24.2785 44.2285 26.117 50.2274 35.1412 43.149V4.1327L34.5628 3.32342Z" fill="#20B486"/>
<path d="M34.5628 3.32342C34.5628 3.32342 30.4702 -1.90427 26.9426 3.32342C26.9426 3.32342 21.0129 1.78906 20.8744 8.24288C20.8744 8.24288 17.2068 9.77724 18.3338 14.3966C18.3338 14.3966 14.6663 17.1639 16.0798 22.3916C16.0798 22.3916 11.6247 26.0849 15.7553 33.0018C15.7553 33.0018 15.4851 35.9469 17.9088 36.3869C17.9088 36.3869 17.0982 43.1557 24.2785 44.2284C24.2785 44.2284 26.117 50.2273 35.1412 43.1489V4.13269L34.5628 3.32342Z" stroke="white" stroke-width="1.00592" stroke-miterlimit="10"/>
<path d="M27.1896 3.26925L27.2127 3.36294C27.2277 3.42404 27.2507 3.51637 27.2969 3.63994C27.3825 3.87077 27.521 4.21023 27.7762 4.55784C27.8998 4.72757 28.0614 4.8973 28.2474 5.05074C28.4321 5.20553 28.6643 5.3291 28.9114 5.42143C29.4124 5.6061 30.0153 5.62103 30.5938 5.50562L30.8178 5.4676C30.8952 5.45266 30.9645 5.43637 31.05 5.43637C31.1274 5.42822 31.2048 5.41328 31.289 5.41328C31.3664 5.41328 31.4438 5.40513 31.5212 5.40513C31.8294 5.40513 32.1376 5.45945 32.416 5.57487C32.6943 5.69164 32.9252 5.86001 33.1112 6.05283C33.2959 6.25379 33.4276 6.46969 33.5199 6.67744C33.6204 6.88654 33.6829 7.09429 33.7209 7.27217C33.767 7.45684 33.7901 7.61027 33.8064 7.75013C33.8363 8.0122 33.8295 8.16563 33.8295 8.16563C33.8295 8.16563 33.8295 8.0122 33.7833 7.75013C33.7603 7.61842 33.729 7.46498 33.6747 7.28711C33.6204 7.10923 33.5511 6.91642 33.4425 6.71681C33.3353 6.51585 33.2035 6.31625 33.0189 6.13837C32.8328 5.96049 32.6088 5.81385 32.3467 5.72151C32.0915 5.62918 31.7982 5.59116 31.513 5.6061C31.4438 5.6061 31.3664 5.61424 31.2971 5.62103C31.2279 5.62918 31.1505 5.64412 31.0812 5.65226C31.0106 5.66041 30.9346 5.68349 30.864 5.69843L30.6399 5.75274C30.3398 5.83014 30.0235 5.86816 29.7057 5.87631C29.3894 5.87631 29.0811 5.83693 28.7878 5.7446C28.4945 5.65226 28.2243 5.52191 28.0003 5.35897C27.7681 5.19738 27.5834 5.00457 27.4286 4.8199C27.1204 4.44242 26.9425 4.07173 26.8339 3.80967C26.7809 3.67796 26.7497 3.57069 26.7266 3.50144C26.7035 3.43219 26.6954 3.37787 26.6954 3.38602C26.6642 3.24616 26.7497 3.11581 26.8882 3.08458C27.0267 3.04656 27.1584 3.13075 27.1896 3.2706V3.26925Z" fill="white"/>
<path d="M21.0291 8.0421C21.1364 8.12764 21.2518 8.21997 21.3754 8.30552C21.499 8.3897 21.6157 8.47389 21.7393 8.55129C21.8629 8.62868 21.9864 8.70608 22.1168 8.77533C22.1792 8.81335 22.2485 8.84458 22.3096 8.87581C22.372 8.90568 22.4413 8.94506 22.5105 8.97629C22.5798 9.00617 22.6423 9.0374 22.7115 9.06863C22.7808 9.0985 22.8432 9.12973 22.9125 9.15281C23.051 9.20713 23.1827 9.25329 23.3293 9.29946L23.5371 9.36192L23.7543 9.40809C23.8928 9.43117 24.0395 9.45425 24.1861 9.46104C24.2554 9.46919 24.3328 9.46919 24.402 9.46919H24.5106L24.6179 9.46104C24.6885 9.45425 24.7646 9.45425 24.8352 9.43796C24.9044 9.42302 24.9737 9.41488 25.0429 9.39179C25.1122 9.36871 25.1828 9.35377 25.252 9.33069L25.453 9.25329L25.6377 9.15281C25.6689 9.13788 25.6988 9.11479 25.73 9.0985L25.8155 9.0374C25.8468 9.01431 25.8766 8.99938 25.8997 8.97629L25.9853 8.90569L26.0695 8.83644C26.1007 8.81335 26.1238 8.79027 26.1469 8.7604L26.2935 8.59745C26.3397 8.5445 26.3872 8.48204 26.4334 8.42772C26.5257 8.31231 26.5949 8.18195 26.6805 8.05839C26.7185 7.99593 26.7497 7.92668 26.7878 7.86558L26.8882 7.66462L26.8964 7.65783C26.8964 7.65783 26.8964 7.64968 26.9032 7.64968C26.9507 7.59536 26.9969 7.54105 27.0512 7.49488C27.0973 7.44872 27.1503 7.3944 27.2046 7.34824C27.3132 7.2559 27.4205 7.17172 27.5373 7.09432C27.5984 7.0563 27.6527 7.01692 27.7138 6.98705C27.7763 6.95582 27.8374 6.92459 27.908 6.89336C27.9378 6.87842 27.9772 6.87028 28.0085 6.85534C28.0383 6.8404 28.0777 6.83226 28.1076 6.82411C28.1388 6.81732 28.1782 6.80917 28.2081 6.80103C28.2474 6.79424 28.2787 6.79424 28.3167 6.78609C28.3859 6.77794 28.4552 6.78609 28.5258 6.79424C28.5638 6.80103 28.595 6.80103 28.6331 6.80917C28.6643 6.81732 28.7023 6.82411 28.7335 6.8404L28.834 6.87842L28.9264 6.92459C28.9576 6.93953 28.9888 6.96397 29.0119 6.9789C29.0418 7.00199 29.073 7.01692 29.0961 7.04001L29.1735 7.10926C29.1966 7.13234 29.2197 7.15542 29.2427 7.18665C29.2889 7.23282 29.3364 7.29528 29.3744 7.34145C29.4125 7.39576 29.4518 7.45686 29.4899 7.51118L29.5903 7.6877L29.4749 7.51797C29.4355 7.46501 29.3975 7.4107 29.3514 7.35638C29.3052 7.31022 29.2658 7.2559 29.2129 7.20974C29.1884 7.18665 29.1653 7.16357 29.1355 7.14049L29.0581 7.07938C29.035 7.0563 29.0038 7.04001 28.9725 7.02507C28.9427 7.01013 28.9182 6.98705 28.8883 6.9789C28.8571 6.96397 28.8259 6.94767 28.796 6.93953L28.7023 6.90965C28.6724 6.90151 28.6412 6.89336 28.6018 6.88657C28.572 6.87842 28.5326 6.87842 28.5014 6.87028C28.4321 6.86349 28.371 6.87028 28.3017 6.87842C28.2705 6.87842 28.2393 6.88657 28.2013 6.89336L28.1076 6.91644C28.0777 6.92459 28.0465 6.93274 28.0152 6.94767C27.984 6.95582 27.9541 6.97076 27.9229 6.98705C27.8618 7.01013 27.8075 7.04815 27.745 7.07938C27.6907 7.10926 27.6296 7.14863 27.5753 7.18665C27.468 7.26405 27.3676 7.35638 27.2671 7.44872C27.2209 7.49488 27.1734 7.54105 27.1272 7.59536C27.081 7.64153 27.043 7.69585 27.0037 7.75016L27.0118 7.73387L26.9195 7.94297C26.8882 8.01222 26.857 8.08147 26.819 8.15072C26.7416 8.28243 26.6723 8.42093 26.58 8.55129C26.5338 8.61375 26.4945 8.683 26.4483 8.7441L26.2935 8.92198C26.2704 8.95321 26.2392 8.98308 26.2161 9.00617L26.1319 9.09171L26.0464 9.1759L25.8617 9.3144C25.8305 9.33748 25.7992 9.36192 25.7612 9.385C25.692 9.42302 25.6227 9.46919 25.5521 9.50721L25.3362 9.60769C25.267 9.63892 25.1896 9.662 25.1122 9.68509C25.0348 9.71632 24.9587 9.72311 24.8813 9.74619C24.8039 9.76927 24.7265 9.77742 24.6424 9.78557L24.5256 9.8005L24.4102 9.80865C24.3328 9.80865 24.2486 9.8168 24.1712 9.80865C24.0082 9.80865 23.8548 9.79372 23.7 9.76927L23.4678 9.73125L23.237 9.67694C23.0822 9.63892 22.9355 9.59275 22.7889 9.54659C22.7115 9.5235 22.6423 9.49227 22.5649 9.46919C22.4875 9.44611 22.4182 9.41488 22.349 9.385C22.2797 9.35377 22.2023 9.32254 22.1331 9.29131C22.0625 9.26144 21.9932 9.23021 21.924 9.19219C21.7855 9.12158 21.6456 9.05233 21.5152 8.97629C21.3754 8.8989 21.245 8.8215 21.1133 8.73731C20.9816 8.65177 20.8513 8.56758 20.7195 8.4671C20.6109 8.38156 20.5878 8.22812 20.6652 8.1127C20.7508 8.00408 20.9056 7.98099 21.021 8.05839C21.021 8.03531 21.021 8.0421 21.0291 8.0421Z" fill="white"/>
<path d="M18.1792 14.1877C18.1792 14.1877 18.1955 14.1809 18.2104 14.1646C18.2335 14.1497 18.2647 14.1266 18.3109 14.1035C18.3965 14.0492 18.52 13.9718 18.6816 13.8794C19.0061 13.6948 19.4692 13.4476 20.0639 13.2087C20.6505 12.9778 21.3688 12.7538 22.1563 12.6533C22.5501 12.599 22.967 12.5759 23.3838 12.599C23.4911 12.6071 23.5916 12.6153 23.7002 12.6234C23.8075 12.6384 23.908 12.6465 24.0166 12.6615L24.1714 12.6927L24.2488 12.7076H24.3017L24.3411 12.7158L24.6425 12.7918C25.0594 12.9317 25.4287 13.1313 25.7845 13.3553C25.87 13.4164 25.9542 13.4707 26.0398 13.5332C26.124 13.5943 26.2014 13.6554 26.2869 13.7179L26.4105 13.8102L26.5259 13.9025C26.6033 13.965 26.6807 14.0342 26.7499 14.0953C27.0432 14.3574 27.3134 14.6195 27.5606 14.8747C27.6217 14.9358 27.6841 15.0051 27.7452 15.0676C27.8077 15.1287 27.862 15.1898 27.9231 15.2522C28.0385 15.3758 28.1471 15.4993 28.2476 15.6148C28.4554 15.8456 28.6414 16.0615 28.803 16.2543C28.9659 16.4471 29.1126 16.6169 29.228 16.7554C29.4588 17.0337 29.5905 17.1953 29.5905 17.1953C29.5905 17.1953 29.452 17.0405 29.2049 16.7716C29.0813 16.6399 28.9347 16.4784 28.765 16.2855C28.5952 16.1009 28.4024 15.8918 28.1852 15.6691C28.0779 15.5523 27.9693 15.4369 27.8457 15.3215L27.6678 15.1436C27.6067 15.0825 27.5443 15.0214 27.475 14.9589C27.2211 14.7118 26.9346 14.466 26.6413 14.2189C26.5639 14.1578 26.4865 14.1035 26.4105 14.041L26.2937 13.9487C26.2557 13.9188 26.2163 13.8944 26.1701 13.8645C26.0859 13.8102 26.0085 13.7491 25.923 13.6948L25.6691 13.5332C25.3215 13.3322 24.9508 13.1476 24.5801 13.0389L24.2786 12.9697L24.2406 12.9615L24.2094 12.9547L24.132 12.9466L23.9853 12.9235C23.8849 12.9154 23.7844 12.9086 23.6839 12.8923C23.5848 12.8923 23.4843 12.8855 23.3838 12.8855C22.9819 12.8774 22.5963 12.9154 22.2174 12.9778C21.4693 13.1082 20.789 13.3404 20.2336 13.5861C19.6783 13.8333 19.237 14.0872 18.9369 14.2732C18.7902 14.3655 18.6735 14.4429 18.5961 14.4959C18.558 14.5271 18.5268 14.5421 18.5119 14.5584C18.4969 14.5733 18.4806 14.5814 18.4806 14.5814C18.3734 14.6656 18.2104 14.6425 18.1262 14.5353C18.0407 14.4267 18.0638 14.2651 18.1724 14.1809C18.1792 14.1958 18.1792 14.1958 18.1792 14.1877Z" fill="white"/>
<path d="M15.7242 32.755C15.7242 32.755 15.8097 32.7469 15.9794 32.7238C16.1492 32.7007 16.3963 32.6709 16.7045 32.6084C17.0141 32.5541 17.3916 32.4699 17.8247 32.3613C18.2498 32.254 18.7359 32.1073 19.2451 31.9227C19.7542 31.738 20.3028 31.5058 20.8514 31.2125C21.3986 30.9206 21.9553 30.573 22.4794 30.1412C23.0049 29.7094 23.491 29.2002 23.893 28.6218C24.2949 28.0365 24.6031 27.3807 24.7959 26.6787C24.8883 26.3324 24.9589 25.978 25.005 25.6155C25.043 25.2529 25.0661 24.8986 25.0593 24.536C25.0512 23.8191 24.9426 23.1171 24.7959 22.4463C24.7185 22.115 24.6343 21.7837 24.542 21.4673C24.5026 21.3057 24.4415 21.159 24.3723 21.0124C24.3098 20.8658 24.2324 20.7273 24.1632 20.5874C23.8617 20.0402 23.4679 19.5785 23.0131 19.2771C22.789 19.1304 22.5419 19.0232 22.3029 18.9688C22.0626 18.9064 21.8236 18.8996 21.5996 18.9145C21.1528 18.9539 20.7821 19.0924 20.4956 19.2309C20.4264 19.2689 20.3571 19.3002 20.2947 19.3314C20.2336 19.3626 20.1711 19.4006 20.1181 19.4319C20.0638 19.4617 20.0177 19.493 19.9715 19.5161C19.924 19.5473 19.886 19.5704 19.8547 19.5935C19.7162 19.6939 19.6388 19.7401 19.6388 19.7401C19.6388 19.7401 19.7162 19.6858 19.8547 19.5853C19.8941 19.5622 19.9321 19.531 19.9715 19.5011C20.0177 19.4699 20.0638 19.4387 20.1181 19.4088C20.1711 19.3776 20.2254 19.3382 20.2879 19.3002C20.349 19.2689 20.4182 19.2309 20.4888 19.1929C20.774 19.053 21.1447 18.8996 21.5996 18.8534C21.8236 18.8371 22.0707 18.8303 22.3179 18.8914C22.565 18.9458 22.8203 19.0462 23.0592 19.1997C23.5372 19.493 23.9473 19.9628 24.2718 20.5181C24.3478 20.658 24.4252 20.8033 24.4945 20.9499C24.5257 21.0273 24.5651 21.0966 24.595 21.174L24.6425 21.2894L24.6805 21.413C24.781 21.7293 24.8815 22.0607 24.9589 22.392C25.1204 23.0627 25.244 23.7797 25.2671 24.5129C25.282 24.8755 25.2671 25.2448 25.2359 25.6223C25.1978 25.993 25.1354 26.3637 25.043 26.7249C24.8584 27.4499 24.5488 28.1438 24.1482 28.7684C23.7382 29.3862 23.2439 29.9334 22.7116 30.3883C22.1794 30.8432 21.6077 31.2207 21.0442 31.5371C20.4807 31.8453 19.924 32.0992 19.408 32.3002C18.8825 32.5011 18.3964 32.6627 17.9565 32.7863C17.5152 32.9098 17.1295 33.0022 16.8132 33.0633C16.4886 33.1325 16.2415 33.1719 16.065 33.2018C15.8939 33.2249 15.7948 33.2411 15.7948 33.2411C15.6549 33.2561 15.5313 33.1556 15.5164 33.0171C15.477 32.8935 15.5775 32.77 15.7242 32.755Z" fill="white"/>
<path d="M35.2878 24.0036C35.2878 24.0036 35.2729 24.0185 35.2417 24.0348C35.2104 24.0579 35.1643 24.0959 35.1032 24.1421C34.9877 24.2344 34.8099 24.3811 34.6007 24.5821C34.393 24.783 34.1377 25.0288 33.8757 25.3302C33.6122 25.6303 33.3271 25.9929 33.0718 26.4097C32.8098 26.8252 32.5708 27.3032 32.401 27.8354C32.2313 28.3677 32.1376 28.9611 32.177 29.5708C32.215 30.1791 32.3929 30.7969 32.6794 31.3753C32.7093 31.4514 32.7486 31.522 32.7948 31.5912L32.9184 31.8071L32.9795 31.9144L33.0419 32.023C33.0881 32.0923 33.1261 32.1765 33.1655 32.2539C33.3189 32.5621 33.4425 32.8934 33.5281 33.2247C33.6978 33.8969 33.7209 34.5975 33.6516 35.2683C33.5824 35.9391 33.4194 36.5868 33.2198 37.1883C33.0189 37.7898 32.7717 38.3601 32.5083 38.8774C32.2462 39.4016 31.976 39.8795 31.714 40.3113C31.1803 41.1749 30.6711 41.8538 30.3086 42.3236C29.9461 42.7867 29.7139 43.0406 29.7139 43.0406C29.7139 43.0406 29.9379 42.7867 30.2937 42.3087C30.6481 41.8375 31.1342 41.1437 31.6447 40.2733C31.8986 39.8334 32.1621 39.3554 32.4078 38.8313C32.655 38.3071 32.8871 37.7436 33.0718 37.1421C33.2578 36.5406 33.4045 35.9092 33.4507 35.2534C33.505 34.5975 33.4588 33.9267 33.2809 33.2953C33.1954 32.979 33.0718 32.6707 32.9184 32.3856C32.879 32.315 32.8491 32.2457 32.7948 32.1765L32.6631 31.9606L32.5314 31.7379C32.4852 31.6673 32.4391 31.5912 32.4078 31.5138C32.0915 30.9123 31.8918 30.2497 31.8294 29.5939C31.7751 28.938 31.8606 28.2985 32.0222 27.72C32.1919 27.1416 32.4391 26.6324 32.7025 26.1857C32.9645 25.7389 33.2497 25.3533 33.5199 25.0288C33.7901 24.7056 34.0454 24.4436 34.2613 24.2277C34.4772 24.0185 34.6551 23.857 34.7786 23.7565C34.8411 23.7035 34.8873 23.6641 34.9253 23.6411C34.9565 23.618 34.9796 23.603 34.9796 23.603C35.0869 23.5175 35.2498 23.5338 35.334 23.6492C35.4195 23.7646 35.4046 23.9194 35.2878 24.0036C35.296 23.9955 35.296 23.9955 35.2878 24.0036Z" fill="white"/>
<path d="M24.5649 16.7009C24.5649 16.7009 24.6491 16.9019 24.7958 17.2644C24.8352 17.3568 24.8732 17.4491 24.9193 17.5577C24.9655 17.665 25.0198 17.7736 25.0823 17.8972C25.1352 18.0194 25.1977 18.1511 25.2669 18.2828C25.3294 18.4213 25.4136 18.5517 25.491 18.6983C25.5684 18.845 25.6458 18.9998 25.7381 19.1532C25.8305 19.308 25.9228 19.4614 26.0233 19.6244C26.0464 19.6624 26.0694 19.7086 26.1007 19.7466C26.1319 19.786 26.155 19.824 26.1862 19.8633C26.2392 19.9394 26.2935 20.0249 26.3559 20.1023C26.4103 20.1865 26.4714 20.2639 26.5257 20.3481C26.5868 20.4255 26.6492 20.511 26.7103 20.5871C26.7728 20.6726 26.8339 20.75 26.9031 20.8342C26.9656 20.9198 27.043 20.9958 27.1123 21.0732C27.1815 21.1506 27.2508 21.2348 27.3214 21.3122C27.3512 21.3515 27.3906 21.3896 27.4286 21.4276L27.5441 21.5444L27.7762 21.7752C27.8536 21.8526 27.9378 21.9218 28.0234 21.9911C28.1076 22.0603 28.185 22.1377 28.2705 22.207L28.5326 22.4079C28.7023 22.5464 28.8883 22.6537 29.0662 22.7773C29.1124 22.8085 29.1585 22.8397 29.2047 22.8628L29.3432 22.9389L29.4831 23.0163C29.5292 23.0475 29.5754 23.0706 29.6216 23.0937C29.8144 23.186 30.0004 23.2865 30.2 23.3557C30.3928 23.4399 30.587 23.5024 30.7798 23.5635C30.8721 23.5947 30.9726 23.6178 31.0731 23.649C31.1654 23.6721 31.2659 23.7033 31.3582 23.7183C31.4506 23.7414 31.5511 23.7563 31.6447 23.7794C31.7371 23.7957 31.8294 23.8106 31.9217 23.8187C32.2924 23.8649 32.64 23.8948 32.9646 23.888C33.2891 23.888 33.5824 23.8649 33.8444 23.8255C34.1065 23.7957 34.3306 23.7495 34.5084 23.7101C34.6945 23.6721 34.833 23.6259 34.9253 23.6029C34.9715 23.5866 35.0108 23.5798 35.0258 23.5716C35.0489 23.5635 35.057 23.5635 35.057 23.5635H35.0638C35.1955 23.5173 35.3422 23.5866 35.3883 23.7183C35.4345 23.8486 35.3652 23.9953 35.2349 24.0414H35.2267C35.2267 24.0414 35.2104 24.0496 35.1806 24.0577C35.1493 24.0645 35.1113 24.0808 35.057 24.0957C34.9484 24.127 34.7936 24.165 34.6008 24.2044C34.3998 24.2424 34.1608 24.2804 33.8838 24.3035C33.6055 24.3347 33.2959 24.3429 32.9496 24.3347C32.6088 24.3266 32.2381 24.2886 31.8525 24.2275C31.7602 24.2112 31.6597 24.1881 31.5592 24.1731C31.4587 24.1501 31.3664 24.127 31.2659 24.1039C31.1654 24.0808 31.0649 24.0496 30.9645 24.0184C30.864 23.9885 30.7635 23.9572 30.663 23.9192C30.4634 23.8418 30.2625 23.7726 30.0615 23.6789C29.8605 23.5947 29.6677 23.4874 29.4668 23.387C29.4206 23.3639 29.3663 23.3326 29.3201 23.3014L29.1816 23.2172L29.0418 23.1317L28.9033 23.0393C28.7254 22.909 28.5326 22.7854 28.3628 22.6388L28.1008 22.4229C28.0152 22.3455 27.9378 22.2681 27.8536 22.1921C27.7762 22.1147 27.6907 22.0373 27.6147 21.9599C27.5373 21.8825 27.4599 21.7983 27.3906 21.7209L27.2738 21.5973C27.2358 21.5593 27.1978 21.5213 27.1666 21.4738L26.9575 21.2198C26.8882 21.1356 26.819 21.0583 26.7565 20.9727L26.3872 20.4649C26.3329 20.3793 26.2785 20.2951 26.2242 20.2096C26.1699 20.1254 26.117 20.0399 26.0626 19.9557C26.0396 19.9163 26.0083 19.8701 25.9852 19.8321C25.9622 19.7941 25.9391 19.7466 25.916 19.7086C25.8223 19.5388 25.73 19.3772 25.6458 19.2224C25.5602 19.069 25.4828 18.9074 25.4136 18.7608C25.3443 18.6141 25.2669 18.4675 25.2058 18.329C25.1434 18.1891 25.0891 18.0588 25.0361 17.9352C24.9818 17.8116 24.9356 17.6962 24.8881 17.5876C24.8501 17.4803 24.8121 17.3798 24.7727 17.2875C24.6423 16.91 24.5649 16.7009 24.5649 16.7009Z" fill="white"/>
<path d="M24.1404 44.0195C24.1404 44.0195 24.1717 43.9964 24.2328 43.9665C24.2952 43.9272 24.3794 43.8728 24.488 43.7968C24.7121 43.642 25.0203 43.418 25.3761 43.126C25.7305 42.8327 26.1324 42.4702 26.518 42.0465C26.9036 41.6215 27.2825 41.1286 27.5758 40.5964C27.7224 40.3262 27.846 40.0492 27.9383 39.764C28.032 39.4789 28.0931 39.1856 28.1243 38.9004C28.1854 38.3301 28.0782 37.7816 27.9234 37.3498C27.846 37.1339 27.7455 36.9424 27.6532 36.7727C27.5608 36.6097 27.4685 36.4712 27.3911 36.3558C27.3517 36.3015 27.3137 36.2472 27.2825 36.2092C27.2512 36.1712 27.2214 36.1318 27.1983 36.1019C27.1508 36.0476 27.1277 36.0164 27.1277 36.0164C27.1277 36.0164 27.1508 36.0476 27.2051 36.1019C27.2282 36.1318 27.2594 36.163 27.2974 36.201C27.3286 36.2404 27.368 36.2947 27.4142 36.3477C27.4984 36.4563 27.5989 36.5948 27.6993 36.7496C27.7998 36.9112 27.9084 37.104 28.0008 37.3199C28.0931 37.5358 28.1705 37.7816 28.2248 38.0518C28.2791 38.322 28.3022 38.6071 28.2859 38.9086C28.271 39.2087 28.2248 39.5169 28.1393 39.8183C28.0551 40.1184 27.9383 40.4198 27.7998 40.705C27.5215 41.2834 27.1589 41.8076 26.7733 42.2692C26.3944 42.7323 26.0007 43.126 25.6463 43.4492C25.2905 43.7737 24.9823 44.0195 24.765 44.1892C24.6578 44.2748 24.5654 44.3359 24.503 44.382C24.4419 44.4282 24.4025 44.4513 24.4025 44.4513C24.2871 44.5287 24.1323 44.5056 24.0549 44.3902C23.9788 44.2748 24.0019 44.12 24.1173 44.0426L24.1404 44.0195Z" fill="white"/>
<path d="M24.0476 34.9746L24.1087 34.8524C24.1481 34.775 24.2011 34.6596 24.2785 34.513C24.4333 34.2278 24.6654 33.8259 25.0198 33.3941C25.1977 33.1782 25.3987 32.9474 25.6526 32.7396C25.8997 32.5305 26.193 32.3309 26.5488 32.2155C26.8964 32.0987 27.297 32.0756 27.6676 32.1843C28.0383 32.2847 28.3629 32.4925 28.648 32.7396C28.9345 32.9854 29.1735 33.2638 29.3894 33.5489C29.6066 33.834 29.7995 34.1273 29.961 34.4356C30.1226 34.7357 30.2462 35.0452 30.3467 35.3372C30.3928 35.4838 30.4404 35.6305 30.4784 35.769C30.5164 35.9088 30.5476 36.0473 30.5789 36.1777C30.6481 36.433 30.7567 36.6556 30.8952 36.8254C31.0269 36.9951 31.1967 37.0956 31.3433 37.1499C31.4126 37.1811 31.49 37.1879 31.5443 37.1961C31.6054 37.1961 31.6597 37.2042 31.6977 37.2042C31.7833 37.1961 31.8294 37.1961 31.8294 37.1961C31.8294 37.1961 31.7833 37.2042 31.6977 37.211C31.6597 37.2192 31.6054 37.211 31.5443 37.211C31.4818 37.2042 31.4126 37.1961 31.3352 37.173C31.1804 37.1268 31.0039 37.0345 30.8572 36.8648C30.7106 36.695 30.587 36.471 30.5015 36.2089C30.4553 36.0786 30.4241 35.9469 30.3779 35.8084C30.3317 35.6699 30.2856 35.53 30.2313 35.3833C30.1226 35.0982 29.9841 34.8063 29.8225 34.5198C29.6596 34.2346 29.4519 33.9576 29.2278 33.6806C29.0038 33.4104 28.7648 33.1551 28.4864 32.9392C28.2162 32.7233 27.908 32.5536 27.5916 32.4843C27.2739 32.4083 26.9507 32.4382 26.6642 32.5536C26.379 32.6704 26.1238 32.8469 25.9079 33.0479C25.692 33.2488 25.5141 33.4647 25.3593 33.6725C25.0511 34.088 24.842 34.4817 24.7116 34.7519C24.6424 34.8904 24.5948 34.9991 24.565 35.0751C24.5337 35.1444 24.5188 35.1837 24.5188 35.1837C24.4645 35.3141 24.3178 35.3766 24.1861 35.3222C24.0544 35.253 23.9933 35.1063 24.0476 34.9746Z" fill="white"/>
<path d="M24.4712 27.5732C24.4712 27.5732 24.4943 27.5583 24.5336 27.527C24.5716 27.4958 24.6341 27.4578 24.7183 27.4035C24.7957 27.3492 24.8962 27.2962 25.0116 27.227C25.1284 27.1645 25.2587 27.0871 25.4054 27.0178C25.552 26.9486 25.715 26.8793 25.8847 26.8101C26.0626 26.749 26.2472 26.6865 26.4482 26.6322C26.6492 26.586 26.8569 26.548 27.0742 26.5399C27.1814 26.5331 27.2901 26.5399 27.3973 26.5399C27.506 26.5562 27.6146 26.5562 27.7218 26.586C27.8305 26.6023 27.931 26.6404 28.0382 26.6784C28.0925 26.6947 28.1387 26.7245 28.1849 26.7408C28.231 26.7639 28.2854 26.787 28.3315 26.8182C28.3777 26.8481 28.4252 26.8712 28.4714 26.9024C28.5175 26.9337 28.5556 26.9649 28.5949 26.9948C28.6791 27.0572 28.7484 27.1333 28.8258 27.2039L28.8801 27.2568L28.9263 27.3193L29.0186 27.4347C29.0498 27.4727 29.0729 27.5121 29.1041 27.5501C29.1272 27.5881 29.1584 27.6275 29.1815 27.6655C29.1965 27.6886 29.2046 27.7049 29.2196 27.7198C29.2277 27.7429 29.2426 27.7579 29.2508 27.781C29.2739 27.8203 29.2888 27.8583 29.3119 27.8977C29.3363 27.9357 29.3513 27.9738 29.3743 28.0131L29.4205 28.1286C29.4517 28.206 29.483 28.2752 29.5061 28.3363C29.5291 28.4056 29.5522 28.468 29.5672 28.5291C29.5902 28.5916 29.6065 28.6445 29.6215 28.6989C29.6364 28.7532 29.6446 28.7993 29.6595 28.8455C29.7057 29.0234 29.7301 29.1306 29.7301 29.1306C29.7301 29.1306 29.6989 29.0302 29.6446 28.8536C29.6296 28.8075 29.6215 28.7613 29.5984 28.707C29.5753 28.6527 29.559 28.5984 29.5359 28.5373C29.5128 28.4762 29.4898 28.4137 29.4667 28.3445C29.4354 28.2834 29.4056 28.2127 29.3743 28.1367C29.3594 28.0973 29.3431 28.0675 29.32 28.0281C29.2969 27.9901 29.282 27.9588 29.2589 27.9208C29.2358 27.8814 29.2128 27.8434 29.1965 27.804C29.1883 27.7891 29.1734 27.766 29.1652 27.7511C29.1503 27.7348 29.1422 27.7117 29.1272 27.6968C29.1041 27.6587 29.0729 27.6194 29.0498 27.5881C29.0267 27.5501 28.9955 27.5121 28.9656 27.4809C28.9344 27.4428 28.9032 27.4116 28.8719 27.3722L28.8258 27.3193C28.8108 27.303 28.7878 27.2881 28.7715 27.2731C28.7022 27.2107 28.633 27.1414 28.5488 27.0871C28.5094 27.0572 28.4714 27.026 28.4252 27.0029C28.3777 26.9798 28.3397 26.9567 28.2935 26.9337C28.2473 26.9106 28.2012 26.8875 28.155 26.8712C28.1075 26.8563 28.0613 26.8332 28.0151 26.8182C27.9147 26.7952 27.8223 26.7639 27.7137 26.749C27.6146 26.7245 27.5141 26.7245 27.4136 26.7178C27.3131 26.7178 27.2127 26.7178 27.1122 26.7327C26.9112 26.749 26.7184 26.7952 26.5337 26.8481C26.3477 26.9024 26.1698 26.9717 26.0082 27.0409C25.8467 27.1102 25.6919 27.1876 25.5602 27.265C25.4217 27.3342 25.2981 27.4116 25.1976 27.4809C25.089 27.5501 24.9967 27.6126 24.9274 27.6655C24.85 27.7198 24.7957 27.7579 24.7577 27.7891C24.7183 27.8203 24.7034 27.8353 24.7034 27.8353C24.6341 27.8896 24.5418 27.8746 24.4875 27.8122C24.387 27.728 24.3951 27.6275 24.4712 27.5732C24.4644 27.5732 24.4712 27.5732 24.4712 27.5732Z" fill="white"/>
<path d="M28.564 20.0626C28.564 20.0626 28.6332 20.0708 28.7717 20.0789C28.9116 20.0857 29.1044 20.0857 29.3597 20.0477C29.6068 20.0096 29.9069 19.939 30.2233 19.7856C30.541 19.6308 30.8492 19.3769 31.0882 19.0225C31.3353 18.6667 31.482 18.22 31.5594 17.7339C31.6286 17.2492 31.6368 16.7237 31.5743 16.1927C31.5675 16.061 31.5444 15.9225 31.5214 15.7908C31.4983 15.6523 31.482 15.522 31.4589 15.3821C31.4358 15.2436 31.4046 15.1133 31.3815 14.9734C31.3516 14.8349 31.3122 14.7046 31.281 14.5661C31.1507 14.0175 30.9728 13.4703 30.7868 12.9231C30.6944 12.6528 30.5872 12.3826 30.4935 12.1138L30.4554 12.0133C30.4405 11.9821 30.4324 11.9441 30.4174 11.9047C30.393 11.8286 30.3699 11.7594 30.355 11.6888C30.3169 11.5435 30.2939 11.3968 30.2857 11.242C30.2626 10.942 30.2857 10.6405 30.3631 10.3472L30.378 10.2943L30.3862 10.2712L30.4011 10.24C30.4174 10.2087 30.4242 10.1775 30.4405 10.1395C30.4785 10.0553 30.5165 9.99283 30.5641 9.93173C30.6564 9.80817 30.7637 9.69954 30.8872 9.6072C31.1276 9.43068 31.4127 9.31391 31.706 9.27589C31.9912 9.23787 32.2858 9.26774 32.5397 9.35329C32.8018 9.43068 33.034 9.55289 33.2431 9.69275C33.4508 9.83125 33.6287 9.99283 33.7903 10.1476C34.1148 10.4708 34.362 10.8021 34.5548 11.1035C34.6091 11.1809 34.6471 11.257 34.6946 11.3276C34.7408 11.3968 34.7788 11.4661 34.8168 11.5353C34.8942 11.6738 34.9648 11.7974 35.0178 11.9128C35.0721 12.0282 35.1264 12.1287 35.1726 12.2211C35.2106 12.3134 35.25 12.3908 35.2812 12.4532C35.3342 12.5755 35.3654 12.6461 35.3654 12.6461C35.4197 12.7683 35.3654 12.9231 35.2418 12.9774C35.1183 13.0303 34.9648 12.9774 34.9105 12.8538V12.8389C34.9105 12.8389 34.8793 12.7764 34.8331 12.6528C34.8101 12.5917 34.7788 12.5143 34.7408 12.4302C34.7014 12.3446 34.6553 12.2441 34.6009 12.1287C34.5466 12.0133 34.4855 11.8979 34.4163 11.7662C34.385 11.6969 34.3389 11.6358 34.3009 11.5666C34.2615 11.496 34.2235 11.4267 34.1773 11.3507C33.9994 11.0574 33.7754 10.741 33.497 10.4409C33.3585 10.2943 33.1956 10.1476 33.0191 10.0241C32.8412 9.9005 32.6402 9.79323 32.4325 9.72262C32.2152 9.65337 31.9912 9.61535 31.7603 9.64658C31.5281 9.66967 31.2973 9.75385 31.1045 9.89235C31.004 9.9616 30.9185 10.0471 30.8411 10.1395C30.8031 10.1856 30.7718 10.24 30.7487 10.278C30.7338 10.2943 30.7257 10.3404 30.7107 10.3635L30.7026 10.3785V10.3866L30.6944 10.4097L30.6646 10.4409C30.5872 10.6867 30.5641 10.9569 30.579 11.2271C30.5872 11.3575 30.6021 11.496 30.6333 11.6277C30.6483 11.6969 30.6646 11.7594 30.6795 11.8205C30.6876 11.8517 30.7026 11.8897 30.7107 11.921L30.7406 12.0215C30.8343 12.2985 30.9266 12.5687 31.0189 12.8457C31.1887 13.401 31.3516 13.9645 31.467 14.5185C31.4983 14.6584 31.5281 14.7969 31.5512 14.9354L31.6218 15.3522C31.6449 15.4907 31.6599 15.6292 31.6748 15.7677C31.6911 15.9076 31.7142 16.0461 31.7142 16.1765C31.7603 16.7237 31.7372 17.2559 31.6517 17.7502C31.5594 18.2431 31.3978 18.7061 31.1344 19.0605C30.8804 19.4149 30.5478 19.677 30.2233 19.8236C29.9001 19.9784 29.5905 20.0395 29.3434 20.0708C29.0895 20.102 28.8885 20.0938 28.7568 20.0857C28.6332 20.0789 28.564 20.0626 28.564 20.0626Z" fill="white"/>
<path d="M17.8331 36.1481C17.8331 36.1481 17.8562 36.14 17.8861 36.1318C17.9255 36.125 17.9798 36.1087 18.049 36.0938C18.1875 36.0626 18.3804 36.0245 18.6125 35.9852C18.8434 35.9471 19.1217 35.9091 19.415 35.8928C19.5617 35.886 19.7165 35.8779 19.8713 35.8698C20.0247 35.8698 20.1876 35.8698 20.3411 35.8779C20.504 35.8928 20.6588 35.9091 20.8123 35.939C20.967 35.9621 21.1137 36.0083 21.2603 36.0544C21.3296 36.0789 21.3988 36.1087 21.4613 36.14L21.5998 36.2092L21.646 36.2404C21.6772 36.2554 21.7003 36.2785 21.7315 36.2948C21.7627 36.3097 21.7858 36.3328 21.8089 36.3559C21.832 36.3789 21.8551 36.3939 21.8782 36.417C21.9012 36.44 21.9162 36.4631 21.9393 36.4862C21.9637 36.5107 21.9786 36.5256 21.9936 36.5568L22.0397 36.6261L22.0873 36.6953C22.0941 36.7184 22.1104 36.7415 22.1171 36.7646C22.1633 36.8488 22.1864 36.9343 22.2095 36.9954C22.2258 37.0579 22.2339 37.1108 22.2407 37.1502C22.2489 37.1882 22.2489 37.2045 22.2489 37.2045C22.2489 37.2045 22.2407 37.1882 22.2339 37.1502C22.2258 37.119 22.2095 37.0647 22.1864 37.0036C22.1565 36.9424 22.1334 36.8651 22.0791 36.7877C22.0628 36.7646 22.056 36.7496 22.0397 36.7266C22.0248 36.7021 22.0099 36.6872 21.9936 36.6641C21.9786 36.641 21.9637 36.6261 21.9393 36.603C21.9243 36.5799 21.9012 36.5636 21.8782 36.5487C21.8551 36.5337 21.8401 36.5107 21.8157 36.4944C21.7926 36.4794 21.7695 36.4631 21.7465 36.44C21.7234 36.4251 21.7003 36.402 21.6691 36.3871C21.6392 36.3708 21.6161 36.3559 21.5849 36.3409L21.5387 36.3178L21.4925 36.3015C21.4613 36.2866 21.4301 36.2785 21.3988 36.2635C21.3377 36.2404 21.2685 36.2241 21.1992 36.2011C21.0594 36.1712 20.9209 36.1481 20.7742 36.1318C20.6276 36.1169 20.4728 36.1169 20.3261 36.125C20.1714 36.1318 20.0247 36.14 19.8781 36.163C19.7314 36.178 19.5848 36.2011 19.4463 36.2241C19.1679 36.2703 18.9058 36.3328 18.6899 36.3939C18.474 36.4563 18.288 36.5107 18.1645 36.5487C18.1034 36.5718 18.0558 36.5867 18.0178 36.5948C17.9866 36.6098 17.9716 36.6098 17.9716 36.6098C17.8399 36.6559 17.6933 36.5867 17.6471 36.4563C17.601 36.3246 17.6702 36.178 17.8019 36.1318C17.8168 36.1481 17.825 36.1481 17.8331 36.1481Z" fill="white"/>
<path d="M15.8938 22.2152L15.9101 22.1989C15.925 22.184 15.9413 22.169 15.9644 22.1527C16.0106 22.1147 16.0798 22.0685 16.1722 22.0224C16.2645 21.9762 16.3881 21.9219 16.551 21.8988C16.7044 21.8757 16.9054 21.8988 17.0751 21.983C17.1607 22.0224 17.2381 22.0835 17.3155 22.1446L17.416 22.2451C17.439 22.2682 17.4689 22.3075 17.492 22.3306C17.6006 22.4379 17.7391 22.5465 17.879 22.6538C18.1723 22.8629 18.5117 23.0557 18.8743 23.201C19.2368 23.3476 19.6157 23.44 19.9782 23.4332C20.1561 23.4332 20.334 23.4101 20.4888 23.3558C20.6422 23.3015 20.7888 23.2322 20.9056 23.148C20.9667 23.1087 21.021 23.0625 21.0672 23.0163C21.1134 22.9702 21.1595 22.924 21.1989 22.8778C21.2369 22.8317 21.2749 22.7855 21.3062 22.7461C21.3374 22.6999 21.3605 22.6619 21.3836 22.6239C21.4067 22.5845 21.4297 22.5533 21.446 22.5234C21.461 22.4922 21.4759 22.4691 21.4841 22.446C21.5071 22.408 21.5153 22.3849 21.5153 22.3849C21.5153 22.3849 21.5071 22.408 21.4841 22.446C21.4759 22.4691 21.461 22.4922 21.446 22.5234C21.4297 22.5533 21.4148 22.5927 21.3917 22.6307C21.3686 22.6701 21.3456 22.7081 21.3225 22.7624C21.2912 22.8086 21.26 22.8547 21.222 22.9009C21.1826 22.9471 21.1364 23.0014 21.0984 23.0557C21.0523 23.1019 20.9979 23.1548 20.9355 23.201C20.8201 23.3015 20.6734 23.387 20.5118 23.4563C20.3489 23.5255 20.1642 23.5635 19.9714 23.5798C19.7772 23.5948 19.5776 23.5866 19.3767 23.5635C19.1757 23.5337 18.9748 23.4875 18.7738 23.425C18.38 23.3015 18.0025 23.1317 17.6699 22.9321C17.5001 22.8317 17.3535 22.723 17.1987 22.6008C17.1607 22.5614 17.1376 22.5465 17.0982 22.5071C17.0751 22.484 17.0453 22.461 17.0222 22.4379C16.9679 22.3999 16.9217 22.3686 16.8674 22.3537C16.7669 22.3143 16.6814 22.3143 16.5972 22.3306C16.5116 22.3455 16.4424 22.3849 16.3881 22.4229C16.3351 22.461 16.2876 22.4922 16.2645 22.5234L16.2346 22.5533V22.5614C16.1409 22.6619 15.9794 22.6701 15.8789 22.5696C15.7784 22.4773 15.7702 22.3143 15.8707 22.2152C15.887 22.222 15.8938 22.2152 15.8938 22.2152Z" fill="white"/>
<path d="M35.8743 3.32342C35.8743 3.32342 39.9669 -1.90428 43.4946 3.32342C43.4946 3.32342 49.4243 1.78906 49.5628 8.24289C49.5628 8.24289 53.2303 9.77726 52.1033 14.3966C52.1033 14.3966 55.7708 17.1639 54.3573 22.3916C54.3573 22.3916 58.8124 26.085 54.6818 33.0018C54.6818 33.0018 54.9521 35.947 52.5283 36.3869C52.5283 36.3869 53.3389 43.1558 46.1587 44.2285C46.1587 44.2285 44.3215 50.2274 35.2959 43.149V4.1327L35.8743 3.32342Z" fill="#20B486"/>
<path d="M35.8743 3.32342C35.8743 3.32342 39.9669 -1.90427 43.4946 3.32342C43.4946 3.32342 49.4243 1.78906 49.5628 8.24288C49.5628 8.24288 53.2303 9.77724 52.1033 14.3966C52.1033 14.3966 55.7708 17.1639 54.3573 22.3916C54.3573 22.3916 58.8124 26.0849 54.6818 33.0018C54.6818 33.0018 54.9521 35.9469 52.5283 36.3869C52.5283 36.3869 53.3389 43.1557 46.1587 44.2284C46.1587 44.2284 44.3215 50.2273 35.2959 43.1489V4.13269L35.8743 3.32342Z" stroke="white" stroke-width="1.00592" stroke-miterlimit="10"/>
<path d="M43.7416 3.37789C43.7416 3.37789 43.7348 3.42406 43.7118 3.49331C43.6887 3.5707 43.6574 3.67118 43.6031 3.80154C43.4945 4.0636 43.318 4.43429 43.0084 4.81177C42.8536 4.99644 42.6608 5.18925 42.4367 5.35219C42.2059 5.51378 41.9438 5.65228 41.6492 5.73782C41.3559 5.83016 41.0477 5.86818 40.7313 5.86818C40.4149 5.86818 40.1053 5.82201 39.7971 5.74461L39.573 5.69166C39.4956 5.67536 39.4264 5.65228 39.3571 5.64413C39.2879 5.63734 39.2173 5.62105 39.1412 5.61426C39.0706 5.60611 38.9946 5.59796 38.924 5.59796C38.6388 5.58303 38.3456 5.62105 38.0903 5.71474C37.8282 5.80707 37.6042 5.95372 37.4195 6.13024C37.2335 6.30812 37.1031 6.50772 36.9945 6.70868C36.8859 6.90964 36.8166 7.10246 36.7623 7.27898C36.7093 7.45685 36.6781 7.61029 36.655 7.742C36.6089 8.00406 36.6089 8.15886 36.6089 8.15886C36.6089 8.15886 36.6007 8.00406 36.632 7.742C36.6469 7.61029 36.67 7.44871 36.7161 7.26404C36.7623 7.07937 36.8248 6.87841 36.9171 6.67066C37.0176 6.46155 37.1493 6.23887 37.3258 6.04605C37.5118 5.85324 37.7508 5.67536 38.021 5.56809C38.2994 5.45267 38.6076 5.39836 38.9172 5.39836C38.9946 5.39836 39.0706 5.39836 39.148 5.40515C39.2254 5.40515 39.3028 5.42144 39.3884 5.42823C39.4644 5.43638 39.5418 5.45267 39.6192 5.45946L39.8433 5.49884C40.4217 5.61426 41.0246 5.59796 41.5256 5.4133C41.7728 5.32096 42.0049 5.1974 42.1896 5.04396C42.3838 4.88917 42.5372 4.71944 42.6608 4.54971C42.9161 4.20346 43.0546 3.87079 43.1401 3.63181C43.1781 3.51639 43.2094 3.41591 43.2243 3.35481C43.2406 3.28556 43.2474 3.26247 43.2474 3.26247C43.2786 3.12397 43.4103 3.03843 43.5488 3.06966C43.6887 3.10768 43.7729 3.23939 43.7416 3.37789Z" fill="white"/>
<path d="M49.7175 8.44358C49.5871 8.54407 49.4636 8.62825 49.3237 8.7138C49.1933 8.79798 49.0616 8.87538 48.9231 8.95278C48.7833 9.02882 48.6529 9.09807 48.5131 9.16867C48.4438 9.20669 48.3746 9.23792 48.3053 9.2678C48.2361 9.29903 48.1655 9.33026 48.0881 9.36149C48.0188 9.39136 47.9414 9.42259 47.8722 9.44567C47.8029 9.4769 47.7255 9.49999 47.6481 9.52307C47.5015 9.57738 47.348 9.6154 47.2014 9.65342L46.9692 9.70774L46.737 9.74576C46.5836 9.76884 46.4206 9.78514 46.2672 9.78514C46.1898 9.79328 46.1043 9.78514 46.0269 9.78514L45.9114 9.77699L45.796 9.76205C45.7186 9.7539 45.6412 9.74576 45.557 9.72267C45.4796 9.69959 45.4022 9.6928 45.3249 9.66157C45.2475 9.63849 45.1701 9.6154 45.1008 9.58417L44.8849 9.48369C44.8157 9.44567 44.7464 9.39951 44.6758 9.36149C44.6378 9.33705 44.6066 9.31396 44.5753 9.29088L44.3907 9.15238L44.3051 9.06819L44.2209 8.98265C44.1897 8.95957 44.1666 8.92969 44.1435 8.89846L43.9887 8.72059C43.9426 8.65948 43.8964 8.59702 43.8584 8.52777C43.7647 8.40421 43.6954 8.26571 43.618 8.12721C43.58 8.05796 43.5488 7.98871 43.5176 7.91946L43.4252 7.71035L43.4334 7.72664C43.394 7.67233 43.3478 7.62616 43.3098 7.57185C43.2636 7.52568 43.2175 7.47137 43.1713 7.4252C43.0776 7.33287 42.9703 7.24053 42.8617 7.16314C42.8074 7.12512 42.7545 7.08574 42.692 7.05587C42.6377 7.02464 42.5766 6.98662 42.5141 6.96353C42.4842 6.94724 42.453 6.93909 42.4218 6.92416C42.3905 6.90922 42.3607 6.90107 42.3294 6.89293L42.2371 6.86984C42.2059 6.86305 42.1747 6.85491 42.1366 6.85491C42.0742 6.84676 42.0049 6.84676 41.9357 6.84676C41.9044 6.85491 41.8664 6.85491 41.8352 6.86305C41.804 6.86984 41.7727 6.87799 41.7347 6.88614L41.6424 6.91601C41.6111 6.9323 41.5799 6.94724 41.55 6.95539C41.5188 6.97032 41.4876 6.98662 41.4645 7.00155C41.4333 7.01649 41.4034 7.03278 41.379 7.05587L41.3029 7.11697C41.2798 7.14005 41.2567 7.16314 41.2255 7.18622C41.1712 7.23239 41.1332 7.2867 41.0857 7.33287C41.0395 7.38718 41.0015 7.4415 40.9621 7.49445L40.8467 7.66418L40.9472 7.48766C40.9865 7.43335 41.0246 7.37089 41.0626 7.31793C41.1087 7.26362 41.1481 7.2093 41.1943 7.16314C41.2174 7.14005 41.2405 7.11697 41.2635 7.08574L41.3409 7.01649C41.364 6.99341 41.3952 6.97847 41.4265 6.95539C41.4564 6.9323 41.4794 6.91601 41.5107 6.90107L41.603 6.85491L41.7035 6.81689C41.7347 6.80874 41.7727 6.80059 41.804 6.78566C41.8352 6.77751 41.8732 6.77072 41.9126 6.77072C41.9818 6.76257 42.0511 6.76257 42.1203 6.76257C42.1597 6.76257 42.1909 6.77072 42.229 6.77751C42.267 6.78566 42.2982 6.7938 42.3294 6.80059C42.3607 6.80874 42.3987 6.81689 42.4299 6.83182C42.4612 6.83997 42.4992 6.85491 42.5304 6.86984C42.5997 6.89293 42.6608 6.92416 42.7232 6.96353C42.7843 6.99341 42.8468 7.03278 42.9011 7.0708C43.0165 7.1482 43.1238 7.23239 43.2324 7.32472C43.2867 7.37089 43.3329 7.41841 43.3872 7.47137C43.4334 7.51753 43.4795 7.57185 43.5339 7.62616L43.5488 7.6411L43.6493 7.84206C43.6886 7.90316 43.7117 7.97241 43.7579 8.03487C43.8353 8.15844 43.9113 8.28879 44.005 8.40421C44.0512 8.45852 44.0892 8.52098 44.1435 8.57394L44.2902 8.73688C44.3133 8.76675 44.3445 8.78984 44.3676 8.81292L44.4518 8.88217L44.5373 8.95278C44.5685 8.97586 44.5984 8.9908 44.6228 9.01388L44.707 9.07498C44.7383 9.09807 44.7695 9.11436 44.7994 9.1293L44.9854 9.22978L45.1864 9.30717C45.2556 9.33026 45.3249 9.34519 45.3941 9.36828C45.4634 9.39136 45.5326 9.39951 45.6032 9.41444C45.6725 9.43074 45.7417 9.43753 45.8191 9.43753L45.9264 9.44567H46.035C46.1043 9.44567 46.1817 9.44567 46.2509 9.43753C46.3975 9.43074 46.5374 9.40765 46.6841 9.38457L46.9 9.33705L47.1077 9.27594C47.2476 9.22978 47.3861 9.18361 47.5246 9.1293C47.5952 9.10621 47.6644 9.07498 47.7255 9.04511C47.7948 9.01388 47.8572 8.98265 47.9265 8.95278C47.9957 8.92155 48.0582 8.89032 48.1274 8.8523C48.1885 8.82107 48.2592 8.78305 48.3203 8.75182C48.452 8.68257 48.5755 8.60517 48.6991 8.52777C48.8227 8.45037 48.9462 8.36619 49.0616 8.282C49.1771 8.19646 49.3006 8.11227 49.4092 8.01858C49.5165 7.93439 49.6713 7.94933 49.7636 8.04981C49.8492 8.15844 49.8329 8.31187 49.7338 8.40421C49.7256 8.43544 49.7256 8.43544 49.7175 8.44358Z" fill="white"/>
<path d="M51.9566 14.5964C51.9566 14.5964 51.9484 14.5897 51.9253 14.5734C51.9023 14.5584 51.8792 14.5421 51.8411 14.5123C51.7638 14.4579 51.6483 14.3805 51.5017 14.2882C51.2002 14.1035 50.7603 13.8415 50.2036 13.6025C49.6482 13.3554 48.9693 13.1245 48.2198 12.9928C47.8491 12.9317 47.4553 12.8924 47.0547 12.9005C46.9543 12.9005 46.8538 12.9086 46.7533 12.9086C46.6528 12.9154 46.5523 12.9236 46.4519 12.9385L46.3052 12.9616L46.2278 12.9697L46.1966 12.9779L46.1586 12.9847L45.8571 13.0553C45.4864 13.1626 45.109 13.3404 44.7695 13.5482L44.5142 13.7098C44.4287 13.7641 44.3526 13.8252 44.2671 13.8795C44.2291 13.9107 44.1897 13.9338 44.1435 13.965L44.0281 14.0574C43.9507 14.1185 43.8733 14.1809 43.7959 14.2339C43.5026 14.481 43.2175 14.7282 42.9622 14.9739C42.9011 15.0364 42.8305 15.0975 42.7694 15.16L42.5915 15.3365C42.4761 15.4532 42.3607 15.5687 42.252 15.6841C42.0362 15.9081 41.8433 16.1159 41.6736 16.3005C41.5025 16.4852 41.3559 16.6481 41.2323 16.7866C40.9852 17.0569 40.8467 17.2103 40.8467 17.2103C40.8467 17.2103 40.9784 17.0487 41.2092 16.7717C41.326 16.6319 41.4726 16.4621 41.6342 16.2693C41.7972 16.0765 41.9818 15.8606 42.1896 15.6298C42.2901 15.5143 42.3987 15.3908 42.5141 15.2672C42.5684 15.2061 42.6309 15.1437 42.692 15.0826C42.7545 15.0215 42.8156 14.959 42.878 14.8897C43.1238 14.6358 43.4021 14.3738 43.6886 14.1103C43.7647 14.0492 43.8353 13.9881 43.9113 13.9189L44.0281 13.8252L44.1517 13.7329C44.2291 13.6718 44.3133 13.6093 44.3988 13.5482C44.483 13.4871 44.5685 13.4328 44.6527 13.3703C45.0003 13.1476 45.371 12.9467 45.796 12.8082L46.0975 12.7308L46.1355 12.7226H46.1898L46.2672 12.7077L46.4206 12.6765C46.5293 12.6615 46.6297 12.6534 46.737 12.6384C46.8456 12.6303 46.9461 12.6235 47.0547 12.6154C47.4716 12.5923 47.8885 12.6154 48.2822 12.6697C49.0698 12.7769 49.7867 12.9928 50.3733 13.2237C50.9681 13.4559 51.4311 13.7098 51.7556 13.8944C51.9185 13.9881 52.0421 14.0642 52.1263 14.1185C52.1725 14.1497 52.2037 14.1647 52.2268 14.1809C52.2499 14.1959 52.258 14.204 52.258 14.204C52.3734 14.2801 52.3965 14.443 52.3191 14.5503C52.2417 14.6657 52.0801 14.6888 51.9715 14.6127L51.9566 14.5964Z" fill="white"/>
<path d="M54.6589 33.2561C54.6589 33.2561 54.5585 33.2493 54.3887 33.2181C54.2109 33.195 53.9569 33.1488 53.6406 33.0796C53.316 33.009 52.9304 32.9248 52.4973 32.8012C52.0573 32.6777 51.5712 32.5242 51.0457 32.3151C50.5216 32.1155 49.973 31.8602 49.4095 31.552C48.846 31.2356 48.2825 30.8581 47.7421 30.4033C47.2085 29.9402 46.7074 29.4012 46.3055 28.7847C45.9036 28.1669 45.5872 27.4663 45.4093 26.7412C45.317 26.3786 45.2559 26.0079 45.2165 25.6386C45.1866 25.2679 45.1703 24.8986 45.1866 24.5279C45.2097 23.796 45.3333 23.0858 45.4949 22.4083C45.5804 22.0688 45.6727 21.7443 45.7732 21.4279L45.8112 21.3057L45.8574 21.1889C45.8886 21.1129 45.9199 21.0355 45.9579 20.9662C46.0271 20.8196 46.1045 20.673 46.1819 20.5345C46.5064 19.9859 46.9152 19.5161 47.3945 19.216C47.6335 19.0693 47.8887 18.9689 48.1359 18.9078C48.383 18.8453 48.6288 18.8534 48.8528 18.8684C49.309 18.9145 49.6797 19.0693 49.9649 19.2078C50.0341 19.2459 50.1034 19.2771 50.1658 19.3151C50.2269 19.3545 50.2813 19.3857 50.3356 19.4237C50.3899 19.455 50.436 19.4848 50.4822 19.5161C50.5284 19.5473 50.5678 19.5785 50.5976 19.6016C50.7375 19.7007 50.8149 19.7551 50.8149 19.7551C50.8149 19.7551 50.7375 19.7007 50.5976 19.6084C50.5596 19.5853 50.5216 19.5541 50.4822 19.531C50.436 19.5079 50.3899 19.4781 50.3356 19.4468C50.2813 19.4156 50.2269 19.3776 50.1577 19.3463C50.0966 19.3151 50.0273 19.2852 49.9567 19.2459C49.6634 19.1155 49.2927 18.9689 48.8528 18.9308C48.6288 18.9145 48.3898 18.9227 48.1508 18.9838C47.9118 19.0463 47.6647 19.1467 47.4406 19.292C46.9844 19.5853 46.5906 20.0565 46.2905 20.6037C46.2132 20.7422 46.1439 20.8807 46.0814 21.0274C46.0203 21.174 45.9579 21.3206 45.9117 21.4822C45.8194 21.7986 45.727 22.1218 45.6564 22.4612C45.5098 23.132 45.4093 23.834 45.3944 24.551C45.3862 24.9054 45.4093 25.2679 45.4487 25.6304C45.4949 25.9848 45.5641 26.3474 45.6564 26.695C45.8506 27.3889 46.1588 28.0515 46.5608 28.6381C46.9613 29.2233 47.4488 29.7325 47.9729 30.1561C48.4984 30.5879 49.0538 30.9355 49.6023 31.2288C50.1509 31.5221 50.6981 31.753 51.2087 31.9376C51.7179 32.1223 52.1958 32.2689 52.629 32.3776C53.0526 32.4848 53.4315 32.5704 53.7478 32.6247C54.0574 32.6777 54.3045 32.717 54.4743 32.7401C54.644 32.7632 54.7282 32.77 54.7282 32.77C54.8681 32.7863 54.9685 32.9017 54.9604 33.0402C54.9455 33.1787 54.8287 33.2792 54.6902 33.2724C54.6671 33.2561 54.6671 33.2561 54.6589 33.2561Z" fill="white"/>
<path d="M46.0204 44.4447C46.0204 44.4447 45.9892 44.4216 45.9199 44.3755C45.8575 44.3293 45.7651 44.2668 45.6565 44.1826C45.4338 44.0129 45.1242 43.7658 44.7766 43.4413C44.4222 43.1181 44.0284 42.7243 43.6496 42.2627C43.2721 41.7996 42.9014 41.2755 42.6231 40.6971C42.4846 40.4119 42.3678 40.1105 42.2836 39.8104C42.1981 39.5089 42.1519 39.2007 42.137 38.9006C42.1207 38.5992 42.1438 38.314 42.1981 38.0452C42.2524 37.775 42.3298 37.5279 42.4221 37.312C42.5144 37.0961 42.6231 36.9032 42.7236 36.7417C42.824 36.5801 42.9245 36.4402 43.0087 36.3411C43.0549 36.2868 43.0861 36.2406 43.1241 36.1944C43.1635 36.1551 43.1866 36.1171 43.2178 36.094C43.264 36.0397 43.2952 36.0084 43.2952 36.0084C43.2952 36.0084 43.2721 36.0397 43.2246 36.094C43.2015 36.1252 43.1716 36.1551 43.1404 36.2012C43.1092 36.2474 43.0712 36.2949 43.0318 36.3479C42.9544 36.4565 42.8621 36.6032 42.7697 36.7647C42.6774 36.9345 42.5837 37.1191 42.4995 37.3432C42.3379 37.775 42.2374 38.3222 42.2986 38.8925C42.3298 39.1776 42.3841 39.4709 42.4846 39.7561C42.5769 40.0412 42.7005 40.3196 42.8471 40.5884C43.1404 41.1289 43.5179 41.615 43.9049 42.0386C44.2905 42.4623 44.6924 42.8248 45.0468 43.1181C45.4026 43.4114 45.7108 43.6341 45.9349 43.7889C46.0435 43.8663 46.1358 43.9206 46.1901 43.9586C46.2512 43.9966 46.2825 44.0129 46.2825 44.0129H46.2906C46.406 44.089 46.444 44.2437 46.368 44.3592C46.2906 44.4746 46.1358 44.514 46.0204 44.4366C46.0272 44.4447 46.0272 44.4447 46.0204 44.4447Z" fill="white"/>
<path d="M45.9264 35.1674C45.9264 35.1674 45.9114 35.1293 45.8802 35.0601C45.8503 34.9827 45.8028 34.8754 45.7335 34.7356C45.6032 34.4667 45.3941 34.0729 45.0859 33.6561C44.9311 33.4483 44.7532 33.2324 44.5373 33.0328C44.3214 32.8319 44.0743 32.654 43.781 32.5386C43.4945 32.4313 43.1713 32.3919 42.8536 32.4693C42.5372 32.5386 42.2289 32.7165 41.9587 32.9242C41.6885 33.1401 41.4414 33.394 41.2174 33.6642C41.0015 33.9344 40.7923 34.2196 40.6226 34.5047C40.4529 34.7899 40.3225 35.0832 40.2139 35.3683C40.1596 35.515 40.1134 35.6535 40.0673 35.792C40.0211 35.9318 39.9899 36.0622 39.9437 36.1939C39.8582 36.456 39.7346 36.6786 39.5879 36.8484C39.4413 37.0181 39.2648 37.1186 39.11 37.158C39.0326 37.181 38.9633 37.1878 38.9009 37.196C38.8398 37.196 38.7855 37.2041 38.7474 37.196C38.6619 37.1878 38.6157 37.181 38.6157 37.181C38.6157 37.181 38.6619 37.181 38.7474 37.1878C38.7855 37.1878 38.8398 37.181 38.9009 37.181C38.9633 37.1729 39.0326 37.1648 39.1018 37.1335C39.2485 37.0874 39.4182 36.9882 39.5499 36.8104C39.6884 36.6406 39.7889 36.4166 39.8663 36.1627C39.9043 36.031 39.9288 35.8925 39.9668 35.754C40.0048 35.6155 40.0523 35.4688 40.0985 35.3222C40.199 35.0289 40.3225 34.7206 40.4841 34.4206C40.6457 34.1123 40.8385 33.8258 41.0558 33.5339C41.2717 33.2487 41.5106 32.9704 41.7972 32.7232C42.0823 32.4843 42.4068 32.2765 42.7775 32.1692C43.1482 32.0606 43.5488 32.0837 43.8964 32.1991C44.244 32.3145 44.5373 32.5155 44.7926 32.7232C45.0397 32.9324 45.2474 33.1632 45.4253 33.3791C45.7729 33.819 46.0119 34.2196 46.1667 34.4966C46.2441 34.6364 46.297 34.7519 46.3364 34.8361L46.3975 34.9596C46.4518 35.0913 46.3975 35.238 46.2672 35.2909C46.1355 35.3602 45.9807 35.2991 45.9264 35.1674Z" fill="white"/>
<path d="M45.7803 27.8123C45.7803 27.8123 45.7572 27.7974 45.7273 27.7662C45.6879 27.7349 45.6336 27.6969 45.5576 27.6426C45.4802 27.5883 45.3946 27.5272 45.2874 27.4579C45.1787 27.3887 45.0552 27.3194 44.9235 27.242C44.785 27.1646 44.6383 27.0954 44.4767 27.018C44.3138 26.9487 44.1359 26.8795 43.9512 26.8252C43.7652 26.7722 43.5724 26.7247 43.3714 26.7097C43.2723 26.6948 43.1718 26.7016 43.0714 26.6948C42.9709 26.7016 42.8704 26.7016 42.7699 26.7247C42.6694 26.741 42.569 26.7722 42.4685 26.7953C42.4223 26.8102 42.3761 26.8333 42.33 26.8482C42.2838 26.8645 42.2376 26.8876 42.1901 26.9107C42.144 26.9338 42.1059 26.9569 42.0598 26.98C42.0136 27.003 41.9742 27.0343 41.9362 27.0641C41.8507 27.1185 41.7814 27.1877 41.7122 27.2502C41.6972 27.2651 41.6741 27.28 41.6578 27.2963L41.6117 27.3493C41.5805 27.3887 41.5506 27.4199 41.5193 27.4579C41.4881 27.4891 41.4569 27.5272 41.4338 27.5652C41.4107 27.6046 41.3795 27.6426 41.3564 27.6738C41.3415 27.6888 41.3333 27.7118 41.3184 27.7281C41.3035 27.7431 41.2953 27.7662 41.2872 27.7811C41.2641 27.8205 41.241 27.8585 41.2261 27.8979C41.203 27.9359 41.1867 27.9671 41.1636 28.0051C41.1487 28.0445 41.1337 28.0825 41.1093 28.1138L41.0169 28.3215C40.9857 28.3908 40.9708 28.4519 40.9477 28.5143C40.9246 28.5754 40.9015 28.6297 40.8866 28.6841C40.8703 28.7384 40.8554 28.7845 40.8391 28.8307C40.7861 29.0072 40.7549 29.1077 40.7549 29.1077C40.7549 29.1077 40.778 29.0072 40.8241 28.8226C40.8391 28.7764 40.8472 28.7302 40.8635 28.6759C40.8784 28.6216 40.9015 28.5686 40.9165 28.5062C40.9395 28.4451 40.9558 28.3758 40.9789 28.3134C41.0102 28.2441 41.0332 28.1749 41.0631 28.1056L41.1093 27.9902C41.1256 27.9508 41.1487 27.9128 41.1717 27.8748C41.1948 27.8354 41.2098 27.7974 41.2328 27.758C41.241 27.7349 41.2559 27.72 41.2641 27.6969C41.2804 27.682 41.2872 27.6589 41.3035 27.6426C41.3265 27.6046 41.3496 27.5652 41.3795 27.5272C41.4039 27.4891 41.427 27.443 41.465 27.4118L41.5574 27.2963L41.6035 27.2339L41.6578 27.1809C41.7271 27.1103 41.7977 27.0343 41.89 26.9718C41.9281 26.9419 41.9742 26.9026 42.0136 26.8795C42.0598 26.8482 42.1059 26.8252 42.1521 26.7953C42.1983 26.7641 42.2444 26.741 42.2988 26.7179C42.3449 26.6948 42.3992 26.6717 42.4454 26.6554C42.5459 26.6256 42.6545 26.5862 42.7618 26.5631C42.8704 26.5332 42.9777 26.5332 43.0863 26.5169C43.1949 26.5169 43.3022 26.5101 43.4108 26.5169C43.6267 26.5251 43.8358 26.5631 44.0354 26.6093C44.2364 26.6554 44.4224 26.7179 44.5989 26.7871C44.77 26.8564 44.9316 26.9256 45.0783 26.9949C45.2249 27.0641 45.3566 27.1334 45.472 27.204C45.5875 27.2733 45.6879 27.3262 45.7653 27.3805C45.8427 27.4348 45.9038 27.4729 45.95 27.5041C45.9894 27.5353 46.0125 27.5503 46.0125 27.5503C46.0817 27.5964 46.098 27.6969 46.0505 27.7662C46.0043 27.8354 45.9038 27.8517 45.8346 27.8042C45.7884 27.8205 45.7803 27.8205 45.7803 27.8123Z" fill="white"/>
<path d="M41.8734 20.0628C41.8734 20.0628 41.8041 20.0791 41.6656 20.0859C41.5271 20.0941 41.3329 20.1022 41.079 20.071C40.8237 20.0398 40.5223 19.9787 40.1991 19.8239C39.8746 19.6772 39.5501 19.4233 39.288 19.0608C39.0246 18.7064 38.8549 18.2433 38.7707 17.7504C38.6851 17.2562 38.6621 16.7239 38.7082 16.1767C38.7164 16.0382 38.7313 15.9078 38.7476 15.768C38.7625 15.6295 38.7775 15.491 38.8006 15.3525L38.8712 14.9356C38.8942 14.7971 38.9323 14.6586 38.9553 14.5188C39.0708 13.9566 39.2337 13.4013 39.4034 12.8459C39.4876 12.5689 39.5881 12.2987 39.6818 12.0217L39.7117 11.9212C39.7198 11.89 39.7347 11.852 39.7429 11.8207C39.7578 11.7596 39.7823 11.689 39.7891 11.6279C39.8203 11.4962 39.8352 11.3577 39.8434 11.2274C39.8583 10.9571 39.8284 10.6951 39.7578 10.4412L39.7429 10.3936L39.7347 10.3706C39.7347 10.3706 39.7429 10.3868 39.7347 10.3706V10.3638L39.728 10.3475C39.7117 10.3176 39.7049 10.2782 39.6886 10.2633C39.6655 10.2171 39.6343 10.171 39.5962 10.1248C39.527 10.0325 39.4347 9.94691 39.3342 9.87766C39.1414 9.73916 38.9092 9.65361 38.677 9.63053C38.4462 9.60066 38.214 9.63868 38.0062 9.70793C37.7903 9.77718 37.5961 9.8858 37.4196 10.0094C37.2417 10.1397 37.087 10.2782 36.9403 10.4249C36.6552 10.7263 36.4393 11.0413 36.2614 11.3346C36.2152 11.4039 36.1758 11.4813 36.1378 11.5505C36.0984 11.6198 36.0604 11.689 36.021 11.7515C35.9518 11.8818 35.8907 12.0054 35.8364 12.114C35.7821 12.2294 35.7359 12.3299 35.6979 12.4141C35.6585 12.5064 35.6286 12.5757 35.6042 12.6382C35.5512 12.7617 35.5281 12.8228 35.5281 12.8228V12.831C35.4738 12.9613 35.3272 13.0156 35.1955 12.9613C35.0638 12.9084 35.0108 12.7617 35.0638 12.63V12.6232C35.0638 12.6232 35.095 12.5526 35.1493 12.4304C35.1805 12.3679 35.2104 12.2905 35.2579 12.1982C35.3041 12.1059 35.3503 12.0054 35.4114 11.89C35.4657 11.7746 35.5431 11.651 35.6123 11.5125C35.6517 11.4433 35.6979 11.374 35.7359 11.3034C35.7821 11.2341 35.8214 11.1581 35.8744 11.0807C36.0754 10.7793 36.3157 10.4412 36.6389 10.1248C36.8018 9.96184 36.9865 9.80841 37.1874 9.66991C37.3965 9.53005 37.6274 9.40784 37.8894 9.33045C38.1529 9.25305 38.438 9.21503 38.7245 9.25305C39.0097 9.29107 39.2948 9.3997 39.5419 9.58436C39.6655 9.6767 39.7741 9.78532 39.8665 9.90889C39.9126 9.96999 39.952 10.0392 39.99 10.1166C40.0131 10.1547 40.0213 10.1859 40.028 10.2171L40.0443 10.2483L40.0525 10.2714L40.0674 10.3244C40.1448 10.6095 40.1679 10.9191 40.1448 11.2192C40.1285 11.3659 40.1054 11.5193 40.0756 11.6659C40.0593 11.7433 40.0362 11.8126 40.0131 11.8818C39.9982 11.9212 39.99 11.9511 39.9751 11.9905L39.9357 12.0909C39.8352 12.3598 39.7347 12.63 39.6424 12.9002C39.4577 13.4474 39.288 13.9946 39.1482 14.5419C39.1183 14.6817 39.0789 14.8121 39.0477 14.9506C39.0246 15.0904 38.9947 15.2289 38.9703 15.3593C38.9404 15.4991 38.9241 15.6295 38.9092 15.768C38.8942 15.9078 38.863 16.0382 38.8549 16.1699C38.7938 16.7008 38.8006 17.2263 38.8712 17.7111C38.9472 18.1972 39.0938 18.6439 39.341 18.9997C39.5813 19.3541 39.8895 19.608 40.2059 19.7628C40.5223 19.9162 40.8237 19.9936 41.0709 20.0248C41.318 20.0628 41.519 20.0561 41.6575 20.0561C41.8041 20.071 41.8734 20.0628 41.8734 20.0628Z" fill="white"/>
<path d="M52.451 36.6259C52.451 36.6259 52.4361 36.6177 52.4049 36.6096C52.3736 36.6028 52.3193 36.5797 52.2582 36.5634C52.1347 36.5254 51.9486 36.4629 51.7327 36.41C51.5168 36.3475 51.2548 36.2864 50.9764 36.2403C50.8379 36.2172 50.6913 36.1941 50.5446 36.1778C50.398 36.1629 50.2432 36.1479 50.0965 36.1398C49.9499 36.1398 49.7951 36.1398 49.6484 36.1479C49.5018 36.1547 49.3552 36.1859 49.2234 36.2172C49.1542 36.2321 49.0931 36.2552 49.0225 36.2783C48.9926 36.2946 48.9614 36.3014 48.9301 36.3177L48.884 36.3326L48.8378 36.3557C48.8066 36.3706 48.7835 36.3869 48.7523 36.4018C48.7224 36.4168 48.6993 36.4331 48.6762 36.4562C48.6531 36.4711 48.6301 36.486 48.6056 36.5105C48.5825 36.5335 48.5595 36.5485 48.5445 36.5634C48.5214 36.5865 48.4984 36.6028 48.4821 36.6177C48.4671 36.6408 48.4522 36.6558 48.4291 36.6788C48.4128 36.7019 48.3979 36.7182 48.3829 36.7413C48.3666 36.7644 48.3599 36.7793 48.3436 36.8024C48.2892 36.8798 48.2662 36.9572 48.2363 37.0183C48.2118 37.0808 48.1969 37.1337 48.1888 37.1649C48.182 37.2043 48.1738 37.2193 48.1738 37.2193C48.1738 37.2193 48.1738 37.2043 48.182 37.1649C48.1888 37.1269 48.1969 37.0726 48.2118 37.0115C48.2363 36.949 48.2512 36.8649 48.3055 36.7793C48.3123 36.7562 48.3286 36.7332 48.3354 36.7101L48.3829 36.6408L48.4291 36.5716C48.444 36.5485 48.4671 36.5254 48.4821 36.5023C48.5065 36.4792 48.5214 36.4562 48.5445 36.4331C48.5676 36.41 48.5907 36.3937 48.6138 36.3706C48.6369 36.3475 48.6599 36.3244 48.6912 36.3095C48.7224 36.2946 48.7455 36.2701 48.7767 36.2552L48.8229 36.224L48.9614 36.1547C49.0306 36.1248 49.0931 36.0936 49.1623 36.0705C49.3008 36.0244 49.4556 35.9782 49.6104 35.9551C49.7639 35.9239 49.9187 35.9089 50.0802 35.8926C50.2432 35.8859 50.398 35.8777 50.5514 35.8859C50.7062 35.8859 50.861 35.8926 51.0077 35.9089C51.3009 35.932 51.5793 35.97 51.8101 36.0013C52.0423 36.0393 52.2351 36.0787 52.3736 36.1085C52.4429 36.1248 52.4972 36.1398 52.5366 36.1479C52.5746 36.1547 52.5895 36.1629 52.5895 36.1629C52.7294 36.1941 52.8068 36.3326 52.7756 36.4711C52.7443 36.6096 52.6058 36.687 52.466 36.6558C52.4741 36.6327 52.466 36.6327 52.451 36.6259Z" fill="white"/>
<path d="M54.1874 22.5694L54.1806 22.5612L54.1575 22.5381C54.1344 22.515 54.0869 22.477 54.034 22.4376C53.9796 22.3996 53.9022 22.3684 53.8249 22.3453C53.7407 22.3304 53.6551 22.3304 53.5546 22.3684C53.5085 22.3847 53.4542 22.4227 53.3998 22.4539C53.3768 22.477 53.3469 22.5001 53.3238 22.5232C53.2844 22.5612 53.2613 22.5761 53.2233 22.6155C53.0767 22.7391 52.9219 22.8464 52.7522 22.9468C52.4195 23.1478 52.042 23.3175 51.6482 23.4397C51.4554 23.5022 51.2463 23.5484 51.0453 23.5796C50.8444 23.6027 50.6448 23.6095 50.4506 23.5945C50.2578 23.5796 50.0731 23.5334 49.9102 23.471C49.7486 23.4017 49.602 23.3175 49.4865 23.217C49.4241 23.1709 49.3779 23.1166 49.3236 23.0704C49.2774 23.0161 49.2313 22.9699 49.2 22.9156C49.162 22.8626 49.1308 22.8151 49.0996 22.7771C49.0765 22.7309 49.0534 22.6848 49.0303 22.6468C49.0072 22.6074 48.9923 22.5761 48.976 22.5381C48.9611 22.5069 48.9529 22.4838 48.938 22.4607C48.923 22.4146 48.9067 22.3996 48.9067 22.3996C48.9067 22.3996 48.923 22.4227 48.938 22.4607C48.9461 22.4838 48.9611 22.5069 48.976 22.5381C48.9923 22.5694 49.0072 22.6006 49.0384 22.6386C49.0615 22.6766 49.0928 22.716 49.1158 22.7622C49.1457 22.8002 49.1851 22.8464 49.2231 22.8925C49.2625 22.9387 49.3087 22.9849 49.3548 23.031C49.4091 23.0785 49.4553 23.1247 49.5164 23.1627C49.6332 23.2469 49.7798 23.3175 49.9333 23.3705C50.0881 23.4248 50.2659 23.4479 50.4438 23.4479C50.8064 23.456 51.1852 23.3637 51.5477 23.217C51.9103 23.0704 52.2498 22.8857 52.543 22.6698C52.6897 22.5694 52.8296 22.4539 52.93 22.3453C52.9531 22.3222 52.9911 22.2842 53.0061 22.2611C53.0373 22.2217 53.0767 22.1919 53.1066 22.1606C53.1758 22.0982 53.2532 22.0371 53.3469 21.9991C53.5166 21.9054 53.7162 21.8904 53.871 21.9135C54.0258 21.9366 54.1575 21.9909 54.2499 22.0371C54.3422 22.0832 54.4114 22.1376 54.4576 22.1688C54.4807 22.1837 54.497 22.1987 54.5119 22.215L54.5282 22.2299C54.6273 22.3222 54.6355 22.4838 54.5432 22.5843C54.4508 22.6848 54.2879 22.6929 54.1874 22.6006C54.1955 22.5843 54.1955 22.5761 54.1874 22.5694Z" fill="white"/>
<path d="M35.5584 23.5947C35.5584 23.5947 35.5747 23.6097 35.6127 23.6328C35.6439 23.664 35.6982 23.7034 35.7593 23.7495C35.8829 23.8568 36.0608 24.0116 36.2767 24.2194C36.4926 24.4271 36.7479 24.6973 37.0181 25.0218C37.2883 25.345 37.5734 25.7306 37.8369 26.1774C38.0989 26.6255 38.346 27.1414 38.5158 27.7117C38.6774 28.2902 38.771 28.9311 38.7086 29.5856C38.6475 30.2414 38.4465 30.8972 38.1301 31.5055C38.0908 31.5829 38.0527 31.6603 38.0066 31.7296L37.8749 31.9536L37.7432 32.1695C37.697 32.2388 37.6671 32.308 37.6196 32.3773C37.4662 32.6624 37.3426 32.9707 37.2571 33.287C37.0792 33.9198 37.0412 34.5906 37.0873 35.2451C37.1416 35.9009 37.2801 36.5336 37.4662 37.1338C37.6508 37.7353 37.883 38.2988 38.1301 38.823C38.3773 39.3471 38.6312 39.8332 38.8946 40.265C39.4038 41.1367 39.8981 41.8306 40.2457 42.3004C40.6001 42.7702 40.8241 43.0336 40.8241 43.0336C40.8241 43.0336 40.6001 42.7784 40.2294 42.3153C39.8668 41.8537 39.3576 41.1748 38.824 40.303C38.5538 39.8712 38.2836 39.3933 38.0297 38.8691C37.7662 38.345 37.5205 37.7815 37.3195 37.1813C37.1186 36.5798 36.9556 35.9321 36.8864 35.2613C36.8171 34.5906 36.8402 33.8967 37.0099 33.2178C37.0955 32.8783 37.219 32.5538 37.3738 32.2456C37.4118 32.1695 37.4499 32.084 37.496 32.0147L37.5585 31.9061L37.6196 31.7988L37.7432 31.5829C37.7825 31.5137 37.8287 31.4444 37.8599 31.367C38.1451 30.7886 38.323 30.164 38.361 29.5625C38.4004 28.9542 38.3067 28.3594 38.1369 27.8285C37.9672 27.2962 37.7201 26.8183 37.4662 26.4014C37.2027 25.9846 36.9257 25.622 36.6623 25.3219C36.4003 25.0218 36.145 24.7747 35.9372 24.5738C35.7281 24.3741 35.5516 24.2343 35.4348 24.1352C35.3737 24.0876 35.3276 24.0496 35.2963 24.0265C35.2651 24.0035 35.2502 23.9953 35.2502 23.9953H35.242C35.1347 23.9111 35.1117 23.7563 35.1877 23.6409C35.2814 23.5336 35.443 23.5106 35.5584 23.5947C35.5516 23.5947 35.5584 23.5947 35.5584 23.5947Z" fill="white"/>
<path d="M45.9741 16.7009C45.9741 16.7009 45.8967 16.91 45.7569 17.2726C45.727 17.3649 45.6876 17.4654 45.6414 17.5727C45.5953 17.6813 45.5491 17.7967 45.4948 17.9203C45.4405 18.0438 45.3862 18.1742 45.3251 18.3127C45.2626 18.4512 45.1866 18.591 45.116 18.7445C45.0399 18.8911 44.9693 19.0527 44.8851 19.2075C44.7996 19.3623 44.7072 19.5239 44.6149 19.6936C44.5918 19.7316 44.5687 19.7778 44.5457 19.8172C44.5226 19.8552 44.4913 19.9014 44.4683 19.9394C44.4139 20.0249 44.3596 20.1091 44.3053 20.1947C44.2524 20.2788 44.1981 20.3644 44.1437 20.4486L43.9591 20.7039L43.773 20.9578C43.7119 21.042 43.6413 21.1194 43.5721 21.2049L43.3643 21.4588C43.3331 21.505 43.2951 21.5444 43.2557 21.5824L43.1403 21.7059C43.0629 21.7833 42.9855 21.8675 42.9162 21.9449C42.8388 22.0223 42.7547 22.0984 42.6773 22.1758C42.5917 22.2532 42.5143 22.3306 42.4301 22.4079L42.1667 22.6238C41.997 22.7691 41.8042 22.8927 41.6263 23.0244L41.4878 23.1167L41.3493 23.2009L41.2094 23.2865C41.1633 23.3177 41.1171 23.3476 41.0628 23.3707C40.87 23.4711 40.6772 23.5798 40.4694 23.664C40.2684 23.7563 40.0675 23.8337 39.8665 23.9029C39.766 23.9423 39.6656 23.9654 39.5651 24.0034C39.4646 24.0346 39.3641 24.0645 39.265 24.0876C39.1645 24.1107 39.064 24.1351 38.9704 24.1582C38.8712 24.1731 38.7775 24.1962 38.6771 24.2112C38.2914 24.2736 37.9207 24.3116 37.5813 24.3198C37.2418 24.3266 36.9254 24.3198 36.6471 24.2886C36.3687 24.2655 36.1297 24.2275 35.9288 24.1881C35.7278 24.1501 35.5744 24.1107 35.4739 24.0808C35.4196 24.0645 35.3816 24.0577 35.3503 24.0414C35.3191 24.0346 35.3042 24.0265 35.3042 24.0265C35.1725 23.9803 35.1032 23.8418 35.1412 23.7101C35.1874 23.5798 35.3273 23.5105 35.4576 23.5485H35.4658L35.4739 23.5567C35.4739 23.5567 35.4807 23.5567 35.5051 23.5635C35.5282 23.5716 35.5581 23.5866 35.6043 23.5947C35.6979 23.6259 35.8364 23.664 36.0211 23.7033C36.2071 23.7414 36.423 23.7875 36.6851 23.8187C36.9485 23.8568 37.2418 23.8717 37.5663 23.8799C37.8895 23.888 38.2371 23.8649 38.6078 23.8106C38.7001 23.7957 38.7938 23.7794 38.8862 23.7726C38.9785 23.7495 39.0708 23.7332 39.1713 23.7101C39.265 23.6952 39.3641 23.664 39.4578 23.6409C39.5502 23.6096 39.6506 23.5947 39.7511 23.5567C39.9439 23.4942 40.1367 23.4331 40.3296 23.3476C40.5224 23.2715 40.7152 23.1778 40.9094 23.0855C40.9555 23.0624 41.0017 23.0393 41.0479 23.0081L41.1864 22.9321L41.3262 22.8547C41.3724 22.8316 41.4185 22.8004 41.4647 22.7691C41.6426 22.6469 41.8354 22.5383 41.997 22.3998L42.2604 22.1988C42.3446 22.1296 42.422 22.0603 42.5075 21.9829C42.5917 21.9137 42.6691 21.8444 42.7547 21.767L43.1009 21.4208C43.1403 21.3814 43.1783 21.3434 43.2095 21.3054C43.2788 21.228 43.348 21.1424 43.4186 21.065C43.4879 20.989 43.5653 20.9116 43.6264 20.8261C43.6889 20.7419 43.7581 20.6645 43.8192 20.5803C43.8817 20.4947 43.9428 20.4173 44.0052 20.3413C44.0582 20.2558 44.1207 20.1784 44.175 20.0942C44.2293 20.01 44.2904 19.9326 44.3447 19.8552C44.3759 19.8172 44.399 19.7778 44.4289 19.7398C44.452 19.7004 44.4764 19.6542 44.5063 19.6162C44.6068 19.4546 44.6991 19.2998 44.7928 19.1464C44.8851 18.9916 44.9625 18.8368 45.0399 18.6902C45.116 18.5449 45.1934 18.405 45.2626 18.2747C45.3251 18.1362 45.3862 18.0126 45.4486 17.889C45.5029 17.7655 45.5573 17.6501 45.6102 17.5496C45.6564 17.4423 45.6958 17.3418 45.7338 17.2563C45.8886 16.91 45.9741 16.7009 45.9741 16.7009Z" fill="white"/>
<path d="M5.3393 61.4325C4.83996 61.4325 4.34996 61.3695 3.8693 61.2435C3.38863 61.1175 2.94996 60.9285 2.5533 60.6765C2.15663 60.4245 1.82763 60.1095 1.5663 59.7315C1.30963 59.3535 1.15563 58.9101 1.1043 58.4015H3.1973C3.2673 58.7095 3.4003 58.9685 3.5963 59.1785C3.7923 59.3885 4.03963 59.5495 4.3383 59.6615C4.63696 59.7735 4.9683 59.8295 5.3323 59.8295C5.70563 59.8295 6.0463 59.7828 6.3543 59.6895C6.6623 59.5961 6.90963 59.4561 7.0963 59.2695C7.28296 59.0781 7.3763 58.8401 7.3763 58.5555C7.3763 58.2988 7.2993 58.0888 7.1453 57.9255C6.99596 57.7621 6.79296 57.6291 6.5363 57.5265C6.27963 57.4238 5.98796 57.3398 5.6613 57.2745L3.9113 56.9175C3.14596 56.7728 2.5393 56.4695 2.0913 56.0075C1.6433 55.5408 1.4123 54.9201 1.3983 54.1455C1.39363 53.5108 1.56163 52.9625 1.9023 52.5005C2.24763 52.0338 2.7143 51.6745 3.3023 51.4225C3.89496 51.1705 4.55763 51.0445 5.2903 51.0445C6.16296 51.0445 6.89563 51.1821 7.4883 51.4575C8.08563 51.7281 8.5383 52.0968 8.8463 52.5635C9.15896 53.0255 9.31996 53.5411 9.3293 54.1105H7.2783C7.24096 53.7558 7.13363 53.4735 6.9563 53.2635C6.77896 53.0535 6.5503 52.9018 6.2703 52.8085C5.99496 52.7151 5.67996 52.6685 5.3253 52.6685C5.05463 52.6685 4.8073 52.6988 4.5833 52.7595C4.36396 52.8201 4.1773 52.9065 4.0233 53.0185C3.8693 53.1258 3.7503 53.2541 3.6663 53.4035C3.5823 53.5528 3.5403 53.7208 3.5403 53.9075C3.5403 54.2015 3.6383 54.4395 3.8343 54.6215C4.0303 54.8035 4.39663 54.9528 4.9333 55.0695L6.6693 55.4265C7.28996 55.5478 7.7823 55.7275 8.1463 55.9655C8.51496 56.2035 8.7903 56.4718 8.9723 56.7705C9.15896 57.0691 9.2803 57.3748 9.3363 57.6875C9.39696 57.9955 9.4273 58.2801 9.4273 58.5415C9.4273 59.0875 9.25463 59.5798 8.9093 60.0185C8.56863 60.4525 8.09263 60.7978 7.4813 61.0545C6.86996 61.3065 6.15596 61.4325 5.3393 61.4325ZM14.0053 53.9145C14.612 53.9145 15.1346 54.0381 15.5733 54.2855C16.0166 54.5328 16.3643 54.8665 16.6163 55.2865C16.873 55.7065 17.02 56.1755 17.0573 56.6935H15.3563C15.3236 56.5021 15.256 56.3131 15.1533 56.1265C15.0506 55.9351 14.906 55.7788 14.7193 55.6575C14.5326 55.5315 14.2993 55.4685 14.0193 55.4685C13.5433 55.4685 13.156 55.6528 12.8573 56.0215C12.5633 56.3855 12.4163 56.9408 12.4163 57.6875C12.4163 58.3921 12.561 58.9521 12.8503 59.3675C13.1396 59.7781 13.5433 59.9835 14.0613 59.9835C14.3366 59.9835 14.5653 59.9158 14.7473 59.7805C14.934 59.6451 15.0786 59.4841 15.1813 59.2975C15.284 59.1061 15.3493 58.9288 15.3773 58.7655H17.0363C17.0036 59.2648 16.859 59.7175 16.6023 60.1235C16.3456 60.5248 15.9956 60.8445 15.5523 61.0825C15.1136 61.3158 14.598 61.4325 14.0053 61.4325C13.3333 61.4325 12.7336 61.2831 12.2063 60.9845C11.679 60.6858 11.2636 60.2588 10.9603 59.7035C10.6616 59.1435 10.5123 58.4761 10.5123 57.7015C10.5123 56.9548 10.657 56.2968 10.9463 55.7275C11.2356 55.1581 11.6416 54.7148 12.1643 54.3975C12.6916 54.0755 13.3053 53.9145 14.0053 53.9145ZM18.4648 61.2925V50.8905H20.4948V55.0975C20.6115 54.9295 20.7585 54.7638 20.9358 54.6005C21.1132 54.4325 21.3348 54.2925 21.6008 54.1805C21.8668 54.0685 22.1912 54.0125 22.5738 54.0125C23.0358 54.0125 23.4558 54.1035 23.8338 54.2855C24.2165 54.4628 24.5222 54.7218 24.7508 55.0625C24.9842 55.4031 25.1008 55.8185 25.1008 56.3085V61.2925H23.0498V56.6095C23.0498 56.2828 22.9308 56.0331 22.6928 55.8605C22.4595 55.6831 22.1748 55.5945 21.8388 55.5945C21.6195 55.5945 21.4072 55.6341 21.2018 55.7135C20.9965 55.7928 20.8285 55.9141 20.6978 56.0775C20.5718 56.2361 20.5088 56.4345 20.5088 56.6725V61.2925H18.4648ZM29.8717 61.4325C29.1623 61.4325 28.544 61.2808 28.0167 60.9775C27.494 60.6741 27.088 60.2448 26.7987 59.6895C26.514 59.1341 26.3717 58.4761 26.3717 57.7155C26.3717 56.9548 26.514 56.2898 26.7987 55.7205C27.088 55.1511 27.494 54.7078 28.0167 54.3905C28.544 54.0731 29.1647 53.9145 29.8787 53.9145C30.5927 53.9145 31.211 54.0708 31.7337 54.3835C32.2563 54.6915 32.66 55.1301 32.9447 55.6995C33.2293 56.2688 33.3717 56.9408 33.3717 57.7155C33.3717 58.4435 33.2317 59.0875 32.9517 59.6475C32.6763 60.2028 32.2773 60.6391 31.7547 60.9565C31.2367 61.2738 30.609 61.4325 29.8717 61.4325ZM29.8787 59.9135C30.238 59.9135 30.5273 59.8085 30.7467 59.5985C30.966 59.3885 31.1247 59.1131 31.2227 58.7725C31.3253 58.4271 31.3767 58.0515 31.3767 57.6455C31.3767 57.2628 31.33 56.9011 31.2367 56.5605C31.148 56.2198 30.994 55.9445 30.7747 55.7345C30.5553 55.5245 30.2567 55.4195 29.8787 55.4195C29.5193 55.4195 29.2277 55.5198 29.0037 55.7205C28.7843 55.9165 28.6233 56.1848 28.5207 56.5255C28.418 56.8615 28.3667 57.2348 28.3667 57.6455C28.3667 58.0235 28.4133 58.3875 28.5067 58.7375C28.6 59.0828 28.7563 59.3651 28.9757 59.5845C29.195 59.8038 29.496 59.9135 29.8787 59.9135ZM37.8424 61.4325C37.133 61.4325 36.5147 61.2808 35.9874 60.9775C35.4647 60.6741 35.0587 60.2448 34.7694 59.6895C34.4847 59.1341 34.3424 58.4761 34.3424 57.7155C34.3424 56.9548 34.4847 56.2898 34.7694 55.7205C35.0587 55.1511 35.4647 54.7078 35.9874 54.3905C36.5147 54.0731 37.1354 53.9145 37.8494 53.9145C38.5634 53.9145 39.1817 54.0708 39.7044 54.3835C40.227 54.6915 40.6307 55.1301 40.9154 55.6995C41.2 56.2688 41.3424 56.9408 41.3424 57.7155C41.3424 58.4435 41.2024 59.0875 40.9224 59.6475C40.647 60.2028 40.248 60.6391 39.7254 60.9565C39.2074 61.2738 38.5797 61.4325 37.8424 61.4325ZM37.8494 59.9135C38.2087 59.9135 38.498 59.8085 38.7174 59.5985C38.9367 59.3885 39.0954 59.1131 39.1934 58.7725C39.296 58.4271 39.3474 58.0515 39.3474 57.6455C39.3474 57.2628 39.3007 56.9011 39.2074 56.5605C39.1187 56.2198 38.9647 55.9445 38.7454 55.7345C38.526 55.5245 38.2274 55.4195 37.8494 55.4195C37.49 55.4195 37.1984 55.5198 36.9744 55.7205C36.755 55.9165 36.594 56.1848 36.4914 56.5255C36.3887 56.8615 36.3374 57.2348 36.3374 57.6455C36.3374 58.0235 36.384 58.3875 36.4774 58.7375C36.5707 59.0828 36.727 59.3651 36.9464 59.5845C37.1657 59.8038 37.4667 59.9135 37.8494 59.9135ZM45.0151 61.4185C44.4831 61.4185 44.0607 61.3555 43.7481 61.2295C43.4354 61.1035 43.2044 60.9378 43.0551 60.7325C42.9057 60.5225 42.8101 60.2915 42.7681 60.0395C42.7261 59.7828 42.7051 59.5238 42.7051 59.2625V50.8905H44.7071V59.0105C44.7071 59.2765 44.7631 59.4935 44.8751 59.6615C44.9917 59.8248 45.2087 59.9251 45.5261 59.9625L45.8691 59.9835V61.2435C45.7291 61.2901 45.5867 61.3298 45.4421 61.3625C45.2974 61.3998 45.1551 61.4185 45.0151 61.4185ZM48.8558 58.1425C48.8511 58.5111 48.9094 58.8331 49.0308 59.1085C49.1521 59.3791 49.3271 59.5891 49.5558 59.7385C49.7891 59.8831 50.0691 59.9555 50.3958 59.9555C50.7458 59.9555 51.0514 59.8808 51.3128 59.7315C51.5788 59.5821 51.7631 59.3371 51.8658 58.9965H53.7068C53.6274 59.5098 53.4221 59.9485 53.0908 60.3125C52.7641 60.6765 52.3674 60.9541 51.9008 61.1455C51.4341 61.3368 50.9488 61.4325 50.4448 61.4325C49.7308 61.4325 49.1008 61.2831 48.5548 60.9845C48.0134 60.6811 47.5911 60.2541 47.2878 59.7035C46.9844 59.1528 46.8328 58.5041 46.8328 57.7575C46.8328 57.0341 46.9704 56.3831 47.2458 55.8045C47.5211 55.2211 47.9201 54.7615 48.4428 54.4255C48.9701 54.0848 49.6024 53.9145 50.3398 53.9145C51.0771 53.9145 51.6954 54.0708 52.1948 54.3835C52.6988 54.6915 53.0768 55.1231 53.3288 55.6785C53.5854 56.2291 53.7138 56.8661 53.7138 57.5895V58.1425H48.8558ZM48.8488 56.9245H51.8028C51.8028 56.6351 51.7491 56.3691 51.6418 56.1265C51.5344 55.8838 51.3711 55.6925 51.1518 55.5525C50.9371 55.4125 50.6664 55.3425 50.3398 55.3425C50.0224 55.3425 49.7518 55.4195 49.5278 55.5735C49.3084 55.7228 49.1404 55.9188 49.0238 56.1615C48.9071 56.4041 48.8488 56.6585 48.8488 56.9245ZM55.1328 61.2925V54.0545H57.0998V55.7695C57.2165 55.4008 57.3798 55.0788 57.5898 54.8035C57.8045 54.5235 58.0635 54.3065 58.3668 54.1525C58.6701 53.9938 59.0131 53.9145 59.3958 53.9145C59.4611 53.9145 59.5218 53.9191 59.5778 53.9285C59.6385 53.9331 59.6828 53.9425 59.7108 53.9565V55.9025C59.6688 55.8838 59.6175 55.8721 59.5568 55.8675C59.5008 55.8628 59.4495 55.8581 59.4028 55.8535C59.0015 55.8208 58.6585 55.8325 58.3738 55.8885C58.0891 55.9445 57.8581 56.0401 57.6808 56.1755C57.5035 56.3108 57.3751 56.4765 57.2958 56.6725C57.2165 56.8685 57.1768 57.0878 57.1768 57.3305V61.2925H55.1328ZM63.6696 61.4325C63.1656 61.4325 62.6803 61.3508 62.2136 61.1875C61.747 61.0195 61.3526 60.7581 61.0306 60.4035C60.7086 60.0441 60.5033 59.5798 60.4146 59.0105H62.1856C62.2463 59.2671 62.356 59.4701 62.5146 59.6195C62.678 59.7688 62.8623 59.8761 63.0676 59.9415C63.273 60.0021 63.469 60.0325 63.6556 60.0325C64.0476 60.0325 64.3626 59.9718 64.6006 59.8505C64.8433 59.7245 64.9646 59.5331 64.9646 59.2765C64.9646 59.0805 64.8923 58.9241 64.7476 58.8075C64.6076 58.6908 64.3743 58.6021 64.0476 58.5415L62.7736 58.2755C62.1343 58.1401 61.621 57.9115 61.2336 57.5895C60.8463 57.2628 60.648 56.8008 60.6386 56.2035C60.6386 55.7695 60.753 55.3798 60.9816 55.0345C61.215 54.6891 61.558 54.4161 62.0106 54.2155C62.4633 54.0148 63.0186 53.9145 63.6766 53.9145C64.568 53.9145 65.2796 54.1105 65.8116 54.5025C66.3483 54.8945 66.6213 55.4475 66.6306 56.1615H64.9226C64.8713 55.8815 64.7313 55.6668 64.5026 55.5175C64.2786 55.3635 63.9963 55.2865 63.6556 55.2865C63.301 55.2865 63.0093 55.3495 62.7806 55.4755C62.552 55.6015 62.4376 55.7928 62.4376 56.0495C62.4376 56.2408 62.531 56.3925 62.7176 56.5045C62.9043 56.6118 63.1936 56.7051 63.5856 56.7845L64.7616 57.0505C65.1676 57.1485 65.4966 57.2838 65.7486 57.4565C66.0053 57.6245 66.2036 57.8088 66.3436 58.0095C66.4836 58.2101 66.5793 58.4131 66.6306 58.6185C66.6866 58.8191 66.7146 59.0011 66.7146 59.1645C66.7146 59.6451 66.5863 60.0558 66.3296 60.3965C66.073 60.7325 65.716 60.9891 65.2586 61.1665C64.8013 61.3438 64.2716 61.4325 63.6696 61.4325Z" fill="black"/>
<path d="M68.0224 61.2925V59.4865H69.7514V61.2925H68.0224Z" fill="#20B486"/>
</svg>
